<?xml version="1.0" encoding="UTF-8"?>
<svg id="Layer_1" xmlns="http://www.w3.org/2000/svg" version="1.1" viewBox="0 0 72 72">
  <!-- Generator: Adobe Illustrator 29.7.1, SVG Export Plug-In . SVG Version: 2.1.1 Build 8)  -->
  <defs>
    <style>
      .st0 {
        fill-rule: evenodd;
      }
    </style>
  </defs>
  <path class="st0" d="M72,36c0,19.88-16.12,36-36,36S0,55.88,0,36,16.12,0,36,0s36,16.12,36,36ZM36,16.36c1.81,0,3.27,1.47,3.27,3.27v19.64c0,1.81-1.47,3.27-3.27,3.27s-3.27-1.47-3.27-3.27v-19.64c0-1.81,1.47-3.27,3.27-3.27ZM36,55.64c1.81,0,3.27-1.47,3.27-3.27s-1.47-3.27-3.27-3.27-3.27,1.47-3.27,3.27,1.47,3.27,3.27,3.27Z"/>
</svg>