<?xml version="1.0" encoding="UTF-8"?>
<svg id="Layer_1" xmlns="http://www.w3.org/2000/svg" version="1.1" viewBox="0 0 72 72">
  <!-- Generator: Adobe Illustrator 29.7.1, SVG Export Plug-In . SVG Version: 2.1.1 Build 8)  -->
  <path d="M72,36c0,19.8-16.2,36-36,36S0,55.8,0,36,16.2,0,36,0c19.8-.36,36,15.84,36,36q0-.36,0,0ZM5.4,36c0,16.92,13.68,30.6,30.6,30.96,16.92,0,30.6-13.68,30.96-30.6,0-16.92-13.68-30.6-30.6-30.96h-.36c-16.92,0-30.6,13.68-30.6,30.6Z"/>
  <path d="M46.44,29.52l-10.44,10.44-10.44-10.44c-1.08-1.08-2.88-1.08-3.96,0h0c-1.08,1.08-1.08,2.88,0,3.96l14.4,14.4,14.4-14.4c1.08-1.08,1.08-2.88,0-3.96h0c-.72-1.08-2.52-1.08-3.96,0,.36-.36,0,0,0,0Z"/>
</svg>