<?xml version="1.0" encoding="UTF-8"?>
<svg id="Layer_1" xmlns="http://www.w3.org/2000/svg" version="1.1" viewBox="0 0 72 72">
  <!-- Generator: Adobe Illustrator 29.7.1, SVG Export Plug-In . SVG Version: 2.1.1 Build 8)  -->
  <defs>
    <style>
      .st0 {
        fill-rule: evenodd;
      }
    </style>
  </defs>
  <path class="st0" d="M36,72c19.88,0,36-16.12,36-36S55.88,0,36,0,0,16.12,0,36s16.12,36,36,36ZM20.59,51.41c-1.28-1.28-1.28-3.35,0-4.63l10.78-10.78-10.78-10.78c-1.28-1.28-1.28-3.35,0-4.63,1.28-1.28,3.35-1.28,4.63,0l10.78,10.78,10.78-10.78c1.28-1.28,3.35-1.28,4.63,0,1.28,1.28,1.28,3.35,0,4.63l-10.78,10.78,10.78,10.78c1.28,1.28,1.28,3.35,0,4.63-1.28,1.28-3.35,1.28-4.63,0l-10.78-10.78-10.78,10.78c-1.28,1.28-3.35,1.28-4.63,0Z"/>
</svg>