<?xml version="1.0" encoding="UTF-8"?>
<svg id="Layer_1" xmlns="http://www.w3.org/2000/svg" version="1.1" viewBox="0 0 72 72">
  <!-- Generator: Adobe Illustrator 29.7.1, SVG Export Plug-In . SVG Version: 2.1.1 Build 8)  -->
  <path d="M50.34,72h-28.68c-11.43-.01-20.69-9.27-20.7-20.7v-28.68C.97,11.19,10.23,1.93,21.66,1.92h12.78v5.48h-12.78c-8.41,0-15.22,6.82-15.23,15.23v28.68c0,8.41,6.82,15.22,15.23,15.23h28.68c8.41,0,15.22-6.82,15.23-15.23v-14.34h5.48v14.34c-.01,11.43-9.27,20.69-20.7,20.7Z"/>
  <polygon points="60.41 0 71.04 10.63 35.29 46.38 21.76 49.28 24.66 35.75 60.41 0"/>
</svg>