<?xml version="1.0" encoding="UTF-8"?>
<svg id="Layer_1" xmlns="http://www.w3.org/2000/svg" xmlns:serif="http://www.serif.com/" version="1.1" viewBox="0 0 72 72">
  <!-- Generator: Adobe Illustrator 29.7.1, SVG Export Plug-In . SVG Version: 2.1.1 Build 8)  -->
  <defs>
    <style>
      .st0 {
        fill-rule: evenodd;
      }
    </style>
  </defs>
  <path class="st0" d="M36,0c19.87,0,36,16.13,36,36s-16.13,36-36,36S0,55.87,0,36,16.13,0,36,0ZM36,7.2c-15.89,0-28.8,12.9-28.8,28.8s12.9,28.8,28.8,28.8,28.8-12.9,28.8-28.8S51.89,7.2,36,7.2ZM39.6,54.9c0,1.99-1.61,3.6-3.6,3.6s-3.6-1.61-3.6-3.6v-23.73c0-1.99,1.61-3.6,3.6-3.6s3.6,1.61,3.6,3.6v23.73ZM39.6,19.17c0,1.99-1.61,3.6-3.6,3.6s-3.6-1.61-3.6-3.6v-2.07c0-1.99,1.61-3.6,3.6-3.6s3.6,1.61,3.6,3.6v2.07Z"/>
</svg>