<svg xmlns="http://www.w3.org/2000/svg" version="1.1" viewBox="-5.0 -10.0 110.0 135.0">
 <path d="m98.012 16.055c0-7.7969-6.3438-14.137-14.137-14.137-4.7578 0-8.9688 2.3633-11.531 5.9766-6.4883-3.0547-13.77-3.9961-20.812-2.7539-12.797-5.9297-28.629-3.7852-39.492 7.2852-6.6367 6.7617-10.203 15.637-10.043 24.98 0.27344 15.992 11.188 28.98 25.453 32.984v19c-0.085938 2.3047 1.2578 4.5273 3.5273 5.4453l6.9922 2.8281c2.8945 1.1719 6.1875-0.22266 7.3594-3.1172l8.2656-20.434c15.387 1.7148 30.09-6.9414 36.059-21.25 3.1445-7.5352 3.6484-16.156 0.92578-24.371 4.4219-2.3867 7.4336-7.0664 7.4336-12.438zm-68.258 51.055c-5.9727-1.3984-11.203-4.457-15.242-8.6289h13.734c2.1289 3.2695 4.7969 6.1797 7.8828 8.5664l-4.9219 12.168v-10.277c0-0.87109-0.60156-1.6289-1.4531-1.8281zm22.938 3.0977c-0.86328-0.13672-1.7031 0.34375-2.0312 1.1523l-8.8125 21.781c-0.39453 0.96875-1.4961 1.4414-2.4688 1.0469l-6.9922-2.8281c-0.98047-0.39844-1.4336-1.5117-1.043-2.4648l8.8125-21.785c0.32812-0.80859 0.054688-1.7383-0.66016-2.2383-4.9648-3.5039-8.6914-8.2812-10.895-13.715l41.484 16.785c-5.3047 2.3477-11.305 3.2188-17.395 2.2656zm21.684-4.5859-47.246-19.113c-1.375-5.9102-1.0273-12.246 1.2773-18.234 6.3945-16.617 25.914-24.605 42.18-17.055-0.55078 1.5078-0.85156 3.1367-0.85156 4.8359 0 9.0273 8.4219 15.832 17.328 13.77 4.4336 13.602-1.0508 28.266-12.688 35.797z"/>
<text x="0.0" y="117.5" font-size="5.0" font-weight="bold" font-family="Arbeit Regular, Helvetica, Arial-Unicode, Arial, Sans-serif" fill="#000000">Created by Icogenix</text><text x="0.0" y="122.5" font-size="5.0" font-weight="bold" font-family="Arbeit Regular, Helvetica, Arial-Unicode, Arial, Sans-serif" fill="#000000">from Noun Project</text></svg>