<svg xmlns="http://www.w3.org/2000/svg" viewBox="0 0 100 125" x="0px" y="0px"><path d="m59.14 26.474c-.002 4.215-3.837 8.05-8.05 8.05-4.215 0-8.05-3.832-8.05-8.05-.002-4.217 3.834-8.06 8.05-8.06 4.217 0 8.05 3.839 8.05 8.06" color="#000"/><path d="m42.22 37.719c-4.01 0-7.25 3.236-7.25 7.25 0 .452.034.901.106 1.337l5.956 30.19c.749 3.2 3.637 5.5 7.03 5.5l6.06 0c3.394 0 6.388-2.459 7.03-5.5l5.941-30.19c.08-.436.121-.885.121-1.336 0-4.01-3.268-7.25-7.281-7.25l-5.875 0c.003.031.003.063 0 .094l-1.813 8.813c1.321.513 2.345 1.848 2.344 3.281-.001 1.832-1.668 3.5-3.5 3.5-1.832 0-3.499-1.668-3.5-3.5-.001-1.433 1.023-2.768 2.344-3.281l-1.813-8.813c-.003-.031-.003-.063 0-.094zm6.875 0l1.781 8.719c.073-.005.146-.031.219-.031.073 0 .146.026.219.031l1.781-8.719z" color="#000"/><path d="m89.34 45.759c-.003 3.919-3.567 7.482-7.486 7.482-3.919 0-7.484-3.563-7.486-7.482-.002-3.921 3.565-7.49 7.486-7.49 3.921 0 7.488 3.569 7.486 7.49" color="#000"/><path d="m75.44 56.22c-3.732 0-6.75 3.02-6.75 6.75 0 .42.039.836.114 1.24l2.542 12.697c.618 2.975 3.375 5.094 6.531 5.094l7.938 0c3.156 0 5.861-2.119 6.531-5.094l2.543-12.698c.074-.404.114-.82.114-1.24 0-3.732-3.02-6.75-6.75-6.75l-3.531 0-1.719 8.25c1.321.513 2.345 1.848 2.344 3.281-.001 1.832-1.668 3.5-3.5 3.5-1.832 0-3.499-1.668-3.5-3.5-.001-1.433 1.023-2.768 2.344-3.281l-1.719-8.25zm4.531 0l1.656 8.06c.073-.005.146-.031.219-.031.073 0 .146.026.219.031l1.656-8.06z" color="#000"/><path d="m11.165 39.731c.002 3.919 3.567 7.482 7.486 7.482 3.919 0 7.484-3.563 7.486-7.482.003-3.921-3.565-7.49-7.486-7.49-3.921 0-7.488 3.569-7.486 7.49" color="#000"/><path d="m11.75 50.19c-3.732 0-6.75 3.02-6.75 6.75 0 .42.039.836.114 1.24l3.043 18.729c.523 2.791 3.375 5.094 6.531 5.094l7.938 0c3.156 0 5.902-2.119 6.531-5.094l3.042-18.729c.074-.404.114-.82.114-1.24 0-3.732-3.02-6.75-6.75-6.75l-4.03 0-1.719 8.25c1.321.513 2.345 1.848 2.344 3.281-.001 1.832-1.668 3.5-3.5 3.5-1.832 0-3.499-1.668-3.5-3.5-.001-1.433 1.023-2.768 2.344-3.281l-1.719-8.25zm5.03 0l1.656 8.06c.073-.005.146-.031.219-.031.073 0 .146.026.219.031l1.656-8.06z" color="#000"/><text x="0" y="115" fill="#000000" font-size="5px" font-weight="bold" font-family="'Helvetica Neue', Helvetica, Arial-Unicode, Arial, Sans-serif">Created by Magicon</text><text x="0" y="120" fill="#000000" font-size="5px" font-weight="bold" font-family="'Helvetica Neue', Helvetica, Arial-Unicode, Arial, Sans-serif">from the Noun Project</text></svg>