<svg xmlns="http://www.w3.org/2000/svg" version="1.1" viewBox="-5.0 -10.0 110.0 135.0">
 <path d="m87.961 78.07-19.176-19.176c-0.94531-0.94531-2.4766-0.94531-3.4219 0l-1.5234 1.5234-4.7891-4.7891c4.0625-4.832 6.5117-11.059 6.5117-17.848 0-15.316-12.461-27.777-27.777-27.777s-27.777 12.461-27.777 27.777 12.461 27.777 27.777 27.777c6.7891 0 13.016-2.4492 17.844-6.5078l4.793 4.793-1.5234 1.5234c-0.94531 0.94531-0.94531 2.4766 0 3.4219l19.172 19.176c2.7227 2.7188 7.1758 2.7188 9.8906 0 2.7188-2.7227 2.7188-7.1758 0-9.8906zm-50.18-17.352c-12.648 0-22.938-10.289-22.938-22.938s10.289-22.938 22.938-22.938 22.938 10.289 22.938 22.938-10.289 22.938-22.938 22.938z"/>
<text x="0.0" y="117.5" font-size="5.0" font-weight="bold" font-family="Arbeit Regular, Helvetica, Arial-Unicode, Arial, Sans-serif" fill="#000000">Created by Putri Amaliya</text><text x="0.0" y="122.5" font-size="5.0" font-weight="bold" font-family="Arbeit Regular, Helvetica, Arial-Unicode, Arial, Sans-serif" fill="#000000">from Noun Project</text></svg>