<svg xmlns="http://www.w3.org/2000/svg" version="1.1" viewBox="-5.0 -10.0 110.0 135.0">
 <path d="m48.441 28.082c6.1641 1.0273 11.457-4.3047 10.438-10.52-0.63281-3.7656-3.6406-6.8008-7.3789-7.4336-6.1641-1.0273-11.457 4.3047-10.438 10.516 0.58203 3.7695 3.6406 6.8008 7.3789 7.4375z"/>
 <path d="m80.281 27.887c-28.742 9.9336-60.348 0.050781-60.688 0-2.2812-0.73438-4.6602 0.53906-5.3867 2.7891-0.73047 2.3008 0.53516 4.6992 2.7656 5.4297 0.73047 0.24609 9.7109 3.0352 22.48 4.3086 0.48438 0.046876 0.87109 0.4375 0.87109 0.92969v16.484c0 1.0273-0.19141 2.1055-0.48438 3.082l-8.1562 24.27c-0.58203 1.7578-0.097656 3.7656 1.3594 4.8906 0.82422 0.63672 1.75 0.92969 2.6719 0.92969 1.7969 0 3.4453-1.125 4.0781-2.9336l8.5938-22.848c0.24219-0.6875 0.87109-1.1289 1.6016-1.1289 0.72656 0 1.3594 0.44141 1.6016 1.1289l8.5938 22.848c0.62891 1.8086 2.2812 2.9336 4.0781 2.9336 0.77734 0 1.5508-0.19531 2.2812-0.63672 1.7461-1.0742 2.4258-3.2773 1.7461-5.2344l-8.1562-24.219c-0.33984-0.97656-0.48437-2.0547-0.48437-3.082v-16.242c0-0.48828 0.38672-0.92969 0.875-0.97656 7.2344-0.58984 14.855-1.957 22.332-4.5039 1.9883-0.68359 3.3984-2.6406 3.1055-4.6953-0.38672-2.7891-3.1562-4.4023-5.6797-3.5234z"/>
<text x="0.0" y="117.5" font-size="5.0" font-weight="bold" font-family="Arbeit Regular, Helvetica, Arial-Unicode, Arial, Sans-serif" fill="#000000">Created by Taylor Chism</text><text x="0.0" y="122.5" font-size="5.0" font-weight="bold" font-family="Arbeit Regular, Helvetica, Arial-Unicode, Arial, Sans-serif" fill="#000000">from Noun Project</text></svg>