<svg xmlns="http://www.w3.org/2000/svg" version="1.1" viewBox="-5.0 -10.0 110.0 135.0">
 <path d="m8.0508 62.449h1.3086c1.5508 0 2.9414 0.98047 3.5508 2.4883 0.10156 0.25 0.19922 0.5 0.30859 0.73828 0.62891 1.4883 0.33984 3.1602-0.75 4.2617l-0.92188 0.92188c-3.1406 3.1406-3.1406 8.2383 0 11.379l6.2188 6.2188c3.1406 3.1406 8.2383 3.1406 11.379 0l0.92188-0.92188c1.0898-1.0898 2.7617-1.3906 4.25-0.76172 0.25 0.10937 0.5 0.21094 0.75 0.30859 1.5117 0.60156 2.4883 2 2.4883 3.5508v1.3086c0 4.4414 3.6094 8.0508 8.0508 8.0508h8.8008c4.4414 0 8.0508-3.6094 8.0508-8.0508v-1.3086c0-1.5508 0.98047-2.9414 2.4883-3.5508 0.25-0.10156 0.5-0.19922 0.73828-0.30859 1.4883-0.62891 3.1719-0.33984 4.2617 0.75l0.92188 0.92187c1.5195 1.5195 3.5391 2.3594 5.6914 2.3594 2.1484 0 4.1719-0.83984 5.6914-2.3594l6.2305-6.2188c3.1406-3.1406 3.1406-8.2383 0-11.379l-0.92188-0.92188c-1.0898-1.0898-1.3906-2.7617-0.75-4.2617 0.10156-0.25 0.21094-0.5 0.30859-0.73828 0.60156-1.5117 2-2.4883 3.5508-2.4883h1.3086c4.4414 0 8.0508-3.6094 8.0508-8.0508v-8.8008c0-4.4414-3.6094-8.0508-8.0508-8.0508h-1.3086c-1.5508 0-2.9414-0.98047-3.5391-2.4805-0.10156-0.25-0.19922-0.5-0.30859-0.75-0.62891-1.4883-0.33984-3.1602 0.75-4.25l0.92188-0.92188c3.1406-3.1406 3.1406-8.25 0-11.379l-6.2188-6.2188c-3.1406-3.1406-8.25-3.1406-11.379 0l-0.92188 0.92188c-1.0898 1.0898-2.7617 1.3906-4.2617 0.75-0.25-0.10156-0.5-0.21094-0.73828-0.30859-1.5117-0.60156-2.4883-2-2.4883-3.5508l-0.003906-1.2969c-0.03125-4.4414-3.6406-8.0508-8.082-8.0508h-8.8008c-4.4414 0-8.0508 3.6094-8.0508 8.0508v1.3086c0 1.5508-0.98047 2.9414-2.4805 3.5391-0.25 0.10156-0.5 0.19922-0.75 0.30859-1.4883 0.62891-3.1602 0.33984-4.25-0.75l-0.92188-0.92188c-3.1406-3.1406-8.25-3.1406-11.379 0l-6.2188 6.2188c-3.1406 3.1406-3.1406 8.25 0 11.379l0.92188 0.92188c1.0898 1.0898 1.3906 2.7617 0.75 4.2617-0.10156 0.25-0.21094 0.5-0.30859 0.73828-0.60156 1.5117-2 2.4883-3.5508 2.4883l-1.3086 0.007812c-4.4414 0-8.0508 3.6094-8.0508 8.0508v8.8008c0 4.4375 3.6094 8.0469 8.0508 8.0469zm-3.7812-16.848c0-2.0898 1.6992-3.7812 3.7812-3.7812h1.3086c3.3008 0 6.25-2.0312 7.5117-5.1719 0.089844-0.21875 0.17969-0.44141 0.26953-0.66016 1.3203-3.1016 0.66016-6.6094-1.6719-8.9414l-0.92188-0.92188c-1.4805-1.4805-1.4805-3.8789 0-5.3516l6.2188-6.2188c1.4805-1.4688 3.8789-1.4805 5.3516 0l0.92187 0.92187c2.3281 2.3281 5.8281 2.9805 8.9297 1.6719 0.21875-0.089844 0.44141-0.17969 0.67188-0.26953 3.1406-1.2617 5.1719-4.1992 5.1719-7.5117l-0.003906-1.3164c0-2.0898 1.6992-3.7812 3.7812-3.7812h8.8008c2.0898 0 3.7812 1.6992 3.7812 3.7812v1.3086c0 3.3008 2.0312 6.25 5.1719 7.5117 0.21875 0.089844 0.44141 0.17969 0.66016 0.26953 3.1016 1.3203 6.6094 0.66016 8.9414-1.6719l0.92188-0.92188c1.4805-1.4805 3.8789-1.4805 5.3516 0l6.2188 6.2188c1.4805 1.4805 1.4805 3.8789 0 5.3516l-0.92188 0.92187c-2.3281 2.3281-2.9805 5.8281-1.6719 8.9297 0.089844 0.21875 0.17969 0.44141 0.26953 0.67188 1.2617 3.1406 4.1992 5.1719 7.5117 5.1719h1.3086c2.0898 0 3.7812 1.6992 3.7812 3.7812v8.8008c0 2.0898-1.6992 3.7812-3.7812 3.7812h-1.3086c-3.3008 0-6.25 2.0312-7.5117 5.1719-0.089843 0.21875-0.17969 0.44141-0.26953 0.66016-1.3086 3.1016-0.66016 6.6094 1.6719 8.9414l0.92188 0.92188c1.4805 1.4805 1.4805 3.8789 0 5.3516l-6.2305 6.2188c-1.4297 1.4297-3.9219 1.4297-5.3516 0l-0.92188-0.92188c-2.3203-2.3281-5.8281-2.9805-8.9414-1.6602-0.21875 0.089844-0.44141 0.17969-0.66016 0.26953-3.1406 1.25-5.1719 4.1992-5.1719 7.5117v1.3086c0 2.0898-1.6992 3.7812-3.7812 3.7812h-8.8008c-2.0898 0-3.7812-1.6992-3.7812-3.7812v-1.3086c0-3.3008-2.0312-6.25-5.1719-7.5-0.21875-0.089844-0.44141-0.17969-0.67188-0.26953-1.0586-0.44922-2.1719-0.67188-3.2695-0.67188-2.1016 0-4.1406 0.80859-5.6719 2.3281l-0.92188 0.92188c-1.4688 1.4805-3.8789 1.4805-5.3516 0l-6.2188-6.2188c-1.4805-1.4805-1.4805-3.8789 0-5.3516l0.92188-0.92188c2.3281-2.3281 2.9805-5.8281 1.6602-8.9414-0.089843-0.21875-0.17969-0.44141-0.26953-0.66016-1.2617-3.1406-4.1992-5.1719-7.5117-5.1719l-1.2695-0.003906c-2.0898 0-3.7812-1.6992-3.7812-3.7812z"/>
 <path d="m50 70.609c11.359 0 20.609-9.2383 20.609-20.609s-9.25-20.609-20.609-20.609-20.609 9.25-20.609 20.609 9.25 20.609 20.609 20.609zm0-36.949c9.0117 0 16.34 7.3281 16.34 16.34s-7.3281 16.34-16.34 16.34-16.34-7.3281-16.34-16.34 7.3281-16.34 16.34-16.34z"/>
<text x="0.0" y="117.5" font-size="5.0" font-weight="bold" font-family="Arbeit Regular, Helvetica, Arial-Unicode, Arial, Sans-serif" fill="#000000">Created by Fina Uswania</text><text x="0.0" y="122.5" font-size="5.0" font-weight="bold" font-family="Arbeit Regular, Helvetica, Arial-Unicode, Arial, Sans-serif" fill="#000000">from Noun Project</text></svg>