<svg xmlns="http://www.w3.org/2000/svg" xmlns:xlink="http://www.w3.org/1999/xlink" version="1.1" x="0px" y="0px" viewBox="0 0 504 428.975" style="enable-background:new 0 0 504 343.18;" xml:space="preserve"><g><path d="M500,0H4C1.791,0,0,1.791,0,4v335.18c0,2.209,1.791,4,4,4h496c2.209,0,4-1.791,4-4V4C504,1.791,502.209,0,500,0z    M192.85,335.18H8V8h184.85v67.769c-51.037,2.105-91.91,44.276-91.91,95.82c0,51.544,40.873,93.715,91.91,95.82V335.18z    M196.85,259.5c-48.474,0-87.91-39.437-87.91-87.91s39.437-87.91,87.91-87.91s87.91,39.437,87.91,87.91S245.324,259.5,196.85,259.5   z"/><path d="M196.85,161.59c7.052,0,12.79-5.738,12.79-12.79v-8.28c0-2.209-1.791-4-4-4h-17.58c-2.209,0-4,1.791-4,4v8.28   C184.06,155.852,189.798,161.59,196.85,161.59z M192.06,144.52h9.58v4.28c0,2.641-2.149,4.79-4.79,4.79s-4.79-2.149-4.79-4.79   V144.52z"/><path d="M196.85,195.26c7.052,0,12.79-5.737,12.79-12.79v-8.28c0-2.209-1.791-4-4-4h-17.58c-2.209,0-4,1.791-4,4v8.28   C184.06,189.522,189.798,195.26,196.85,195.26z M192.06,178.189h9.58v4.28c0,2.642-2.149,4.79-4.79,4.79s-4.79-2.148-4.79-4.79   V178.189z"/><path d="M254.34,124.37c0-2.209-1.791-4-4-4h-0.69v-6.94c0-1.182-0.523-2.304-1.428-3.063   c-12.244-10.279-27.098-16.592-42.955-18.254c-1.129-0.119-2.252,0.247-3.094,1.006c-0.842,0.758-1.323,1.839-1.323,2.972v24.28h-8   V96.09c0-1.133-0.481-2.214-1.323-2.972c-0.842-0.759-1.967-1.121-3.094-1.006c-15.857,1.663-30.71,7.975-42.955,18.254   c-0.905,0.76-1.428,1.881-1.428,3.063v6.94h-0.69c-2.209,0-4,1.791-4,4v16.888l-8.488-6.088c-0.958-0.687-2.171-0.917-3.314-0.627   s-2.1,1.069-2.615,2.129c-3.31,6.811-5.63,14.065-6.896,21.562c-0.301,1.785,0.633,3.549,2.278,4.303l19.036,8.725v6.119   c0,0.641,0.036,1.285,0.058,1.928l-17.461-1.563c-1.211-0.11-2.406,0.34-3.247,1.22c-0.841,0.878-1.236,2.092-1.074,3.297   c1.401,10.43,4.777,20.307,10.036,29.357c0.6,1.032,1.63,1.743,2.808,1.938c0.217,0.035,0.434,0.053,0.65,0.053   c0.96,0,1.897-0.346,2.631-0.987l11.457-10.006c1.331,2.721,2.845,5.338,4.578,7.792c1.804,2.57,3.808,4.961,5.977,7.182H139.72   c-1.57,0-2.995,0.919-3.643,2.349c-0.648,1.43-0.4,3.107,0.635,4.288c13.329,15.207,31.696,24.74,51.721,26.842   c0.14,0.015,0.279,0.021,0.417,0.021c0.984,0,1.938-0.363,2.677-1.027c0.842-0.759,1.323-1.839,1.323-2.973v-12.353   c1.325,0.091,2.66,0.143,4,0.143c1.34,0,2.675-0.051,4-0.143v12.353c0,1.134,0.481,2.214,1.323,2.973   c0.738,0.664,1.693,1.027,2.677,1.027c0.139,0,0.278-0.007,0.417-0.021c20.024-2.103,38.392-11.635,51.721-26.842   c1.035-1.181,1.283-2.858,0.635-4.288c-0.648-1.43-2.073-2.349-3.643-2.349h-16.053c2.169-2.219,4.17-4.608,5.97-7.173   c1.737-2.459,3.253-5.079,4.585-7.801l11.456,10.006c0.734,0.642,1.671,0.987,2.631,0.987c0.216,0,0.434-0.018,0.65-0.053   c1.178-0.194,2.208-0.905,2.808-1.938c5.264-9.059,8.637-18.938,10.026-29.361c0.161-1.205-0.235-2.417-1.076-3.295   c-0.841-0.877-2.035-1.33-3.246-1.218l-17.451,1.563c0.022-0.643,0.058-1.286,0.058-1.928v-6.122l19.036-8.721   c1.646-0.754,2.58-2.519,2.278-4.303c-1.266-7.495-3.586-14.749-6.896-21.562c-0.515-1.061-1.472-1.84-2.615-2.129   c-1.141-0.289-2.355-0.06-3.314,0.627l-8.489,6.089V124.37z M139.36,162.461l-12.854-5.892c0.877-4.121,2.111-8.148,3.69-12.039   l9.164,6.573V162.461z M132.279,203.295c-2.68-5.434-4.645-11.163-5.87-17.119l13.835,1.238c0.437,2.487,1.048,4.939,1.809,7.344   L132.279,203.295z M223.94,128.37v48.76c0,4.519-1.069,8.81-3.176,12.752c-2.682,5.009-6.958,9.133-12.041,11.614   c-3.708,1.813-7.703,2.733-11.873,2.733s-8.164-0.92-11.874-2.733c-2.69-1.314-5.139-3.065-7.277-5.204   c-1.894-1.894-3.496-4.052-4.761-6.408c-2.109-3.945-3.178-8.236-3.178-12.754v-48.76H223.94z M176.758,205.895l-10.434,10.434   c-2.941-2.307-5.604-4.935-7.96-7.857l10.361-10.361c1.012,1.354,2.118,2.638,3.317,3.836   C173.503,203.41,175.084,204.722,176.758,205.895z M152.05,115.325c9.57-7.63,20.803-12.643,32.8-14.655v19.7h-32.8V115.325z    M147.36,128.37h14.4v22.29h-14.4V128.37z M147.36,158.66h14.4v11.18h-14.4V158.66z M153.788,201.734   c-1.287-2.271-2.419-4.64-3.339-7.109c-1.361-3.659-2.281-7.488-2.738-11.395c-0.215-1.78-0.321-3.591-0.338-5.391h14.408   c0.092,4.509,1.053,8.966,2.812,13.089L153.788,201.734z M184.85,242.51c-13.218-2.221-25.472-8.078-35.505-16.92h16.202   c5.942,3.877,12.415,6.58,19.303,8.03V242.51z M204.261,226.324c-0.005,0.001-0.011,0.001-0.016,0.002   c-4.801,0.734-9.974,0.736-14.806-0.002c-5.777-0.861-11.237-2.713-16.302-5.495l10.99-10.99c4.042,1.579,8.306,2.391,12.722,2.391   c4.417,0,8.681-0.812,12.722-2.391l10.991,10.991C215.499,223.61,210.039,225.463,204.261,226.324z M227.376,216.33l-10.43-10.43   c3.06-2.15,5.776-4.794,8.024-7.793l10.367,10.366C232.983,211.392,230.321,214.02,227.376,216.33z M246.34,169.84h-14.4v-11.18   h14.4V169.84z"/></g><text x="0" y="358.18" fill="#000000" font-size="5px" font-weight="bold" font-family="'Helvetica Neue', Helvetica, Arial-Unicode, Arial, Sans-serif">Created by Amethyst Studio</text><text x="0" y="363.18" fill="#000000" font-size="5px" font-weight="bold" font-family="'Helvetica Neue', Helvetica, Arial-Unicode, Arial, Sans-serif">from the Noun Project</text></svg>