<svg xmlns="http://www.w3.org/2000/svg" version="1.1" viewBox="-5.0 -10.0 110.0 135.0">
 <path d="m38.508 10.852c0.19141 6.2148 1.2461 12.25 3.4336 16.629 1.8711 3.75 4.5 6.0469 7.8477 6.043 3.3477-0.003907 5.9688-2.3008 7.8359-6.0547 2.1797-4.3828 3.2227-10.418 3.3984-16.633l-22.52 0.019531zm45.582 69.449h2.3008v-4.6094l-18.574 0.015625v4.6094h2.3008-0.003907c0.55859-0.003906 1.0898 0.21875 1.4844 0.60938 0.39453 0.39453 0.61719 0.92578 0.61719 1.4805l0.007812 8.8008c0 0.55859-0.21875 1.0898-0.60938 1.4844-0.39453 0.39453-0.92578 0.61719-1.4844 0.61719l-8.8008 0.007812c-1.1562 0-2.0938-0.9375-2.0977-2.0938l-0.007813-8.8008v0.003906c-0.003906-0.55859 0.21875-1.0938 0.60938-1.4844 0.39453-0.39453 0.92578-0.61719 1.4844-0.61719h2.3008l-0.007813-6.6992c-0.003906-0.55859 0.21875-1.0898 0.60938-1.4844 0.39453-0.39453 0.92578-0.61719 1.4805-0.61719l9.1211-0.007813-0.007812-6.1328-50.012 0.046876 0.007813 6.1328 9.4492-0.007812v-0.003907c1.1562 0 2.0938 0.9375 2.0977 2.0938l0.007812 6.6992h2.3008c1.1562 0 2.0938 0.9375 2.0977 2.0938l0.007812 8.8008c0.003907 0.55469-0.21484 1.0898-0.60938 1.4844-0.39453 0.39062-0.92578 0.61328-1.4805 0.61328l-8.8008 0.007812c-0.55859 0.003906-1.0898-0.21484-1.4844-0.60938-0.39453-0.39062-0.61719-0.92578-0.61719-1.4805l-0.007813-8.8008c0-1.1562 0.9375-2.0977 2.0938-2.1016h2.3008v-4.6094l-18.574 0.015624v4.6094h2.3008l-0.003906 0.003906c0.55859-0.007813 1.0938 0.21094 1.4922 0.60156 0.39453 0.39453 0.62109 0.92578 0.62109 1.4844l0.007812 8.8008c0 1.1562-0.93359 2.0938-2.0938 2.0977l-8.8008 0.007812h0.003907c-0.55859 0.003907-1.0898-0.21875-1.4844-0.60938-0.39453-0.39453-0.61719-0.92578-0.61719-1.4805l-0.007813-8.8008c0-1.1562 0.9375-2.0977 2.0938-2.1016h2.3008l-0.007813-6.6992c0-1.1562 0.9375-2.0938 2.0938-2.1016l9.1211-0.007812-0.007813-8.2266v0.003906c0-0.55859 0.21875-1.0898 0.61328-1.4844 0.39062-0.39453 0.92578-0.61719 1.4805-0.61719l25.016-0.023437-0.003907-5.5117c0-1.1562 0.9375-2.0938 2.0938-2.0938s2.0938 0.9375 2.0938 2.0938v5.5117l25.016-0.023438c0.55859 0 1.0938 0.21875 1.4844 0.61328 0.39453 0.39062 0.61719 0.92578 0.61719 1.4805l0.007812 8.2266 9.4531-0.007813c1.1562 0 2.0938 0.93359 2.0977 2.0938l0.007813 6.6992h2.3008c0.55469-0.003906 1.0898 0.21875 1.4805 0.60938 0.39453 0.39453 0.61719 0.92578 0.61719 1.4805l0.007813 8.8008c0 1.1562-0.93359 2.0977-2.0938 2.1016l-8.8008 0.007813h0.003906c-0.55859 0-1.0898-0.22266-1.4805-0.61719-0.39453-0.39063-0.61328-0.92578-0.61328-1.4805v-8.8008c0-0.55469 0.21875-1.0898 0.60938-1.4805 0.39453-0.39453 0.92578-0.61719 1.4844-0.61719zm6.707 4.1836h-4.6094v4.6094h4.6094zm-22.762 0.019531h-4.6094v4.6094h4.6094zm-31.461 0.027344h-4.6094v4.6094h4.6094zm-22.762 0.019531h-4.6094v4.6094h4.6094zm27.805-43.852h1.7812v-4.9648c-1.1055-0.77734-2.0938-1.7148-2.9297-2.7773-4.6172-0.94531-8.6914-3.6289-11.387-7.4961-2.6914-3.8672-3.7969-8.6211-3.082-13.281 0.089844-1.0859 0.99609-1.918 2.0859-1.9219h6.2188c-0.011719-0.49219-0.015626-0.99219-0.015626-1.4883-0.003906-0.55859 0.21875-1.0898 0.60938-1.4844 0.39453-0.39453 0.92578-0.61719 1.4844-0.61719l26.77-0.023438h-0.003906c0.55859-0.003906 1.0898 0.21875 1.4844 0.60938 0.39453 0.39453 0.61719 0.92578 0.61719 1.4805 0 0.5-0.003906 0.99609-0.015625 1.4883l6.2188-0.007812v0.003906c1.0898 0 1.9961 0.83594 2.0898 1.918 0.72266 4.6562-0.375 9.4141-3.0586 13.285-2.6875 3.8711-6.7578 6.5625-11.371 7.5156-0.83203 1.0664-1.8203 2.0039-2.9258 2.7852l0.003906 4.9648h1.7852c3.0781 0.003906 5.5703 2.4961 5.582 5.5703v3.4805c0 0.55859-0.21875 1.0898-0.60938 1.4844-0.39453 0.39453-0.92578 0.61719-1.4844 0.61719l-23.316 0.019531c-0.55469 0.003906-1.0898-0.21875-1.4844-0.60938-0.39453-0.39453-0.61719-0.92578-0.61719-1.4805v-3.4844c0-3.0781 2.4922-5.5742 5.5703-5.5859zm16.359 4.1758-16.355 0.015625c-0.76172 0.007813-1.3789 0.625-1.3867 1.3867v1.3867l19.129-0.015624v-1.3906c-0.007812-0.76172-0.62109-1.375-1.3867-1.3828zm-10.391-7.3711v3.1914h4.4102l0.003906-3.1953c-1.457 0.27734-2.9531 0.27734-4.4102 0zm14.656-10.129v-0.003906c4.6914-2.5938 7.5195-7.6094 7.3242-12.965h-4.543c-0.28516 4.4336-1.2227 8.8008-2.7812 12.961zm-27.723-12.934h-4.543c-0.19141 5.3594 2.6484 10.367 7.3438 12.957-1.5625-4.1562-2.5078-8.5234-2.8008-12.957z" fill-rule="evenodd"/>
<text x="0.0" y="117.5" font-size="5.0" font-weight="bold" font-family="Arbeit Regular, Helvetica, Arial-Unicode, Arial, Sans-serif" fill="#000000">Created by Topicons07</text><text x="0.0" y="122.5" font-size="5.0" font-weight="bold" font-family="Arbeit Regular, Helvetica, Arial-Unicode, Arial, Sans-serif" fill="#000000">from Noun Project</text></svg>