<svg xmlns="http://www.w3.org/2000/svg" xmlns:xlink="http://www.w3.org/1999/xlink" version="1.1" x="0px" y="0px" viewBox="0 0 24 30" style="enable-background:new 0 0 24 24;" xml:space="preserve"><style type="text/css">
	.st0{fill-rule:evenodd;clip-rule:evenodd;}
</style><path class="st0" d="M19.8,14.1c-0.3,0-0.7,0.1-1.1,0.1c-4.9,0-8.9-4-8.9-8.9c0-0.4,0-0.7,0.1-1.1C10,3.4,10.2,2.7,10.4,2  C9.6,2.1,8.9,2.4,8.1,2.7C4.5,4.2,2,7.8,2,11.9C2,17.5,6.5,22,12.1,22c4.2,0,7.7-2.5,9.3-6.1c0.3-0.7,0.5-1.5,0.7-2.3  C21.3,13.8,20.6,14,19.8,14.1z M12.1,20C7.6,20,4,16.4,4,11.9C4,9,5.5,6.5,7.8,5.1c0,0.1,0,0.1,0,0.2c0,6,4.9,10.9,10.9,10.9  c0.1,0,0.1,0,0.2,0C17.5,18.5,15,20,12.1,20z"/><text x="0" y="39" fill="#000000" font-size="5px" font-weight="bold" font-family="'Helvetica Neue', Helvetica, Arial-Unicode, Arial, Sans-serif">Created by Noe Araujo</text><text x="0" y="44" fill="#000000" font-size="5px" font-weight="bold" font-family="'Helvetica Neue', Helvetica, Arial-Unicode, Arial, Sans-serif">from the Noun Project</text></svg>