<svg xmlns="http://www.w3.org/2000/svg" xmlns:xlink="http://www.w3.org/1999/xlink" version="1.1" x="0px" y="0px" viewBox="0 0 100 125" enable-background="new 0 0 100 100" xml:space="preserve"><path d="M51.31,39.603l8.037,8.676l13.648-12.646l0.43-9.773l-9.777,0.428L51.31,39.603z M40.817,50.927l-5.195,5.607l-3.998-4  l-2.477,2.477l5.562,5.566l-8.064,8.066l3.992,3.994l8.066-8.066l5.568,5.561l2.475-2.48l-3.998-3.992l5.902-5.469L40.817,50.927z   M70.925,55.015l-2.486-2.475l-3.994,4.002L36.417,26.286l-9.775-0.422l0.432,9.773l30.246,28.025l-3.998,4l2.473,2.475l5.568-5.564  l8.064,8.07l3.998-4.002l-8.064-8.062L70.925,55.015z"/><text x="0" y="115" fill="#000000" font-size="5px" font-weight="bold" font-family="'Helvetica Neue', Helvetica, Arial-Unicode, Arial, Sans-serif">Created by Sergey Demushkin</text><text x="0" y="120" fill="#000000" font-size="5px" font-weight="bold" font-family="'Helvetica Neue', Helvetica, Arial-Unicode, Arial, Sans-serif">from the Noun Project</text></svg>