<svg xmlns="http://www.w3.org/2000/svg" version="1.1" viewBox="-5.0 -10.0 110.0 135.0">
 <path d="m91.078 60.707c2.793-2.793 7.0352 1.4492 4.2422 4.2422l-20.785 20.785c-1.1016 1.0859-2.9883 1.1367-4.1914-0.050781l-20.73-20.734c-2.793-2.793 1.4492-7.0352 4.2422-4.2422l15.613 15.613v-59.879c0-3.9492 6-3.9492 6 0v59.879zm-64.738-47.016-0.875 0.58203-20.785 20.781c-2.793 2.793 1.4492 7.0352 4.2422 4.2422l15.613-15.613v59.879c0 3.9492 6 3.9492 6 0l-0.003906-59.879 15.613 15.613c2.793 2.793 7.0352-1.4492 4.2422-4.2422l-20.73-20.734c-0.87109-0.85547-2.1602-1.1328-3.3164-0.62891z" fill-rule="evenodd"/>
<text x="0.0" y="117.5" font-size="5.0" font-weight="bold" font-family="Arbeit Regular, Helvetica, Arial-Unicode, Arial, Sans-serif" fill="#000000">Created by Melisa Lutfiani</text><text x="0.0" y="122.5" font-size="5.0" font-weight="bold" font-family="Arbeit Regular, Helvetica, Arial-Unicode, Arial, Sans-serif" fill="#000000">from Noun Project</text></svg>