<svg xmlns="http://www.w3.org/2000/svg" data-name="Layer 1" viewBox="0 0 100 125" x="0px" y="0px"><title>Edit</title><path d="M68.92,97.5H31.08A27.347,27.347,0,0,1,3.764,70.184V32.344A27.346,27.346,0,0,1,31.08,5.029H47.936v7.224H31.08A20.113,20.113,0,0,0,10.989,32.344v37.84A20.114,20.114,0,0,0,31.08,90.276H68.92A20.114,20.114,0,0,0,89.011,70.184V51.264h7.225v18.92A27.347,27.347,0,0,1,68.92,97.5Z"/><polygon points="82.212 2.5 96.236 16.524 49.065 63.694 31.217 67.519 35.041 49.671 82.212 2.5"/><text x="0" y="115" fill="#000000" font-size="5px" font-weight="bold" font-family="'Helvetica Neue', Helvetica, Arial-Unicode, Arial, Sans-serif">Created by Rainbow Designs</text><text x="0" y="120" fill="#000000" font-size="5px" font-weight="bold" font-family="'Helvetica Neue', Helvetica, Arial-Unicode, Arial, Sans-serif">from the Noun Project</text></svg>