<svg xmlns="http://www.w3.org/2000/svg" version="1.1" viewBox="-5.0 -10.0 110.0 135.0">
 <path d="m65.301 39.602c-0.003906-0.55469-0.44922-1-1-1h-3.8594c0-0.32031 0-0.64062-0.019531-0.96094-0.023437-0.53516-0.46875-0.95312-1-0.94141h-18.844c-0.52344-0.007813-0.96094 0.39844-1 0.92188-0.039063 0.33984-0.019531 0.66016-0.039063 0.98047h-3.8398c-0.55078 0-0.99609 0.44531-1 1v2.1016-0.003906c0.011719 5.2773 3.6719 9.8438 8.8203 11 0.96875 1.293 2.082 2.4648 3.3203 3.5 0.32031 0.26953 0.67969 0.49219 1.0586 0.66016 0.12891 1.2773-0.14453 2.5625-0.77734 3.6797h-1.8828c-0.26562 0-0.51953 0.10156-0.70703 0.28906-0.1875 0.19141-0.29297 0.44531-0.29297 0.71094v4.7617c0 0.26562 0.10547 0.51953 0.29297 0.71094 0.1875 0.1875 0.44141 0.28906 0.70703 0.28906h9.5234c0.26562 0 0.51953-0.10156 0.70703-0.28906 0.1875-0.19141 0.29297-0.44531 0.29297-0.71094v-4.7617c0-0.26562-0.10547-0.51953-0.29297-0.71094-0.1875-0.1875-0.44141-0.28906-0.70703-0.28906h-1.8828c-0.63281-1.1172-0.90625-2.4023-0.77734-3.6797 0.37891-0.16797 0.73828-0.39062 1.0586-0.66016 1.25-1.0195 2.3672-2.1953 3.3203-3.5 5.1523-1.1484 8.8164-5.7188 8.8203-11zm-28.602 2.1016v-1.1016h2.8008c0.035156 3.2617 0.82031 6.4727 2.3008 9.3789-3.125-1.5781-5.0977-4.7812-5.1016-8.2812zm26.602 0v-0.003906c-0.007812 3.5234-2.0078 6.7344-5.1602 8.3008 1.4531-2.9258 2.2461-6.1328 2.3203-9.3984h2.8398z"/>
 <path d="m51 25v-5c0-0.55078-0.44922-1-1-1s-1 0.44922-1 1v5c0 0.55078 0.44922 1 1 1s1-0.44922 1-1z"/>
 <path d="m28.078 29.496 3.5352 3.5352v-0.003906c0.39453 0.37891 1.0195 0.375 1.4023-0.011719 0.38672-0.38281 0.39062-1.0078 0.011719-1.4023l-3.5312-3.5352c-0.39453-0.38672-1.0234-0.38281-1.4141 0.003906-0.38672 0.39062-0.39062 1.0195-0.003906 1.4141z"/>
 <path d="m20 51h5c0.55078 0 1-0.44922 1-1s-0.44922-1-1-1h-5c-0.55078 0-1 0.44922-1 1s0.44922 1 1 1z"/>
 <path d="m28.078 71.922c0.39062 0.38672 1.0273 0.38672 1.418 0l3.5352-3.5352h-0.003906c0.19531-0.1875 0.30469-0.44531 0.30859-0.71094 0-0.26953-0.10547-0.52734-0.29297-0.71875-0.19141-0.1875-0.44922-0.29297-0.71875-0.29297-0.26562 0.003907-0.52344 0.11328-0.71094 0.30859l-3.5352 3.5312c-0.38672 0.39062-0.38672 1.0273 0 1.418z"/>
 <path d="m51 80v-5c0-0.55078-0.44922-1-1-1s-1 0.44922-1 1v5c0 0.55078 0.44922 1 1 1s1-0.44922 1-1z"/>
 <path d="m68.387 66.973c-0.1875-0.19531-0.44531-0.30469-0.71094-0.30859-0.26953 0-0.52734 0.10547-0.71875 0.29297-0.1875 0.19141-0.29297 0.44922-0.29297 0.71875 0.003907 0.26562 0.11328 0.52344 0.30859 0.71094l3.5312 3.5352c0.39453 0.38672 1.0234 0.38281 1.4141-0.003906 0.38672-0.39062 0.39062-1.0195 0.003906-1.4141z"/>
 <path d="m74 50c0 0.26562 0.10547 0.51953 0.29297 0.70703s0.44141 0.29297 0.70703 0.29297h5c0.55078 0 1-0.44922 1-1s-0.44922-1-1-1h-5c-0.55078 0-1 0.44922-1 1z"/>
 <path d="m71.922 28.078c-0.39062-0.38672-1.0273-0.38672-1.418 0l-3.5352 3.5352h0.003906c-0.19531 0.1875-0.30469 0.44531-0.30859 0.71094 0 0.26953 0.10547 0.52734 0.29297 0.71875 0.19141 0.1875 0.44922 0.29297 0.71875 0.29297 0.26562-0.003907 0.52344-0.11328 0.71094-0.30859l3.5352-3.5312c0.38672-0.39062 0.38672-1.0273 0-1.418z"/>
<text x="0.0" y="117.5" font-size="5.0" font-weight="bold" font-family="Arbeit Regular, Helvetica, Arial-Unicode, Arial, Sans-serif" fill="#000000">Created by MBR</text><text x="0.0" y="122.5" font-size="5.0" font-weight="bold" font-family="Arbeit Regular, Helvetica, Arial-Unicode, Arial, Sans-serif" fill="#000000">from Noun Project</text></svg>