<svg xmlns="http://www.w3.org/2000/svg" version="1.1" viewBox="-5.0 -10.0 110.0 135.0">
 <path d="m24.699 56.117 19.059 19.059-0.88672 0.88672c-1.4336 1.4336-3.7656 1.4336-5.1992 0l-13.855-13.855c-1.4336-1.4336-1.4336-3.7656 0-5.1992l0.88672-0.88672zm57.766 32.684c1.4336 1.4336 3.7656 1.4336 5.1992 0l1.2578-1.2617c0.69531-0.69531 1.0742-1.6172 1.0742-2.6016s-0.38281-1.9062-1.0742-2.5977l-0.89062-0.89062-6.4609 6.4648 0.88672 0.88672zm-20.797-24.527-4.5703-4.5703-4.1914 3.75 5.0625 4.5273 3.7031-3.7031zm-45.496 15.906 3.5234 3.5234 10.07-10.07-3.5195-3.5195-10.07 10.066zm23.996-37.398-7.1523-7.1562c-0.75781-0.75781-0.75391-1.9805 0-2.7383 0.75781-0.75391 1.9805-0.75391 2.7383 0l7 7.0039 4.6523-5.1992-20.332-22.738-16.82-1.8281 1.8242 16.82 23.48 20.996 4.6133-5.1562zm-29.098 39.559c-1.4336 1.4336-1.4336 3.7617 0 5.1953l1.2656 1.2656c0.69141 0.69141 1.6133 1.0703 2.6016 1.0703h0.003906c0.98438 0 1.9023-0.38281 2.5938-1.0703l0.89453-0.89062-6.4609-6.4648-0.89453 0.89453zm59.164-8.7109 10.07 10.07 3.5195-3.5234-10.074-10.07-3.5195 3.5195zm-38.344-15.793 3.6992 3.6992 28.652-28.652c0.75781-0.75781 1.9805-0.75781 2.7383 0 0.75781 0.75781 0.75781 1.9805 0 2.7383l-28.652 28.652 3.6992 3.6992 45.887-41.035 1.8281-16.816-16.816 1.8281-41.027 45.891zm28.09-0.72266 4.418 4.418 3.6992-3.6992-3.9648-4.4336-4.1562 3.7148zm5.7891 8.5234-9.5273 9.5273 0.89062 0.88672c0.69141 0.69141 1.6172 1.0742 2.6016 1.0742h0.003906c0.98438 0 1.9023-0.38281 2.5938-1.0703l13.863-13.859c1.4336-1.4336 1.4336-3.7656 0-5.1992l-0.89062-0.89062-9.5273 9.5273z"/>
<text x="0.0" y="117.5" font-size="5.0" font-weight="bold" font-family="Arbeit Regular, Helvetica, Arial-Unicode, Arial, Sans-serif" fill="#000000">Created by Putri Amaliya</text><text x="0.0" y="122.5" font-size="5.0" font-weight="bold" font-family="Arbeit Regular, Helvetica, Arial-Unicode, Arial, Sans-serif" fill="#000000">from Noun Project</text></svg>