<svg xmlns="http://www.w3.org/2000/svg" viewBox="0 0 32 40" x="0px" y="0px"><g><path d="M16.19141,31.291C-2.13271,30.89523-5.10441,5.22816,12.67746.72849a.755.755,0,0,1,.83131,1.08306A12.26974,12.26974,0,0,0,12.043,7.64062C11.89042,16.78034,22.21176,22.9526,30.18859,18.49a.7556.7556,0,0,1,1.08336.83225A15.41266,15.41266,0,0,1,16.19141,31.291ZM11.48,2.63867A13.91345,13.91345,0,0,0,2.2085,15.80859c.25657,15.66736,21.73,19.32491,27.15283,4.71094C18.31244,24.90567,7.09587,13.6836,11.48,2.63867Z"/></g><text x="0" y="47" fill="#000000" font-size="5px" font-weight="bold" font-family="'Helvetica Neue', Helvetica, Arial-Unicode, Arial, Sans-serif">Created by Dicky Prayudawanto</text><text x="0" y="52" fill="#000000" font-size="5px" font-weight="bold" font-family="'Helvetica Neue', Helvetica, Arial-Unicode, Arial, Sans-serif">from the Noun Project</text></svg>