<svg xmlns="http://www.w3.org/2000/svg" version="1.1" viewBox="-5.0 -10.0 110.0 135.0">
 <path d="m47.555 89.133c1.1602 0.10156 2.3086 0.14844 3.4609 0.14844 9.2305 0 18.078-3.2188 25.23-9.2305 5.5508-4.6719 9.6992-10.758 12-17.609 0.30078-0.89844 0.050781-1.8984-0.64844-2.5508-0.69922-0.64844-1.7109-0.82812-2.5898-0.44922-10.93 4.6133-23.402 1.6133-31.043-7.4766-9.2109-10.949-8.2383-27.18 2.2188-36.949 0.69141-0.64844 0.94141-1.6406 0.64062-2.5508-0.30859-0.89844-1.1211-1.5391-2.0586-1.6289-10.621-1.0391-20.961 2.1797-29.109 9.0312-8.0391 6.7617-12.969 16.25-13.879 26.711-0.89844 10.461 2.3203 20.648 9.0781 28.68 6.7617 8.0469 16.242 12.965 26.699 13.875z"/>
<text x="0.0" y="117.5" font-size="5.0" font-weight="bold" font-family="Arbeit Regular, Helvetica, Arial-Unicode, Arial, Sans-serif" fill="#000000">Created by Yoo Seungyeon</text><text x="0.0" y="122.5" font-size="5.0" font-weight="bold" font-family="Arbeit Regular, Helvetica, Arial-Unicode, Arial, Sans-serif" fill="#000000">from Noun Project</text></svg>