<svg xmlns="http://www.w3.org/2000/svg" version="1.1" viewBox="-5.0 -10.0 110.0 135.0">
 <path d="m44.207 24.051c3.75-0.87891 7.8359-0.87891 11.586 0 0.10156 0.023438 0.20312 0.035157 0.30469 0.035157 0.36328 0 0.71484-0.14844 0.97266-0.42188 0.32422-0.34766 0.44141-0.84375 0.30078-1.2969l-4.7734-15.527c-0.35547-1.1445-1.3984-1.918-2.5977-1.918s-2.2422 0.77344-2.5977 1.9141l-4.7734 15.527c-0.14062 0.45703-0.023437 0.94922 0.30078 1.2969 0.32812 0.35547 0.8125 0.50391 1.2773 0.39062zm5.8477-16.434 4.125 13.418c-1.375-0.19922-2.7734-0.30469-4.1797-0.30469-1.3984 0-2.7969 0.10156-4.1641 0.30469z"/>
 <path d="m55.793 75.949c-3.75 0.87891-7.8359 0.87891-11.586 0-0.46484-0.11719-0.94922 0.039062-1.2734 0.38672-0.32422 0.34766-0.44141 0.84375-0.30078 1.2969l4.7734 15.527c0.35156 1.1484 1.3984 1.9141 2.5977 1.9141 1.1992 0 2.2422-0.77344 2.5977-1.9141l4.7734-15.527c0.14062-0.45703 0.023438-0.94922-0.30078-1.2969-0.33203-0.34375-0.81641-0.5-1.2812-0.38672zm-5.8477 16.434-4.125-13.418c2.7422 0.41016 5.6016 0.41016 8.3438 0.003906z"/>
 <path d="m22.363 42.531c0.25391 0.27344 0.60547 0.42188 0.97266 0.42188 0.097656 0 0.19531-0.007813 0.29297-0.03125 0.46094-0.10156 0.83203-0.44531 0.97656-0.89844 1.1758-3.7422 3.1289-7.1172 5.8047-10.023 0.32031-0.34766 0.42969-0.83984 0.28906-1.293s-0.50781-0.79297-0.97266-0.90234l-15.801-3.6289c-1.1719-0.26172-2.3555 0.25-2.957 1.2852-0.60156 1.043-0.45703 2.3281 0.35938 3.207zm4.6367-10.629c-1.7383 2.1992-3.1328 4.6133-4.1758 7.2031l-9.4922-10.344z"/>
 <path d="m77.637 57.469c-0.32031-0.34766-0.80469-0.49609-1.2656-0.39062-0.46094 0.10156-0.83203 0.44531-0.97656 0.89844-1.1797 3.7461-3.1328 7.1172-5.8086 10.027-0.32031 0.34766-0.42969 0.83984-0.28906 1.293s0.50781 0.79297 0.97266 0.89844l15.805 3.6328c0.20703 0.046875 0.41406 0.070313 0.61719 0.070313 0.95312 0 1.8477-0.50391 2.3438-1.3594 0.60156-1.0391 0.45703-2.3281-0.36328-3.207zm9.0312 13.77-13.672-3.1406c1.7383-2.1992 3.1367-4.6133 4.1758-7.207l9.5273 10.352c0.003906 0-0.011719 0-0.03125-0.003907z"/>
 <path d="m24.602 57.973c-0.14062-0.44922-0.51172-0.78906-0.97656-0.89844-0.46875-0.10547-0.94531 0.042969-1.2656 0.39062l-11.035 11.863c-0.81641 0.87891-0.96094 2.1641-0.35938 3.207 0.49219 0.85547 1.3867 1.3594 2.3438 1.3594 0.20312 0 0.41016-0.023437 0.61719-0.070312l15.805-3.6328c0.46094-0.10547 0.83203-0.44922 0.97266-0.89844s0.03125-0.94531-0.28906-1.293c-2.6797-2.9062-4.6328-6.2812-5.8125-10.027zm-11.328 13.168 9.543-10.262c1.0391 2.5938 2.4336 5.0078 4.1719 7.207z"/>
 <path d="m75.398 42.027c0.14062 0.44922 0.51172 0.78906 0.97656 0.89844 0.097656 0.023438 0.19531 0.03125 0.29297 0.03125 0.36719 0 0.71875-0.14844 0.97266-0.42188l11.031-11.863c0.81641-0.87891 0.96094-2.1641 0.35938-3.207-0.59766-1.0391-1.7773-1.5508-2.957-1.2891l-15.805 3.6328c-0.46094 0.10547-0.83203 0.44922-0.97266 0.89844s-0.03125 0.94531 0.28906 1.293c2.6797 2.9062 4.6328 6.2812 5.8125 10.027zm11.348-13.195s-0.003906 0.007813-0.023438 0.03125l-9.543 10.262c-1.0391-2.5938-2.4375-5.0078-4.1758-7.2109z"/>
 <path d="m50 26.812c-12.785 0-23.188 10.402-23.188 23.188s10.402 23.188 23.188 23.188 23.188-10.402 23.188-23.188-10.402-23.188-23.188-23.188zm0 43.719c-11.32 0-20.531-9.2109-20.531-20.531s9.2109-20.531 20.531-20.531 20.531 9.2109 20.531 20.531-9.2109 20.531-20.531 20.531z"/>
<text x="0.0" y="117.5" font-size="5.0" font-weight="bold" font-family="Arbeit Regular, Helvetica, Arial-Unicode, Arial, Sans-serif" fill="#000000">Created by Rikas Dzihab</text><text x="0.0" y="122.5" font-size="5.0" font-weight="bold" font-family="Arbeit Regular, Helvetica, Arial-Unicode, Arial, Sans-serif" fill="#000000">from Noun Project</text></svg>