<svg xmlns="http://www.w3.org/2000/svg" xmlns:xlink="http://www.w3.org/1999/xlink" version="1.1" x="0px" y="0px" viewBox="0 0 60 75" style="enable-background:new 0 0 60 60;" xml:space="preserve"><path d="M30,18.2358398c-6.4863281,0-11.7636719,5.2773438-11.7636719,11.7641602  c0,6.4863281,5.2773438,11.7636719,11.7636719,11.7636719S41.7636719,36.4863281,41.7636719,30  C41.7636719,23.5131836,36.4863281,18.2358398,30,18.2358398z M30,39.7636719c-5.3837891,0-9.7636719-4.3798828-9.7636719-9.7636719  S24.6162109,20.2358398,30,20.2358398S39.7636719,24.6162109,39.7636719,30S35.3837891,39.7636719,30,39.7636719z"/><path d="M54.1103516,25.8847656l-5.2363281-0.5834961c-0.4638672-1.8676758-1.2050781-3.6508789-2.2119141-5.3178711  l3.296875-4.1225586c0.3183594-0.3979492,0.2861328-0.9711914-0.0742188-1.331543l-4.4140625-4.4140625  c-0.3603516-0.3603516-0.9345703-0.3920898-1.3310547-0.0742188l-4.1230469,3.2963867  c-1.6669922-1.0063477-3.4501953-1.7480469-5.3183594-2.2119141l-0.5830078-5.2363281  C34.0585938,5.3828125,33.6308594,5,33.1210938,5h-6.2431641c-0.5097656,0-0.9375,0.3828125-0.9941406,0.8891602  l-0.5830078,5.2363281c-1.8691406,0.4638672-3.6513672,1.2055664-5.3173828,2.2114258l-4.1230469-3.2958984  c-0.3955078-0.3173828-0.9697266-0.2866211-1.3310547,0.0742188l-4.4140625,4.4140625  c-0.3603516,0.3603516-0.3925781,0.9335938-0.0742188,1.331543l3.2958984,4.1225586  c-1.0058594,1.6660156-1.7470703,3.4492188-2.2109375,5.3178711l-5.2363281,0.5834961C5.3828125,25.940918,5,26.3691406,5,26.878418  v6.2426758c0,0.5092773,0.3828125,0.9375,0.8896484,0.9936523l5.2363281,0.5834961  c0.4638672,1.8686523,1.2050781,3.6518555,2.2109375,5.3178711l-3.2958984,4.1225586  c-0.3183594,0.3979492-0.2861328,0.9711914,0.0742188,1.331543l4.4140625,4.4140625  c0.3603516,0.3603516,0.9345703,0.3920898,1.3310547,0.0742188l4.1230469-3.2958984  c1.6660156,1.0058594,3.4492188,1.7475586,5.3173828,2.2114258l0.5830078,5.2368164  C25.9404297,54.6171875,26.3681641,55,26.8779297,55h6.2431641c0.5097656,0,0.9375-0.3828125,0.9941406-0.8891602  l0.5830078-5.2368164c1.8681641-0.4638672,3.6513672-1.2055664,5.3183594-2.2114258l4.1230469,3.2958984  c0.3945313,0.3168945,0.9697266,0.2871094,1.3310547-0.0742188l4.4140625-4.4140625  c0.3603516-0.3603516,0.3925781-0.9335938,0.0742188-1.331543l-3.296875-4.1225586  c1.0068359-1.6669922,1.7480469-3.4501953,2.2119141-5.3178711l5.2363281-0.5834961  C54.6171875,34.0585938,55,33.6303711,55,33.1210938V26.878418C55,26.3691406,54.6171875,25.940918,54.1103516,25.8847656z   M53,32.2265625l-5.0527344,0.5629883c-0.4296875,0.0478516-0.7802734,0.3662109-0.8681641,0.7895508  c-0.4414063,2.1162109-1.2753906,4.1206055-2.4785156,5.9584961c-0.2363281,0.3618164-0.2138672,0.8344727,0.0556641,1.1723633  l3.1816406,3.9790039l-3.1484375,3.1484375l-3.9794922-3.1806641c-0.3378906-0.2695313-0.8105469-0.2915039-1.171875-0.0556641  c-1.8378906,1.2026367-3.8427734,2.0366211-5.9589844,2.4775391c-0.4228516,0.0883789-0.7421875,0.4384766-0.7900391,0.8681641  L32.2265625,53h-4.4541016l-0.5625-5.0532227c-0.0478516-0.4296875-0.3671875-0.7797852-0.7900391-0.8681641  c-2.1171875-0.4414063-4.1210938-1.2749023-5.9580078-2.4770508c-0.3613281-0.2363281-0.8349609-0.2143555-1.171875,0.0551758  l-3.9794922,3.1806641l-3.1484375-3.1484375l3.1806641-3.9790039c0.2695313-0.3378906,0.2919922-0.8105469,0.0556641-1.1723633  c-1.2021484-1.8364258-2.0361328-3.8408203-2.4775391-5.9584961c-0.0878906-0.4233398-0.4384766-0.7416992-0.8681641-0.7895508  L7,32.2265625v-4.4536133l5.0527344-0.5629883c0.4296875-0.0478516,0.7802734-0.3662109,0.8681641-0.7895508  c0.4414063-2.1176758,1.2753906-4.1220703,2.4775391-5.9584961c0.2363281-0.3618164,0.2138672-0.8344727-0.0556641-1.1723633  l-3.1806641-3.9790039l3.1484375-3.1484375l3.9794922,3.1811523c0.3369141,0.2695313,0.8105469,0.2915039,1.171875,0.0551758  c1.8359375-1.2026367,3.8408203-2.0361328,5.9580078-2.4775391c0.4228516-0.0883789,0.7421875-0.4384766,0.7900391-0.8681641  L27.7724609,7h4.4541016l0.5625,5.0527344c0.0478516,0.4296875,0.3671875,0.7797852,0.7900391,0.8681641  c2.1171875,0.4414063,4.1220703,1.2749023,5.9589844,2.4775391c0.3613281,0.2363281,0.8339844,0.2143555,1.171875-0.0551758  l3.9794922-3.1811523l3.1484375,3.1484375L44.65625,19.2895508c-0.2695313,0.3378906-0.2919922,0.8105469-0.0556641,1.1723633  c1.203125,1.8378906,2.0371094,3.8422852,2.4785156,5.9584961c0.0878906,0.4233398,0.4384766,0.7416992,0.8681641,0.7895508  L53,27.7729492V32.2265625z"/><text x="0" y="75" fill="#000000" font-size="5px" font-weight="bold" font-family="'Helvetica Neue', Helvetica, Arial-Unicode, Arial, Sans-serif">Created by Vectorstall</text><text x="0" y="80" fill="#000000" font-size="5px" font-weight="bold" font-family="'Helvetica Neue', Helvetica, Arial-Unicode, Arial, Sans-serif">from the Noun Project</text></svg>