<svg xmlns="http://www.w3.org/2000/svg" version="1.1" viewBox="-5.0 -10.0 110.0 135.0">
 <path d="m59.707 17.574c-2.918 0-5.293-2.375-5.293-5.293s2.375-5.293 5.293-5.293 5.293 2.375 5.293 5.293-2.375 5.293-5.293 5.293zm0-7.9219c-1.4492 0-2.6328 1.1797-2.6328 2.6328 0 1.4492 1.1797 2.6328 2.6328 2.6328 1.4492 0 2.6328-1.1797 2.6328-2.6328 0-1.4492-1.1797-2.6328-2.6328-2.6328z" fill-rule="evenodd"/>
 <path d="m73.32 17.574c-2.918 0-5.293-2.375-5.293-5.293s2.375-5.293 5.293-5.293c2.918 0 5.293 2.375 5.293 5.293s-2.375 5.293-5.293 5.293zm0-7.9219c-1.4492 0-2.6328 1.1797-2.6328 2.6328 0 1.4492 1.1797 2.6328 2.6328 2.6328 1.4492 0 2.6328-1.1797 2.6328-2.6328 0-1.4492-1.1797-2.6328-2.6328-2.6328z" fill-rule="evenodd"/>
 <path d="m86.934 17.574c-2.918 0-5.293-2.375-5.293-5.293s2.375-5.293 5.293-5.293c2.918 0 5.293 2.375 5.293 5.293s-2.375 5.293-5.293 5.293zm0-7.9219c-1.4492 0-2.6328 1.1797-2.6328 2.6328 0 1.4492 1.1797 2.6328 2.6328 2.6328 1.4492 0 2.6328-1.1797 2.6328-2.6328 0-1.4492-1.1797-2.6328-2.6328-2.6328z" fill-rule="evenodd"/>
 <path d="m48.273 13.613h-25.328c-0.73437 0-1.332-0.59766-1.332-1.332s0.59766-1.332 1.332-1.332h25.332c0.73438 0 1.332 0.59766 1.332 1.332s-0.59766 1.332-1.332 1.332z" fill-rule="evenodd"/>
 <path d="m93.863 81.789h-38.629c-0.48047 0-0.92578-0.26172-1.1602-0.67969-14.438-25.836-18.984-32.562-20.215-33.551-0.09375-0.03125-0.18359-0.070313-0.26953-0.11719-0.90625-0.52344-1.9336-0.79688-2.9727-0.79688-2.1445 0-4.1367 1.1445-5.2031 2.9883l-9.0938 15.746c-0.30078 0.52344-0.91406 0.77344-1.4961 0.62109-0.58203-0.15625-0.98828-0.68359-0.98828-1.2852v-57.848c0-3.3867 2.7539-6.1406 6.1406-6.1406h73.883c3.3867 0 6.1406 2.7539 6.1406 6.1406v68.785c0 3.3867-2.7539 6.1406-6.1367 6.1406zm-37.848-2.6602h37.848c1.918 0 3.4805-1.5586 3.4805-3.4805v-68.785c0-1.918-1.5625-3.4766-3.4805-3.4766h-73.883c-1.918 0-3.4766 1.5586-3.4766 3.4766v52.883l6.6094-11.445c1.5391-2.6641 4.4141-4.3203 7.5078-4.3203 1.4062 0 2.7969 0.34766 4.043 1.0078 1.3359 0.29688 4.125 3.332 21.359 34.137z" fill-rule="evenodd"/>
 <path d="m98.672 23.84h-83.504c-0.73438 0-1.332-0.59766-1.332-1.332 0-0.73437 0.59766-1.332 1.332-1.332h83.504c0.73438 0 1.332 0.59766 1.332 1.332 0 0.73438-0.59766 1.332-1.332 1.332z" fill-rule="evenodd"/>
 <path d="m52.547 99.277h-43.922c-3.1367-0.023438-5.9219-1.6445-7.4609-4.332-1.5547-2.7148-1.5547-5.9414-0.003906-8.6289l21.949-38.016c1.5391-2.6641 4.4141-4.3203 7.5078-4.3203 1.4062 0 2.793 0.34766 4.0352 1.0078 1.3906 0.28906 4.2031 3.3984 23.008 37.082 1.1445 2.0469 1.9844 3.5547 2.3828 4.2422 1.5586 2.6992 1.5547 5.9336-0.011719 8.6484-1.5625 2.7031-4.3594 4.3164-7.4844 4.3164zm-21.934-52.637c-2.1445 0-4.1367 1.1445-5.2031 2.9883l-21.945 38.016c-1.0742 1.8594-1.0703 4.0938 0.007812 5.9766 1.0625 1.8594 2.9922 2.9805 5.1602 2.9961h43.914c2.1602 0 4.0977-1.1172 5.1758-2.9844 1.0859-1.8828 1.0898-4.1211 0.011719-5.9883-0.39844-0.69141-1.25-2.2109-2.4023-4.2773-4.6719-8.3711-18.797-33.676-21.477-35.809-0.09375-0.03125-0.18359-0.070313-0.26953-0.11719-0.90234-0.52344-1.9336-0.79688-2.9727-0.79688z" fill-rule="evenodd"/>
 <path d="m32.734 90.918h-4.2617c-1.332 0-2.418-1.0859-2.418-2.418v-3.9492c0-1.332 1.0859-2.418 2.418-2.418h4.2617c1.332 0 2.418 1.0859 2.418 2.418v3.9492c0 1.332-1.0859 2.418-2.418 2.418zm-4.0195-2.6602h3.7734v-3.4609h-3.7734z" fill-rule="evenodd"/>
 <path d="m30.605 79.582c-3.1016 0-3.3477-2.5898-3.5078-4.3047-0.027344-0.28516-0.054687-0.58203-0.09375-0.88281l-1.7383-14.137c-0.16016-1.3086 0.25781-2.6016 1.1758-3.6406 1.0391-1.1719 2.5938-1.8711 4.1602-1.8711 1.5703 0 3.125 0.69922 4.1641 1.8711 0.91797 1.0391 1.3359 2.332 1.1758 3.6406l-1.7383 14.141c-0.035156 0.30469-0.066406 0.59766-0.09375 0.88281-0.16016 1.7148-0.40625 4.3047-3.5078 4.3047zm0-22.176c-0.80469 0-1.6367 0.375-2.168 0.97266-0.28906 0.32422-0.61328 0.85938-0.52734 1.5508l1.7383 14.141c0.039062 0.32813 0.070312 0.64844 0.10156 0.95703 0.17969 1.8945 0.25781 1.8945 0.85938 1.8945s0.67969 0 0.85938-1.8945c0.03125-0.30859 0.058594-0.62891 0.10156-0.95703l1.7383-14.141c0.085937-0.69141-0.24219-1.2266-0.52734-1.5508-0.53125-0.60156-1.3633-0.97266-2.168-0.97266z" fill-rule="evenodd"/>
 <path d="m68.035 56.91c-4.4727 0-7.9727-5.2422-7.9727-11.934 0-6.6914 3.5039-11.938 7.9727-11.938s7.9727 5.2422 7.9727 11.938c0 6.6914-3.5039 11.934-7.9727 11.934zm0-21.207c-2.8789 0-5.3125 4.2461-5.3125 9.2734 0 5.0273 2.4336 9.2734 5.3125 9.2734s5.3125-4.2461 5.3125-9.2734c0-5.0273-2.4336-9.2734-5.3125-9.2734z" fill-rule="evenodd"/>
 <path d="m54.285 56.91c-0.73438 0-1.332-0.59766-1.332-1.332v-7.5977h-8.8281c-0.51562 0-0.98438-0.29688-1.2031-0.76562-0.21875-0.46484-0.14844-1.0195 0.17969-1.4141l10.156-12.277c0.35938-0.43359 0.94922-0.59375 1.4766-0.40234s0.87891 0.69141 0.87891 1.2539v10.949h2.1289c0.73437 0 1.332 0.59766 1.332 1.332s-0.59766 1.332-1.332 1.332h-2.1289v7.5977c0 0.73437-0.59375 1.332-1.332 1.332zm-7.332-11.59h6v-7.2539z" fill-rule="evenodd"/>
 <path d="m88.484 56.91c-0.73438 0-1.332-0.59766-1.332-1.332v-7.5977h-8.8281c-0.51562 0-0.98438-0.29688-1.2031-0.76562-0.21875-0.46484-0.14844-1.0195 0.17969-1.4141l10.156-12.277c0.35938-0.43359 0.94531-0.59375 1.4766-0.40234 0.52734 0.19141 0.87891 0.69141 0.87891 1.2539v10.949h2.1289c0.73438 0 1.332 0.59766 1.332 1.332s-0.59766 1.332-1.332 1.332h-2.1289v7.5977c0 0.73437-0.59375 1.332-1.332 1.332zm-7.3281-11.59h6v-7.2539z" fill-rule="evenodd"/>
<text x="0.0" y="117.5" font-size="5.0" font-weight="bold" font-family="Arbeit Regular, Helvetica, Arial-Unicode, Arial, Sans-serif" fill="#000000">Created by Muhammad Shabraiz</text><text x="0.0" y="122.5" font-size="5.0" font-weight="bold" font-family="Arbeit Regular, Helvetica, Arial-Unicode, Arial, Sans-serif" fill="#000000">from Noun Project</text></svg>