<svg xmlns="http://www.w3.org/2000/svg" version="1.1" viewBox="-5.0 -10.0 110.0 135.0">
 <g>
  <path d="m6.6992 19.699v60.602h86.5v-60.602zm43.301 53.199-35.898-22.898 35.898-22.898 35.898 22.898z"/>
  <path d="m41.301 45.699c-2 0-4.1016 0.19922-6 0.5-4.3008 19.102 22.699 26.801 29.098 8.3008-6.0977-5.5-14.199-8.8008-23.098-8.8008zm8.5977 6.6016 0.10156-0.39844 0.10156 0.39844h0.39844l-0.30078 0.19922 0.10156 0.39844-0.30078-0.19922-0.30078 0.19922 0.10156-0.39844-0.30078-0.19922zm-12.5 3.1992-0.30078-0.19922-0.30078 0.19922 0.10156-0.39844-0.30078-0.19922 0.40234-0.003906 0.10156-0.39844 0.10156 0.39844h0.39844l-0.30078 0.19922zm0.60156-7.6992-0.39844-0.30078-0.39844 0.30078 0.10156-0.39844-0.30469-0.30078h0.5l0.10156-0.39844 0.10156 0.39844h0.5l-0.39844 0.30078zm1.3984 6.3984-0.39844-0.30078-0.39844 0.30078 0.10156-0.39844-0.39844-0.30078h0.5l0.19531-0.5 0.10156 0.39844h0.5l-0.39844 0.30078zm1.2031-1.1992-0.19922-0.10156-0.10156 0.10156 0.10156-0.19922-0.19922-0.10156h0.19922l0.10156-0.19922 0.10156 0.19922h0.19922l-0.19922 0.10156zm1.2969 4-0.30078-0.19922-0.19922 0.19922 0.10156-0.30078-0.30078-0.19922h0.30078l0.10156-0.30078 0.10156 0.30078h0.29688l-0.30078 0.19922zm0.5-1.3984-0.30078-0.19922-0.30078 0.19922 0.10156-0.39844-0.29688-0.20312h0.39844l0.10156-0.39844 0.10156 0.39844h0.39844l-0.30078 0.19922zm1.9023 3-0.39844-0.30078-0.39844 0.30078 0.10156-0.39844-0.39844-0.30078h0.5l0.10156-0.39844 0.10156 0.39844h0.5l-0.41016 0.29688zm0.19922-7.5-0.30078-0.19922-0.30078 0.19922 0.10156-0.39844-0.30078-0.19922h0.39844l0.10156-0.39844 0.10156 0.39844h0.39844l-0.30078 0.19922zm4.1992 3.0977-0.19922-0.19922-0.30078 0.19922 0.10156-0.30078-0.30078-0.19922h0.30078l0.10156-0.30078 0.10156 0.30078h0.30078l-0.30078 0.19922zm0.30078 0.90234 0.10156-0.19922-0.19922-0.10156h0.19922l0.10156-0.19922 0.10156 0.19922h0.19922l-0.19922 0.10156 0.10156 0.19922-0.20703-0.10156zm1.1016 6.8984h-0.19922v-0.19922l-0.10156-0.10156h0.19922v-0.19922 0.19922h0.19922l-0.10156 0.10156zm0.29688-4.6992-0.39844-0.19922-0.39844 0.30078 0.10156-0.39844-0.39844-0.30078h0.5l0.10156-0.39844 0.10156 0.39844h0.5l-0.40625 0.29688zm1.5-3.4023 0.10156 0.39844-0.30078-0.29688-0.30078 0.19922 0.10156-0.39844-0.30078-0.19922h0.39844l0.10156-0.39844 0.10156 0.39844h0.39844zm1.7031 5-0.30078-0.19922-0.30078 0.19922 0.10156-0.30078-0.30078-0.19922h0.30078l0.10156-0.30078 0.10156 0.30078h0.30078l-0.30078 0.19922zm0.097657-9.7969h0.30078l0.10156-0.30078 0.10156 0.30078h0.30078l-0.30078 0.19922 0.10156 0.30078-0.30469-0.20312-0.30078 0.19922 0.10156-0.30078zm1 11.199 0.10156 0.39844-0.30078-0.19922-0.30078 0.19922 0.10156-0.39844-0.30078-0.30078h0.39844l0.10156-0.39844 0.10156 0.39844h0.39844zm1.4023-1.1016-0.30078-0.19922-0.30078 0.19922 0.10156-0.30078-0.30078-0.19922h0.30078l0.10156-0.30078 0.10156 0.30078h0.30078l-0.10547 0.19922zm1.2969-1 0.10156-0.30078 0.10156 0.30078h0.30078l-0.30078 0.19922 0.10156 0.30078-0.30078-0.19922-0.30078 0.19922 0.10156-0.30078-0.30078-0.19922zm0.30078 3.1992 0.10156 0.30078-0.30078-0.19922-0.30078 0.19922 0.10156-0.30078-0.30078-0.19922h0.30078l0.10156-0.30078 0.10156 0.30078h0.49609zm0.10156-1.5 0.10156 0.39844-0.30078-0.29688-0.30078 0.19922 0.10156-0.39844-0.30078-0.19922h0.39844l0.10156-0.39844 0.10156 0.39844h0.39844zm1.5-0.89844-0.30078-0.19922-0.19922 0.19922 0.10156-0.30078-0.30078-0.19922h0.39844l0.10156-0.30078 0.10156 0.30078h0.30078l-0.30078 0.19922zm1.1992-3.8984 0.10156-0.39844 0.10156 0.39844h0.5l-0.39844 0.30078 0.10156 0.39844-0.39844-0.30078-0.39844 0.30078 0.10156-0.39844-0.21094-0.30078zm0.10156 3.1992-0.30078-0.19922-0.30078 0.19922 0.10156-0.39844-0.30078-0.19922h0.39844l0.10156-0.39844 0.10156 0.39844h0.39844l-0.30078 0.19922zm0.89844-1.1992-0.30078-0.19922-0.30078 0.19922 0.10156-0.39844-0.30078-0.19922h0.39844l0.10156-0.39844 0.10156 0.39844h0.39844l-0.30078 0.19922zm1.3984-1.6016 0.10156 0.30078-0.30078-0.19922-0.30078 0.19922 0.10156-0.30078-0.30078-0.19922h0.30078l0.10156-0.30078 0.10156 0.30078h0.29688z"/>
  <path d="m50 34.898c-5.8984-0.10156-11.5 3.6016-13.898 9 10.398-1.6016 21.301 1.8008 28.801 8.1992 1.3984-8.9961-5.8008-17.297-14.902-17.199zm5.1016 10.902-0.39844-0.30078-0.39844 0.30078 0.10156-0.39844-0.40625-0.30078h0.5l0.10156-0.39844 0.10156 0.39844h0.5l-0.39844 0.30078z"/>
 </g>
<text x="0.0" y="117.5" font-size="5.0" font-weight="bold" font-family="Arbeit Regular, Helvetica, Arial-Unicode, Arial, Sans-serif" fill="#000000">Created by Mulham</text><text x="0.0" y="122.5" font-size="5.0" font-weight="bold" font-family="Arbeit Regular, Helvetica, Arial-Unicode, Arial, Sans-serif" fill="#000000">from Noun Project</text></svg>