<svg xmlns="http://www.w3.org/2000/svg" data-name="Layer 1" viewBox="0 0 100 125" x="0px" y="0px"><title>Artboard 16</title><path d="M94.11,50,98.46,36.3a6.08,6.08,0,0,0-3.94-7.62l-8-2.54L81.68,10.88h0a6.07,6.07,0,0,0-7.62-3.94l-24,7.62L25.94,6.89a6.07,6.07,0,0,0-7.62,3.94L13.43,26.2,5.48,28.73a6.07,6.07,0,0,0-3.94,7.62L5.87,50,1.53,63.65a6.07,6.07,0,0,0,3.94,7.62l8,2.53,4.88,15.37A6.08,6.08,0,0,0,24.1,93.4a6.09,6.09,0,0,0,1.85-.29l24.13-7.67,24,7.62a6.07,6.07,0,0,0,7.62-3.95l4.85-15.26,8-2.54a6.07,6.07,0,0,0,3.94-7.62ZM93,33.44a1.07,1.07,0,0,1,.7,1.34l-2.21,6.95L88.39,32ZM23.08,12.35a1.07,1.07,0,0,1,1.34-.69l17.4,5.53L19.27,24.35ZM7,66.5a1.07,1.07,0,0,1-.69-1.34l2.2-6.92L11.59,68ZM76.91,87.6a1.07,1.07,0,0,1-1.34.69L58.33,82.82l22.36-7.11Zm-52.48.74a1.07,1.07,0,0,1-1.34-.69L6.3,34.83A1.07,1.07,0,0,1,7,33.49L75.57,11.7a1.07,1.07,0,0,1,1.34.69L93.7,65.21A1.07,1.07,0,0,1,93,66.55Zm32-38.76a2.49,2.49,0,0,1-2.73,1.3l-11.54-2.4L30.79,67.58A2.5,2.5,0,0,1,26.5,65l12.3-20.63a2.49,2.49,0,0,1,2.66-1.17L52.88,45.6l8.58-16.52-2.57.81a2.5,2.5,0,0,1-1.51-4.77l8.32-2.63a2.5,2.5,0,0,1,3.14,1.63l2.64,8.32A2.5,2.5,0,1,1,66.71,34l-.81-2.57Zm19.71,12.1a2.5,2.5,0,1,1-4.77,1.5l-5.68-18a2.5,2.5,0,0,1,4.77-1.51Zm-12,3.79A2.5,2.5,0,1,1,59.43,67l-2.89-9.19a2.5,2.5,0,1,1,4.77-1.5Zm-12,3.78a2.5,2.5,0,1,1-4.77,1.5l-3.77-12a2.5,2.5,0,1,1,4.77-1.5ZM40.3,73.05a2.5,2.5,0,1,1-4.78,1.48l-.74-2.4a2.5,2.5,0,0,1,4.78-1.48Z"/><text x="0" y="115" fill="#000000" font-size="5px" font-weight="bold" font-family="'Helvetica Neue', Helvetica, Arial-Unicode, Arial, Sans-serif">Created by Gregor Cresnar</text><text x="0" y="120" fill="#000000" font-size="5px" font-weight="bold" font-family="'Helvetica Neue', Helvetica, Arial-Unicode, Arial, Sans-serif">from the Noun Project</text></svg>