<svg xmlns="http://www.w3.org/2000/svg" version="1.1" viewBox="-5.0 -10.0 110.0 135.0">
 <g>
  <path d="m60.75 45.734 9.8281-7.1406c1.0938-0.79688 1.5312-2.1406 1.1094-3.4375s-1.5625-2.125-2.9219-2.125l-12.094 0.03125-3.75-11.547c-0.42188-1.2969-1.5625-2.125-2.9219-2.125s-2.5 0.82812-2.9219 2.125l-3.7031 11.516h-12.141c-1.3594 0-2.5 0.82812-2.9219 2.125s0.015625 2.6406 1.1094 3.4375l9.8125 7.0781-3.75 11.547c-0.42188 1.2812 0.015625 2.6406 1.1094 3.4375 0.54688 0.39062 1.1719 0.59375 1.7969 0.59375s1.25-0.20312 1.8125-0.59375l9.7656-7.1406 9.8281 7.1406c1.0938 0.79688 2.5156 0.79688 3.6094 0s1.5312-2.1406 1.1094-3.4375zm-8.9531 5.25c-1.0781-0.78125-2.5312-0.78125-3.6094 0l-9.75 7.2031 3.75-11.547c0.40625-1.2656-0.03125-2.6562-1.1094-3.4375l-9.8594-7.0469h12.141c1.3281 0 2.5156-0.85938 2.9219-2.125l3.6406-11.562v0.015625l3.75 11.547c0.40625 1.2656 1.5938 2.125 2.9219 2.125l12.109-0.09375-9.8281 7.1406c-1.0781 0.78125-1.5312 2.1719-1.1094 3.4375l3.8438 11.484z"/>
  <path d="m89.047 83.328-12.109-19.688c3.7188-4.2812 6.375-9.4062 7.7188-15.078 2.2031-9.2656 0.67188-18.828-4.3125-26.938s-12.828-13.781-22.094-15.984-18.828-0.67188-26.938 4.3125c-16.719 10.328-21.953 32.312-11.656 49.047 1.0156 1.6562 2.1875 3.1875 3.4219 4.625l-12.125 19.703c-0.3125 0.51562-0.3125 1.1562 0.015625 1.6719 0.32812 0.5 0.90625 0.76562 1.5156 0.70312l10.422-1.3438 3.5 9.9062c0.20312 0.5625 0.70312 0.96875 1.3125 1.0312 0.0625 0 0.10938 0.015625 0.17188 0.015625 0.53125 0 1.0469-0.28125 1.3281-0.75l12.125-19.703c0.14062 0.03125 0.28125 0.09375 0.42188 0.125 2.7656 0.65625 5.5469 0.98438 8.3281 0.98438 2.9062 0 5.7969-0.375 8.6094-1.0938l12.109 19.688c0.28125 0.46875 0.79688 0.75 1.3281 0.75 0.0625 0 0.10938 0 0.17188-0.015625 0.59375-0.0625 1.1094-0.46875 1.3125-1.0312l3.5-9.9062 10.422 1.3438c0.59375 0.0625 1.1875-0.20312 1.5156-0.70312 0.29688-0.5 0.29688-1.1562-0.015625-1.6719zm-60.781 6.8125-2.8281-8.0156c-0.25-0.70312-0.9375-1.1094-1.6719-1.0312l-8.4375 1.0938 9.9688-16.203c3.6719 3.5469 8.0469 6.2812 12.922 7.9844zm14.203-18.188c-8.4531-2.0156-15.609-7.1875-20.156-14.594-9.3906-15.266-4.6094-35.328 10.656-44.719 5.1875-3.2031 11.031-4.8281 16.969-4.8281 2.5312 0 5.0781 0.29688 7.5938 0.89062 8.4531 2.0156 15.609 7.1875 20.156 14.594 4.5469 7.3906 5.9531 16.125 3.9375 24.562s-7.1875 15.609-14.594 20.156c-7.3906 4.5469-16.109 5.9531-24.562 3.9375zm33.766 9.1406c-0.73438-0.09375-1.4375 0.32812-1.6719 1.0312l-2.8281 8.0156-9.9531-16.188c2.375-0.84375 4.6875-1.9375 6.8906-3.2812 2.2031-1.3594 4.2031-2.9375 6.0312-4.6875l9.9688 16.203z"/>
 </g>
<text x="0.0" y="117.5" font-size="5.0" font-weight="bold" font-family="Arbeit Regular, Helvetica, Arial-Unicode, Arial, Sans-serif" fill="#000000">Created by Femita Nabilla</text><text x="0.0" y="122.5" font-size="5.0" font-weight="bold" font-family="Arbeit Regular, Helvetica, Arial-Unicode, Arial, Sans-serif" fill="#000000">from Noun Project</text></svg>