<svg xmlns:dc="http://purl.org/dc/elements/1.1/" xmlns:cc="http://creativecommons.org/ns#" xmlns:rdf="http://www.w3.org/1999/02/22-rdf-syntax-ns#" xmlns:svg="http://www.w3.org/2000/svg" xmlns="http://www.w3.org/2000/svg" xmlns:sodipodi="http://sodipodi.sourceforge.net/DTD/sodipodi-0.dtd" xmlns:inkscape="http://www.inkscape.org/namespaces/inkscape" version="1.1" x="0px" y="0px" viewBox="0 0 100 125"><g transform="translate(0,-952.36218)"><path style="text-indent:0;text-transform:none;direction:ltr;block-progression:tb;baseline-shift:baseline;color:#000000;enable-background:accumulate;" d="m 50,971.36225 c -17.09713,0 -31,13.9028 -31,30.99995 0,16.783 13.39861,30.4705 30.0625,30.9689 0.30378,0.031 0.62591,0.031 0.9375,0.031 0.31159,0 0.63372,-4e-4 0.9375,-0.031 C 67.6014,1032.8327 81,1019.1452 81,1002.3622 81,985.26505 67.09714,971.36225 50,971.36225 z m -2,4.4375 0,9.5625 -7.1875,0 c 0.34571,-0.9301 0.69907,-1.8387 1.09375,-2.6562 1.79614,-3.7206 3.95401,-6.0142 6.09375,-6.9063 z m 4,0 c 2.13974,0.8921 4.29761,3.1857 6.09375,6.9063 0.39468,0.8175 0.74804,1.7261 1.09375,2.6562 l -7.1875,0 0,-9.5625 z m -11.34375,1.25 c -0.85897,1.1883 -1.64937,2.4991 -2.34375,3.9375 -0.65014,1.3467 -1.23389,2.8254 -1.75,4.375 l -7.53125,0 c 3.02512,-3.7232 7.03673,-6.6224 11.625,-8.3125 z m 18.6875,0 c 4.58827,1.6901 8.59989,4.5893 11.625,8.3125 l -7.53125,0 c -0.51611,-1.5496 -1.09986,-3.0283 -1.75,-4.375 -0.69438,-1.4384 -1.48478,-2.7492 -2.34375,-3.9375 z m -33.03125,12.3125 9.125,0 c -0.79143,3.3882 -1.28185,7.089 -1.40625,10.99995 l -10.96875,0 c 0.29133,-3.96295 1.43719,-7.69965 3.25,-10.99995 z m 13.25,0 8.4375,0 0,10.99995 -9.96875,0 c 0.1387,-3.96535 0.6912,-7.69535 1.53125,-10.99995 z m 12.4375,0 8.4375,0 c 0.84005,3.3046 1.39255,7.0346 1.53125,10.99995 l -9.96875,0 0,-10.99995 z m 12.5625,0 9.125,0 c 1.81281,3.3003 2.95867,7.037 3.25,10.99995 l -10.96875,0 c -0.1244,-3.91095 -0.61482,-7.61175 -1.40625,-10.99995 z m -41.5,14.99995 10.96875,0 c 0.12422,3.9054 0.61685,7.6158 1.40625,11 l -9.125,0 c -1.81,-3.303 -2.96306,-7.0349 -3.25,-11 z m 14.96875,0 9.96875,0 0,11 -8.4375,0 c -0.84105,-3.302 -1.39383,-7.0305 -1.53125,-11 z m 13.96875,0 9.96875,0 c -0.13742,3.9695 -0.6902,7.698 -1.53125,11 l -8.4375,0 0,-11 z m 13.96875,0 10.96875,0 c -0.28694,3.9651 -1.44,7.697 -3.25,11 l -9.125,0 c 0.7894,-3.3842 1.28203,-7.0946 1.40625,-11 z M 29,1019.3623 l 7.5625,0 c 0.51823,1.5594 1.09618,3.0207 1.75,4.375 0.69779,1.4454 1.51102,2.7761 2.375,3.9688 -4.61376,-1.6939 -8.65314,-4.5967 -11.6875,-8.3438 z m 11.8125,0 7.1875,0 0,9.5938 c -2.13974,-0.9008 -4.29761,-3.2482 -6.09375,-6.9688 -0.39468,-0.8175 -0.74804,-1.6963 -1.09375,-2.625 z m 11.1875,0 7.1875,0 c -0.34571,0.9287 -0.69907,1.8075 -1.09375,2.625 -1.79614,3.7206 -3.95401,6.068 -6.09375,6.9688 l 0,-9.5938 z m 11.4375,0 7.5625,0 c -3.03436,3.7471 -7.07374,6.6499 -11.6875,8.3438 0.86398,-1.1927 1.67721,-2.5234 2.375,-3.9688 0.65382,-1.3543 1.23177,-2.8156 1.75,-4.375 z" fill="#000000" fill-opacity="1" stroke="none" marker="none" visibility="visible" display="inline" overflow="visible"/></g><text x="0" y="115" fill="#000000" font-size="5px" font-weight="bold" font-family="'Helvetica Neue', Helvetica, Arial-Unicode, Arial, Sans-serif">Created by Aya Sofya</text><text x="0" y="120" fill="#000000" font-size="5px" font-weight="bold" font-family="'Helvetica Neue', Helvetica, Arial-Unicode, Arial, Sans-serif">from the Noun Project</text></svg>