<svg xmlns="http://www.w3.org/2000/svg" version="1.1" viewBox="-5.0 -10.0 110.0 135.0">
 <path d="m38.117 76.93c-1.0781 0-1.9531-0.875-1.9531-1.9531 0-1.0781 0.875-1.9531 1.9531-1.9531h20.242c1.0781 0 1.9531 0.875 1.9531 1.9531 0 1.0781-0.875 1.9531-1.9531 1.9531z" fill-rule="evenodd"/>
 <path d="m38.117 60.266c-1.0781 0-1.9531-0.875-1.9531-1.9531s0.875-1.9531 1.9531-1.9531h33.734c1.0781 0 1.9531 0.875 1.9531 1.9531s-0.875 1.9531-1.9531 1.9531z" fill-rule="evenodd"/>
 <path d="m38.117 43.605c-1.0781 0-1.9531-0.875-1.9531-1.9531s0.875-1.9531 1.9531-1.9531h44.484c1.0781 0 1.9531 0.875 1.9531 1.9531s-0.875 1.9531-1.9531 1.9531z" fill-rule="evenodd"/>
 <path d="m38.117 26.945c-1.0781 0-1.9531-0.875-1.9531-1.9531 0-1.0781 0.875-1.9531 1.9531-1.9531h55.605c1.0781 0 1.9531 0.875 1.9531 1.9531 0 1.0781-0.875 1.9531-1.9531 1.9531z" fill-rule="evenodd"/>
 <path d="m15.312 58.68v-39.125c0-1.0781 0.875-1.9531 1.9531-1.9531s1.9531 0.875 1.9531 1.9531v39.125z" fill-rule="evenodd"/>
 <path d="m15.66 81.531-11.016-15.879c-0.41406-0.59766-0.46094-1.375-0.125-2.0195 0.33594-0.64453 1.0039-1.0469 1.7305-1.0469h22.031c0.72656 0 1.3945 0.40234 1.7305 1.0469 0.33594 0.64453 0.28906 1.4219-0.125 2.0195l-11.016 15.879c-0.36328 0.52734-0.96484 0.83984-1.6055 0.83984s-1.2383-0.3125-1.6055-0.83984z" fill-rule="evenodd"/>
<text x="0.0" y="117.5" font-size="5.0" font-weight="bold" font-family="Arbeit Regular, Helvetica, Arial-Unicode, Arial, Sans-serif" fill="#000000">by Muhammad Nur Auliady Pamungkas</text><text x="0.0" y="122.5" font-size="5.0" font-weight="bold" font-family="Arbeit Regular, Helvetica, Arial-Unicode, Arial, Sans-serif" fill="#000000">from Noun Project</text></svg>