<svg xmlns="http://www.w3.org/2000/svg" version="1.1" viewBox="-5.0 -10.0 110.0 135.0">
 <path d="m50 75c-13.785 0-25-11.215-25-25s11.215-25 25-25 25 11.215 25 25-11.215 25-25 25zm0-43.75c-10.34 0-18.75 8.4102-18.75 18.75s8.4102 18.75 18.75 18.75 18.75-8.4102 18.75-18.75-8.4102-18.75-18.75-18.75zm3.125-15.625v-6.25c0-1.7266-1.3984-3.125-3.125-3.125s-3.125 1.3984-3.125 3.125v6.25c0 1.7266 1.3984 3.125 3.125 3.125s3.125-1.3984 3.125-3.125zm0 75v-6.25c0-1.7266-1.3984-3.125-3.125-3.125s-3.125 1.3984-3.125 3.125v6.25c0 1.7266 1.3984 3.125 3.125 3.125s3.125-1.3984 3.125-3.125zm40.625-40.625c0-1.7266-1.3984-3.125-3.125-3.125h-6.25c-1.7266 0-3.125 1.3984-3.125 3.125s1.3984 3.125 3.125 3.125h6.25c1.7266 0 3.125-1.3984 3.125-3.125zm-75 0c0-1.7266-1.3984-3.125-3.125-3.125h-6.25c-1.7266 0-3.125 1.3984-3.125 3.125s1.3984 3.125 3.125 3.125h6.25c1.7266 0 3.125-1.3984 3.125-3.125zm57.766-22.098 4.418-4.418c1.2227-1.2227 1.2227-3.1953 0-4.418s-3.1953-1.2227-4.418 0l-4.418 4.418c-1.2227 1.2227-1.2227 3.1953 0 4.418 0.60938 0.60938 1.4102 0.91406 2.2109 0.91406 0.80078 0 1.6016-0.30469 2.2109-0.91406zm-53.031 53.031 4.418-4.418c1.2227-1.2227 1.2227-3.1953 0-4.418s-3.1953-1.2227-4.418 0l-4.418 4.418c-1.2227 1.2227-1.2227 3.1953 0 4.418 0.60938 0.60938 1.4102 0.91406 2.2109 0.91406 0.80078 0 1.6016-0.30469 2.2109-0.91406zm57.453 0c1.2227-1.2227 1.2227-3.1953 0-4.418l-4.418-4.418c-1.2227-1.2227-3.1953-1.2227-4.418 0-1.2227 1.2227-1.2227 3.1953 0 4.418l4.418 4.418c0.60938 0.60938 1.4102 0.91406 2.2109 0.91406s1.6016-0.30469 2.2109-0.91406zm-53.035-53.031c1.2227-1.2227 1.2227-3.1953 0-4.418l-4.418-4.418c-1.2227-1.2227-3.1953-1.2227-4.418 0s-1.2227 3.1953 0 4.418l4.418 4.418c0.60938 0.60938 1.4102 0.91406 2.2109 0.91406 0.80078 0 1.6016-0.30469 2.2109-0.91406z"/>
<text x="0.0" y="117.5" font-size="5.0" font-weight="bold" font-family="Arbeit Regular, Helvetica, Arial-Unicode, Arial, Sans-serif" fill="#000000">Created by Corner Pixel</text><text x="0.0" y="122.5" font-size="5.0" font-weight="bold" font-family="Arbeit Regular, Helvetica, Arial-Unicode, Arial, Sans-serif" fill="#000000">from Noun Project</text></svg>