<svg xmlns="http://www.w3.org/2000/svg" version="1.1" viewBox="-5.0 -10.0 110.0 135.0">
 <path d="m5.3008 27.5v44.898h89.398v-44.898zm88.898 15.102v3h-39.801v-17.602h3v13.301l26.602-13.301h3.3008l-29.102 14.602h13.199l22.801-11.398v1.6992l-19.398 9.6992zm0 24.5v1.6992l-22.801-11.402h-13.199l29.102 14.602h-3.3008l-26.602-13.301v13.301h-3v-17.602h39.699v3h-19.297zm-78.199 4.8984h-3.3008l29.102-14.602h-13.199l-22.801 11.402v-1.6992l19.398-9.6992-19.398-0.003906v-3h39.699v17.602h-3v-13.301zm-10.199-39.102v-1.6992l22.801 11.398h13.199l-29.102-14.598h3.3008l26.602 13.301v-13.301h3v17.5h-39.801v-3h19.398z"/>
<text x="0.0" y="117.5" font-size="5.0" font-weight="bold" font-family="Arbeit Regular, Helvetica, Arial-Unicode, Arial, Sans-serif" fill="#000000">Created by Mulham</text><text x="0.0" y="122.5" font-size="5.0" font-weight="bold" font-family="Arbeit Regular, Helvetica, Arial-Unicode, Arial, Sans-serif" fill="#000000">from Noun Project</text></svg>