<svg xmlns="http://www.w3.org/2000/svg" version="1.1" viewBox="-5.0 -10.0 110.0 135.0">
 <g>
  <path d="m50 12.5c-4.4336 0-8.8047 1.0273-12.77 3.0117l-15.688 7.8438c-2.9883 1.4922-4.875 4.5547-4.875 7.8945 0 24.727 8.3359 42.148 28.359 54.832 1.5078 0.95703 3.2461 1.418 4.9727 1.418s3.4648-0.46094 4.9727-1.418c20.023-12.684 28.359-30.105 28.359-54.832 0-3.3398-1.8867-6.4023-4.875-7.8945l-15.688-7.8438c-3.9648-1.9844-8.3359-3.0117-12.77-3.0117zm0 4.168c3.7852 0 7.5195 0.87891 10.906 2.5703l15.688 7.8438c1.582 0.79297 2.5742 2.3984 2.5742 4.168 0 23.828-7.3828 39.246-26.426 51.309-0.4375 0.27734-2.168 0.77344-2.7422 0.77344s-2.3047-0.49609-2.7422-0.77344c-19.043-12.062-26.426-27.48-26.426-51.309 0-1.7695 0.99219-3.375 2.5742-4.168l15.688-7.8438c3.3867-1.6953 7.1211-2.5703 10.906-2.5703z"/>
  <path d="m63.109 38.109-15.191 15.195-6.8633-6.8594c-0.8125-0.81641-2.1289-0.81641-2.9453 0-0.8125 0.8125-0.8125 2.1289 0 2.9453l8.332 8.332h0.003906c0.8125 0.8125 2.1289 0.8125 2.9453 0l16.668-16.668h-0.003906c0.81641-0.8125 0.81641-2.1289 0-2.9453-0.8125-0.8125-2.1289-0.8125-2.9453 0z"/>
 </g>
<text x="0.0" y="117.5" font-size="5.0" font-weight="bold" font-family="Arbeit Regular, Helvetica, Arial-Unicode, Arial, Sans-serif" fill="#000000">Created by Ian Banyuke</text><text x="0.0" y="122.5" font-size="5.0" font-weight="bold" font-family="Arbeit Regular, Helvetica, Arial-Unicode, Arial, Sans-serif" fill="#000000">from Noun Project</text></svg>