<svg xmlns="http://www.w3.org/2000/svg" version="1.1" viewBox="-5.0 -10.0 110.0 135.0">
 <path d="m28.984 20.375c-0.078125-0.27344-0.007813-0.57031 0.19531-0.77344 0.20312-0.20312 0.5-0.28125 0.77344-0.20312l12.305 3.5156 7.0625-12.367c0.28125-0.48438 1.0781-0.48438 1.3594 0l7.0625 12.367 12.305-3.5156c0.27344-0.078126 0.57031 0 0.77344 0.20312 0.20313 0.20313 0.27344 0.5 0.19531 0.77344l-5.5312 18.422c-0.10156 0.32812-0.40625 0.55469-0.75 0.55469h-29.477c-0.34375 0-0.64844-0.22656-0.75-0.55469zm58.516 65.562h-3.9062v-25.773c0-1.7266-1.4062-3.1328-3.1328-3.1328h-14.836c-0.42969 0-0.78125 0.35156-0.78125 0.78125v28.125h-4.6875v-35.148c0-1.7266-1.4062-3.1328-3.1328-3.1328h-14.047c-1.7266 0-3.1328 1.4062-3.1328 3.1328v35.148h-4.6875v-18.75c0-0.42969-0.35156-0.78125-0.78125-0.78125h-14.836c-1.7266 0-3.1328 1.4062-3.1328 3.1328v16.398h-3.9062c-1.7266 0-3.125 1.3984-3.125 3.125s1.3984 3.125 3.125 3.125h75c1.7266 0 3.125-1.3984 3.125-3.125s-1.3984-3.125-3.125-3.125z"/>
<text x="0.0" y="117.5" font-size="5.0" font-weight="bold" font-family="Arbeit Regular, Helvetica, Arial-Unicode, Arial, Sans-serif" fill="#000000">Created by Anamika singh</text><text x="0.0" y="122.5" font-size="5.0" font-weight="bold" font-family="Arbeit Regular, Helvetica, Arial-Unicode, Arial, Sans-serif" fill="#000000">from Noun Project</text></svg>