<?xml version="1.0" encoding="UTF-8"?>
<svg id="Layer_1" xmlns="http://www.w3.org/2000/svg" version="1.1" viewBox="0 0 72 72">
  <!-- Generator: Adobe Illustrator 29.7.1, SVG Export Plug-In . SVG Version: 2.1.1 Build 8)  -->
  <defs>
    <style>
      .st0 {
        fill-rule: evenodd;
      }
    </style>
  </defs>
  <path class="st0" d="M42.99,12.65c-2.1,0-3.81-1.71-3.81-3.81s1.71-3.81,3.81-3.81,3.81,1.71,3.81,3.81-1.71,3.81-3.81,3.81ZM42.99,6.95c-1.04,0-1.9.85-1.9,1.9s.85,1.9,1.9,1.9,1.9-.85,1.9-1.9-.85-1.9-1.9-1.9Z"/>
  <path class="st0" d="M52.79,12.65c-2.1,0-3.81-1.71-3.81-3.81s1.71-3.81,3.81-3.81,3.81,1.71,3.81,3.81-1.71,3.81-3.81,3.81ZM52.79,6.95c-1.04,0-1.9.85-1.9,1.9s.85,1.9,1.9,1.9,1.9-.85,1.9-1.9-.85-1.9-1.9-1.9Z"/>
  <path class="st0" d="M62.59,12.65c-2.1,0-3.81-1.71-3.81-3.81s1.71-3.81,3.81-3.81,3.81,1.71,3.81,3.81-1.71,3.81-3.81,3.81ZM62.59,6.95c-1.04,0-1.9.85-1.9,1.9s.85,1.9,1.9,1.9,1.9-.85,1.9-1.9-.85-1.9-1.9-1.9Z"/>
  <path class="st0" d="M34.76,9.8h-18.23c-.53,0-.96-.43-.96-.96s.43-.96.96-.96h18.24c.53,0,.96.43.96.96s-.43.96-.96.96h0Z"/>
  <path class="st0" d="M67.58,58.89h-27.81c-.35,0-.67-.19-.84-.49-10.39-18.6-13.67-23.44-14.55-24.16-.07-.02-.13-.05-.19-.08-.65-.38-1.39-.57-2.14-.57-1.54,0-2.98.82-3.75,2.15l-6.55,11.34c-.22.38-.66.56-1.08.45-.42-.11-.71-.49-.71-.93V4.94c0-2.44,1.98-4.42,4.42-4.42h53.19c2.44,0,4.42,1.98,4.42,4.42v49.52c0,2.44-1.98,4.42-4.42,4.42h0ZM40.33,56.97h27.25c1.38,0,2.51-1.12,2.51-2.51V4.94c0-1.38-1.12-2.5-2.51-2.5H14.39c-1.38,0-2.5,1.12-2.5,2.5v38.07l4.76-8.24c1.11-1.92,3.18-3.11,5.41-3.11,1.01,0,2.01.25,2.91.73.96.21,2.97,2.4,15.38,24.58h0Z"/>
  <path class="st0" d="M71.04,17.16H10.92c-.53,0-.96-.43-.96-.96s.43-.96.96-.96h60.12c.53,0,.96.43.96.96s-.43.96-.96.96Z"/>
  <path class="st0" d="M37.83,71.48H6.21c-2.26-.02-4.26-1.18-5.37-3.12-1.12-1.95-1.12-4.28,0-6.21l15.8-27.37c1.11-1.92,3.18-3.11,5.41-3.11,1.01,0,2.01.25,2.91.73,1,.21,3.03,2.45,16.56,26.7.82,1.47,1.43,2.56,1.72,3.05,1.12,1.94,1.12,4.27,0,6.23-1.12,1.95-3.14,3.11-5.39,3.11h0ZM22.04,33.58c-1.54,0-2.98.82-3.75,2.15L2.5,63.1c-.77,1.34-.77,2.95,0,4.3.76,1.34,2.15,2.15,3.72,2.16h31.62c1.56,0,2.95-.8,3.73-2.15.78-1.36.78-2.97,0-4.31-.29-.5-.9-1.59-1.73-3.08-3.36-6.03-13.53-24.25-15.46-25.78-.07-.02-.13-.05-.19-.08-.65-.38-1.39-.57-2.14-.57h0Z"/>
  <path class="st0" d="M23.57,65.46h-3.07c-.96,0-1.74-.78-1.74-1.74v-2.84c0-.96.78-1.74,1.74-1.74h3.07c.96,0,1.74.78,1.74,1.74v2.84c0,.96-.78,1.74-1.74,1.74ZM20.67,63.54h2.72v-2.49h-2.72v2.49Z"/>
  <path class="st0" d="M22.04,57.3c-2.23,0-2.41-1.86-2.53-3.1-.02-.21-.04-.42-.07-.64l-1.25-10.18c-.12-.94.19-1.87.85-2.62.75-.84,1.87-1.35,3-1.35s2.25.5,3,1.35c.66.75.96,1.68.85,2.62l-1.25,10.18c-.03.22-.05.43-.07.64-.12,1.23-.29,3.1-2.53,3.1h0ZM22.04,41.33c-.58,0-1.18.27-1.56.7-.21.23-.44.62-.38,1.12l1.25,10.18c.03.24.05.47.07.69.13,1.36.19,1.36.62,1.36s.49,0,.62-1.36c.02-.22.04-.45.07-.69l1.25-10.18c.06-.5-.17-.88-.38-1.12-.38-.43-.98-.7-1.56-.7h0Z"/>
  <path class="st0" d="M48.98,40.97c-3.22,0-5.74-3.77-5.74-8.59s2.52-8.59,5.74-8.59,5.74,3.77,5.74,8.59-2.52,8.59-5.74,8.59ZM48.98,25.71c-2.07,0-3.82,3.06-3.82,6.68s1.75,6.68,3.82,6.68,3.82-3.06,3.82-6.68-1.75-6.68-3.82-6.68Z"/>
  <path class="st0" d="M39.08,40.97c-.53,0-.96-.43-.96-.96v-5.47h-6.36c-.37,0-.71-.21-.87-.55-.16-.33-.11-.73.13-1.02l7.31-8.84c.26-.31.68-.43,1.06-.29s.63.5.63.9v7.88h1.53c.53,0,.96.43.96.96s-.43.96-.96.96h-1.53v5.47c0,.53-.43.96-.96.96h0ZM33.81,32.63h4.32v-5.22l-4.32,5.22Z"/>
  <path class="st0" d="M63.71,40.97c-.53,0-.96-.43-.96-.96v-5.47h-6.36c-.37,0-.71-.21-.87-.55-.16-.33-.11-.73.13-1.02l7.31-8.84c.26-.31.68-.43,1.06-.29.38.14.63.5.63.9v7.88h1.53c.53,0,.96.43.96.96s-.43.96-.96.96h-1.53v5.47c0,.53-.43.96-.96.96h0ZM58.43,32.63h4.32v-5.22l-4.32,5.22Z"/>
</svg>