<?xml version="1.0" encoding="UTF-8"?>
<svg id="Layer_1" xmlns="http://www.w3.org/2000/svg" version="1.1" viewBox="0 0 72 72">
  <!-- Generator: Adobe Illustrator 29.7.1, SVG Export Plug-In . SVG Version: 2.1.1 Build 8)  -->
  <path d="M17.55,8.95c-.07-.24,0-.5.17-.68.18-.18.44-.25.68-.18l10.8,3.09L35.4.32c.25-.43.95-.43,1.19,0l6.2,10.86,10.8-3.09c.24-.07.5,0,.68.18.18.18.24.44.17.68l-4.86,16.17c-.09.29-.36.49-.66.49h-25.88c-.3,0-.57-.2-.66-.49l-4.85-16.17ZM68.93,66.51h-3.43v-22.63c0-1.52-1.23-2.75-2.75-2.75h-13.03c-.38,0-.69.31-.69.69v24.69h-4.12v-30.86c0-1.52-1.23-2.75-2.75-2.75h-12.33c-1.52,0-2.75,1.23-2.75,2.75v30.86h-4.12v-16.46c0-.38-.31-.69-.69-.69h-13.03c-1.52,0-2.75,1.23-2.75,2.75v14.4h-3.43c-1.52,0-2.74,1.23-2.74,2.74s1.23,2.74,2.74,2.74h65.85c1.52,0,2.74-1.23,2.74-2.74s-1.23-2.74-2.74-2.74h0Z"/>
</svg>