<?xml version="1.0" encoding="UTF-8"?>
<svg id="Layer_1" xmlns="http://www.w3.org/2000/svg" version="1.1" viewBox="0 0 72 72">
  <!-- Generator: Adobe Illustrator 29.7.1, SVG Export Plug-In . SVG Version: 2.1.1 Build 8)  -->
  <path d="M43.31,17.01c0,3.37-3.07,6.44-6.44,6.44s-6.44-3.07-6.44-6.44c0-3.37,3.07-6.45,6.44-6.45s6.44,3.07,6.44,6.45"/>
  <path d="M29.78,26.01c-3.21,0-5.8,2.59-5.8,5.8,0,.36.03.72.08,1.07l4.76,24.15c.6,2.56,2.91,4.4,5.62,4.4h4.85c2.72,0,5.11-1.97,5.62-4.4l4.75-24.15c.06-.35.1-.71.1-1.07,0-3.21-2.61-5.8-5.82-5.8h-4.7s0,.05,0,.08l-1.45,7.05c1.06.41,1.88,1.48,1.88,2.62,0,1.47-1.33,2.8-2.8,2.8s-2.8-1.33-2.8-2.8c0-1.15.82-2.21,1.88-2.62l-1.45-7.05s0-.05,0-.08h-4.72ZM35.27,26.01l1.42,6.97c.06,0,.12-.02.18-.02s.12.02.18.02l1.42-6.97h-3.2Z"/>
  <path d="M67.47,32.44c0,3.14-2.85,5.99-5.99,5.99s-5.99-2.85-5.99-5.99c0-3.14,2.85-5.99,5.99-5.99s5.99,2.86,5.99,5.99"/>
  <path d="M56.35,40.81c-2.99,0-5.4,2.42-5.4,5.4,0,.34.03.67.09.99l2.03,10.16c.49,2.38,2.7,4.08,5.22,4.08h6.35c2.52,0,4.69-1.7,5.22-4.08l2.03-10.16c.06-.32.09-.66.09-.99,0-2.99-2.42-5.4-5.4-5.4h-2.82l-1.38,6.6c1.06.41,1.88,1.48,1.88,2.62,0,1.47-1.33,2.8-2.8,2.8s-2.8-1.33-2.8-2.8c0-1.15.82-2.21,1.88-2.62l-1.38-6.6h-2.83ZM59.97,40.81l1.32,6.45c.06,0,.12-.02.18-.02s.12.02.18.02l1.32-6.45h-3Z"/>
  <path d="M4.93,27.62c0,3.14,2.85,5.99,5.99,5.99s5.99-2.85,5.99-5.99c0-3.14-2.85-5.99-5.99-5.99s-5.99,2.86-5.99,5.99"/>
  <path d="M5.4,35.99c-2.99,0-5.4,2.42-5.4,5.4,0,.34.03.67.09.99l2.43,14.98c.42,2.23,2.7,4.08,5.22,4.08h6.35c2.52,0,4.72-1.7,5.22-4.08l2.43-14.98c.06-.32.09-.66.09-.99,0-2.99-2.42-5.4-5.4-5.4h-3.22l-1.38,6.6c1.06.41,1.88,1.48,1.88,2.62,0,1.47-1.33,2.8-2.8,2.8s-2.8-1.33-2.8-2.8c0-1.15.82-2.21,1.88-2.62l-1.38-6.6h-3.23ZM9.42,35.99l1.32,6.45c.06,0,.12-.02.18-.02s.12.02.18.02l1.32-6.45h-3Z"/>
</svg>