<?xml version="1.0" encoding="UTF-8"?>
<svg id="Layer_1" xmlns="http://www.w3.org/2000/svg" version="1.1" viewBox="0 0 72 72">
  <!-- Generator: Adobe Illustrator 29.7.1, SVG Export Plug-In . SVG Version: 2.1.1 Build 8)  -->
  <defs>
    <style>
      .st0 {
        fill-rule: evenodd;
      }
    </style>
  </defs>
  <path class="st0" d="M72,53.29h-22.76v18.02h22.76v-18.02ZM8.46,22.9c-2.29-2.52-.5-6.6,2.92-6.6s5.26,4.27,2.79,6.74c-1.57,1.57-4.02,1.56-5.72-.13h0ZM55.34,25h-.97v7.13c-.47,2.84-3.68,2.37-3.68-.01v-9.24c0-1.14.94-2.08,2.08-2.08h15.68c1.15,0,2.08.94,2.08,2.08v9.24c0,2.64-3.46,2.57-3.68-.02v-7.1h-.97v25.78s-4.8,0-4.8,0v-12.54h-.97v12.54h-4.8v-25.78ZM63.27,17.3c-3.75,3.41-9.04-2.12-5.44-5.71,3.62-3.62,9.39,1.78,5.45,5.71h0ZM30.71,15.27h-.97v7.13c-.47,2.84-3.68,2.37-3.68-.01v-9.24c0-1.15.93-2.08,2.08-2.08h15.68c1.14,0,2.08.94,2.08,2.08v9.24c0,2.64-3.46,2.57-3.68-.02v-7.1h-.97v25.78h-4.8v-12.53s-.96,0-.96,0v12.54h-4.8V15.27ZM38.65,7.6c-3.75,3.41-9.04-2.12-5.44-5.72,3.61-3.61,9.39,1.78,5.45,5.72h0ZM6.09,30.89h-.97v7.13c-.47,2.84-3.68,2.37-3.68-.01v-9.24c0-1.15.93-2.08,2.08-2.08h15.68c1.15,0,2.08.94,2.08,2.08v9.24c0,2.64-3.46,2.57-3.68-.02v-7.1h-.97v25.78h-4.8v-12.53s-.96,0-.96,0v12.54h-4.8v-25.78ZM22.76,71.31v-12.13H0v12.13h22.76ZM47.38,71.31v-27.74h-22.76v27.74h22.76Z"/>
</svg>