<?xml version="1.0" encoding="UTF-8"?>
<svg id="Layer_1" xmlns="http://www.w3.org/2000/svg" version="1.1" viewBox="0 0 90 112.5">
  <!-- Generator: Adobe Illustrator 29.7.1, SVG Export Plug-In . SVG Version: 2.1.1 Build 8)  -->
  <rect x="39.63" y="30.84" width="10.7" height="26.14"/>
  <rect x="26.57" y="37.62" width="10.71" height="19.36"/>
  <rect x="52.69" y="44.4" width="10.7" height="12.58"/>
  <path d="M44.31,13.15l-2.1,3.56-4.02.93c-.58.14-.8.84-.4,1.28l2.8,3.06-.46,4.66c-.06.62.6,1.05,1.15.75l3.7-2.04,3.7,2.04c.54.3,1.2-.13,1.15-.75l-.47-4.66,2.8-3.06c.4-.44.18-1.14-.4-1.28l-4.02-.93-2.1-3.56c-.4-.68-1.02-.52-1.34,0Z"/>
  <path d="M77.46,19.09c2.71,2.55,3.99,5.47,3.85,8.13-.15,2.64-1.72,4.96-4.17,6.04-2.45,1.07-4.61.72-6.2-.62-1.59-1.34-2.63-3.63-2.62-6.53,0-.59.44-.66.77-.54,2.18.82,3.98,1.52,5.48,2.93-.65-3.32.94-6.7,1.97-9.21.18-.45.63-.46.91-.2Z"/>
  <path d="M83.3,47.3c.84,3.63.28,6.76-1.32,8.9-1.59,2.11-4.19,3.17-6.82,2.69-2.63-.47-4.24-1.97-4.81-3.96-.58-2.01-.17-4.49,1.45-6.88.33-.49.74-.3.94-.02,1.35,1.89,2.46,3.47,2.93,5.48,1.3-3.12,4.51-5.05,6.76-6.56.4-.27.78-.03.87.34Z"/>
  <path d="M77.51,61.76c-.8,3.64-2.65,6.23-5.01,7.47-2.34,1.23-5.14,1.07-7.32-.49-2.17-1.55-2.98-3.59-2.65-5.64.33-2.06,1.77-4.12,4.26-5.6.51-.3.8.04.86.39.41,2.29.73,4.2.3,6.21,2.52-2.27,6.23-2.62,8.92-3.03.47-.07.72.31.63.69Z"/>
  <circle cx="44.98" cy="73.8" r="3.42"/>
  <path d="M71.09,23.81c-4.85-1.53-5.28-4.77-5.28-9.98,0-1.07.18-1.18,1-1.01,5.46,1.15,7.66,6.19,5.65,10.5-.33.71-.74.69-1.38.48Z"/>
  <path d="M82.53,32.23c2.09,3.09,2.7,6.21,1.97,8.78-.72,2.54-2.77,4.46-5.39,4.97-2.62.51-4.66-.31-5.91-1.96-1.26-1.67-1.77-4.12-1.12-6.94.14-.57.58-.55.88-.36,1.94,1.28,3.55,2.36,4.71,4.06.09-3.38,2.39-6.33,3.94-8.55.28-.4.72-.31.93,0Z"/>
  <path d="M66.79,72.96c-2.41,2.84-5.26,4.26-7.92,4.25-2.65-.01-5.05-1.47-6.24-3.86-1.19-2.39-.95-4.57.3-6.22,1.26-1.66,3.5-2.81,6.38-2.95.59-.03.69.41.58.75-.7,2.21-1.32,4.05-2.64,5.62,3.28-.82,6.74.6,9.3,1.5.45.16.49.61.24.9Z"/>
  <path d="M12.51,19.09c-2.72,2.55-3.99,5.47-3.85,8.13.15,2.64,1.72,4.96,4.17,6.04,2.45,1.07,4.61.72,6.2-.62,1.59-1.34,2.63-3.63,2.61-6.53,0-.59-.44-.66-.77-.54-2.17.82-3.97,1.52-5.48,2.93.66-3.32-.94-6.7-1.97-9.21-.18-.45-.63-.46-.91-.2Z"/>
  <path d="M6.67,47.3c-.84,3.63-.28,6.76,1.32,8.9,1.59,2.11,4.19,3.17,6.82,2.69,2.63-.47,4.24-1.97,4.81-3.96.58-2.01.17-4.49-1.45-6.88-.33-.49-.73-.3-.94-.02-1.35,1.89-2.46,3.47-2.93,5.48-1.3-3.12-4.51-5.05-6.76-6.56-.39-.27-.78-.03-.86.34Z"/>
  <path d="M12.46,61.76c.8,3.64,2.65,6.23,5.01,7.47,2.34,1.23,5.15,1.07,7.32-.49,2.18-1.55,2.98-3.59,2.65-5.64-.34-2.06-1.77-4.12-4.26-5.6-.51-.3-.8.04-.86.39-.41,2.29-.73,4.2-.3,6.21-2.52-2.27-6.24-2.62-8.92-3.03-.47-.07-.72.31-.64.69Z"/>
  <path d="M18.88,23.81c4.84-1.53,5.28-4.77,5.28-9.98,0-1.07-.18-1.18-1-1.01-5.47,1.15-7.67,6.19-5.65,10.5.33.71.74.69,1.38.48Z"/>
  <path d="M7.43,32.23c-2.09,3.09-2.69,6.21-1.97,8.78.72,2.54,2.77,4.46,5.39,4.97,2.63.51,4.66-.31,5.91-1.96,1.26-1.67,1.77-4.12,1.12-6.94-.13-.57-.58-.55-.87-.36-1.94,1.28-3.55,2.36-4.71,4.06-.09-3.38-2.39-6.33-3.94-8.55-.28-.4-.72-.31-.94,0Z"/>
  <path d="M23.17,72.96c2.41,2.84,5.26,4.26,7.92,4.25,2.65-.01,5.05-1.47,6.24-3.86,1.19-2.39.95-4.57-.3-6.22-1.26-1.66-3.49-2.81-6.39-2.95-.59-.03-.68.41-.58.75.71,2.21,1.32,4.05,2.65,5.62-3.29-.82-6.74.6-9.3,1.5-.45.16-.5.61-.24.9Z"/>
</svg>