<?xml version="1.0" encoding="UTF-8"?>
<svg id="Layer_1" xmlns="http://www.w3.org/2000/svg" version="1.1" viewBox="0 0 72 72">
  <!-- Generator: Adobe Illustrator 29.7.1, SVG Export Plug-In . SVG Version: 2.1.1 Build 8)  -->
  <path d="M22.78,23.43c.34,1.13,1.37,1.9,2.55,1.9h21.33c1.18,0,2.21-.77,2.55-1.9l4-13.33c.28-.93.03-1.95-.65-2.64-.69-.69-1.69-.96-2.63-.69l-7.32,2.09-4.29-7.52c-.48-.83-1.36-1.34-2.32-1.34s-1.84.51-2.31,1.35l-4.29,7.52-7.33-2.1c-.93-.27-1.95,0-2.63.69-.69.69-.93,1.71-.65,2.64l4,13.33ZM29.93,14.57c1.18.34,2.44-.17,3.05-1.24l3.02-5.29,3.02,5.28c.61,1.07,1.87,1.58,3.05,1.24l4.65-1.33-2.03,6.77h-17.36l-2.03-6.77,4.64,1.33ZM68,66.67h-1.33v-21.99c0-2.58-2.1-4.67-4.67-4.67h-13.99v-3.33c0-2.58-2.1-4.67-4.67-4.67h-14.65c-2.57,0-4.67,2.1-4.67,4.67v11.33h-13.99c-2.57,0-4.67,2.1-4.67,4.67v13.99h-1.33c-1.47,0-2.67,1.19-2.67,2.67s1.19,2.67,2.67,2.67h64c1.47,0,2.67-1.19,2.67-2.67s-1.19-2.67-2.67-2.67h0ZM10.67,53.33h13.33v13.33h-13.33v-13.33ZM29.33,50.67v-13.33h13.33v29.33h-13.33v-16ZM48,66.67v-21.33h13.33v21.33h-13.33Z"/>
</svg>