<?xml version="1.0" encoding="UTF-8"?>
<svg id="Layer_1" xmlns="http://www.w3.org/2000/svg" version="1.1" viewBox="0 0 72 72">
  <!-- Generator: Adobe Illustrator 29.7.1, SVG Export Plug-In . SVG Version: 2.1.1 Build 8)  -->
  <path d="M36,0C35.15,0,34.36.48,33.98,1.24l-3.16,6.35-7.05,1.02h0c-.85.13-1.55.72-1.82,1.53-.26.81-.04,1.7.57,2.3l5.1,4.95-1.2,6.98c-.15.84.19,1.7.89,2.2.7.51,1.62.57,2.38.17l6.3-3.3,6.3,3.3h0c.76.4,1.69.34,2.38-.17.7-.5,1.05-1.36.89-2.2l-1.2-6.98,5.1-4.95c.61-.6.83-1.49.57-2.3-.27-.81-.97-1.4-1.82-1.53l-7.05-1.02-3.16-6.35h0c-.38-.76-1.16-1.24-2.03-1.24h0Z"/>
  <path d="M24.76,36v33.75c0,1.24,1.01,2.25,2.25,2.25h17.99c1.24,0,2.25-1.01,2.25-2.25v-33.75c0-1.24-1.01-2.25-2.25-2.25h-17.99c-1.24,0-2.25,1.01-2.25,2.25ZM2.26,45c-1.25,0-2.27,1.01-2.26,2.26v22.51c.01,1.24,1.02,2.23,2.26,2.22h15.73c1.24,0,2.25-1.01,2.25-2.25v-22.49c0-1.24-1.01-2.25-2.25-2.25H2.26ZM51.76,56.26v13.49c0,1.24,1.01,2.25,2.25,2.25h15.76c1.22-.01,2.21-1,2.22-2.22v-13.51c0-1.24-.99-2.24-2.22-2.26h-15.76c-1.24,0-2.25,1.01-2.25,2.25h0Z"/>
</svg>