<?xml version="1.0" encoding="UTF-8"?>
<svg id="Layer_1" xmlns="http://www.w3.org/2000/svg" version="1.1" viewBox="0 0 72 72">
  <!-- Generator: Adobe Illustrator 29.7.1, SVG Export Plug-In . SVG Version: 2.1.1 Build 8)  -->
  <path d="M46.8,72H14.07c-3.79,0-6.87-3.43-6.87-7.65V7.65C7.2,3.43,10.29,0,14.07,0h32.73c1.99,0,3.6,1.62,3.6,3.6s-1.61,3.6-3.6,3.6H14.48c-.04.1-.08.25-.08.45v56.7c0,.2.04.35.08.45h32.32c1.99,0,3.6,1.61,3.6,3.6s-1.61,3.6-3.6,3.6h0ZM63.78,33.46l-10.8-10.8c-1.41-1.41-3.69-1.41-5.09,0-1.41,1.41-1.41,3.69,0,5.09l4.65,4.65h-23.74c-1.99,0-3.6,1.61-3.6,3.6s1.61,3.6,3.6,3.6h23.74l-4.65,4.65c-1.41,1.41-1.41,3.69,0,5.09,1.41,1.41,3.69,1.41,5.09,0l10.8-10.8c.69-.69,1.02-1.61,1.02-2.54,0-.93-.34-1.86-1.02-2.54Z"/>
</svg>