<?xml version="1.0" encoding="UTF-8"?>
<svg id="Layer_1" xmlns="http://www.w3.org/2000/svg" version="1.1" viewBox="0 0 72 72">
  <!-- Generator: Adobe Illustrator 29.7.1, SVG Export Plug-In . SVG Version: 2.1.1 Build 8)  -->
  <path d="M67.01,62.48l-9.62-15.64c2.95-3.4,5.06-7.47,6.13-11.98,1.75-7.36.53-14.95-3.43-21.39S49.91,2.53,42.55.78s-14.95-.53-21.39,3.43C7.88,12.41,3.72,29.87,11.9,43.16c.81,1.32,1.74,2.53,2.72,3.67l-9.63,15.65c-.25.41-.25.92.01,1.33.26.4.72.61,1.2.56l8.28-1.07,2.78,7.87c.16.45.56.77,1.04.82.05,0,.09.01.14.01.42,0,.83-.22,1.05-.6l9.63-15.65c.11.02.22.07.34.1,2.2.52,4.41.78,6.61.78s4.6-.3,6.84-.87l9.62,15.64c.22.37.63.6,1.05.6.05,0,.09,0,.14-.01.47-.05.88-.37,1.04-.82l2.78-7.87,8.28,1.07c.47.05.94-.16,1.2-.56.24-.4.24-.92-.01-1.33h0ZM18.74,67.89l-2.25-6.37c-.2-.56-.74-.88-1.33-.82l-6.7.87,7.92-12.87c2.92,2.82,6.39,4.99,10.26,6.34l-7.91,12.84ZM30.01,53.45c-6.71-1.6-12.4-5.71-16.01-11.59-7.46-12.12-3.66-28.06,8.46-35.52,4.12-2.54,8.76-3.83,13.48-3.83,2.01,0,4.03.24,6.03.71,6.71,1.6,12.4,5.71,16.01,11.59,3.61,5.87,4.73,12.81,3.13,19.51-1.6,6.7-5.71,12.4-11.59,16.01-5.87,3.61-12.79,4.73-19.51,3.13h0ZM56.83,60.71c-.58-.07-1.14.26-1.33.82l-2.25,6.37-7.91-12.86c1.89-.67,3.72-1.54,5.47-2.61,1.75-1.08,3.34-2.33,4.79-3.72l7.92,12.87-6.7-.87Z"/>
</svg>