<?xml version="1.0" encoding="UTF-8"?>
<svg id="Layer_1" xmlns="http://www.w3.org/2000/svg" version="1.1" viewBox="0 0 72 72">
  <!-- Generator: Adobe Illustrator 29.7.1, SVG Export Plug-In . SVG Version: 2.1.1 Build 8)  -->
  <defs>
    <style>
      .st0 {
        fill-rule: evenodd;
      }
    </style>
  </defs>
  <path class="st0" d="M33,3v66c0,1.66,1.34,3,3,3s3-1.34,3-3V3C39,1.34,37.66,0,36,0s-3,1.34-3,3Z"/>
  <path class="st0" d="M69,69h-3c-1.66,0-3-1.34-3-3v-24c0-1.66,1.34-3,3-3h3c1.66,0,3,1.34,3,3v24c0,1.66-1.34,3-3,3"/>
  <path class="st0" d="M6,36h-3c-1.66,0-3-1.34-3-3V9c0-1.66,1.34-3,3-3h3c1.66,0,3,1.34,3,3v24c0,1.66-1.34,3-3,3"/>
  <path class="st0" d="M57,42c0-3.31-2.69-6-6-6s-6,2.69-6,6,2.69,6,6,6,6-2.68,6-6"/>
</svg>