<?xml version="1.0" encoding="UTF-8"?>
<svg id="Layer_1" xmlns="http://www.w3.org/2000/svg" version="1.1" viewBox="0 0 72 72">
  <!-- Generator: Adobe Illustrator 29.7.1, SVG Export Plug-In . SVG Version: 2.1.1 Build 8)  -->
  <path d="M70.16,61.26l-17.26-17.26c-.85-.85-2.23-.85-3.08,0l-1.37,1.37-4.31-4.31c3.66-4.35,5.86-9.95,5.86-16.06C50,11.21,38.79,0,25,0S0,11.21,0,25s11.21,25,25,25c6.11,0,11.71-2.2,16.06-5.86l4.31,4.31-1.37,1.37c-.85.85-.85,2.23,0,3.08l17.25,17.26c2.45,2.45,6.46,2.45,8.9,0,2.45-2.45,2.45-6.46,0-8.9h0ZM25,45.64c-11.38,0-20.64-9.26-20.64-20.64S13.61,4.35,25,4.35s20.64,9.26,20.64,20.64-9.26,20.64-20.64,20.64Z"/>
</svg>