<?xml version="1.0" encoding="UTF-8"?>
<svg id="Layer_1" xmlns="http://www.w3.org/2000/svg" version="1.1" viewBox="0 0 72 72">
  <!-- Generator: Adobe Illustrator 29.7.1, SVG Export Plug-In . SVG Version: 2.1.1 Build 8)  -->
  <g>
    <path d="M36.74,71.16c-1.75,0-3.43-.48-4.86-1.39C13.58,58.19,5.43,42.43,5.43,18.67c0-3.3,1.83-6.27,4.78-7.74l14.5-7.25c3.71-1.86,7.87-2.84,12.02-2.84s8.32.98,12.03,2.84l14.5,7.25c2.95,1.47,4.78,4.44,4.78,7.74,0,23.76-8.16,39.52-26.44,51.1-1.43.91-3.11,1.39-4.86,1.39ZM36.74,5.69c-3.41,0-6.82.8-9.86,2.32l-14.5,7.25c-1.3.65-2.1,1.95-2.1,3.4,0,22.5,7.01,36.12,24.19,47,.31.2,1.81.64,2.27.64s1.96-.44,2.27-.64c17.18-10.88,24.19-24.5,24.19-47,0-1.45-.81-2.75-2.1-3.41l-14.5-7.25c-3.04-1.52-6.45-2.32-9.86-2.32Z"/>
    <path d="M36.74,1.34h0,0M36.74,1.34c4.1,0,8.14.95,11.8,2.78l14.5,7.25c2.76,1.38,4.51,4.21,4.51,7.3,0,22.85-7.7,38.96-26.21,50.68-1.39.88-3,1.31-4.6,1.31s-3.2-.43-4.6-1.31C13.63,57.63,5.93,41.52,5.93,18.67c0-3.09,1.74-5.92,4.51-7.3l14.5-7.25c3.66-1.83,7.7-2.78,11.8-2.78M36.74,66.81c.53,0,2.13-.46,2.53-.71,17.6-11.15,24.42-25.4,24.42-47.42,0-1.64-.92-3.12-2.38-3.85l-14.5-7.25c-3.13-1.56-6.58-2.38-10.08-2.38s-6.95.81-10.08,2.38l-14.5,7.25c-1.46.73-2.38,2.22-2.38,3.85,0,22.02,6.82,36.27,24.42,47.42.4.26,2,.71,2.53.71M36.74.34h0c-4.24,0-8.47,1-12.25,2.89l-14.5,7.25c-3.12,1.56-5.06,4.7-5.06,8.19,0,23.95,8.23,39.84,26.68,51.52,1.51.96,3.29,1.47,5.13,1.47s3.62-.51,5.13-1.47c18.45-11.69,26.67-27.58,26.67-51.52,0-3.49-1.94-6.63-5.06-8.19l-14.5-7.25c-3.78-1.89-8.01-2.89-12.25-2.89h0ZM36.74,2.34h0,0ZM36.74,65.81c-.34,0-1.7-.39-2-.56-17.01-10.78-23.96-24.27-23.96-46.58,0-1.26.7-2.39,1.83-2.96l14.5-7.25c2.97-1.49,6.3-2.27,9.63-2.27s6.66.79,9.63,2.27l14.5,7.25c1.13.56,1.83,1.7,1.83,2.96,0,22.3-6.94,35.8-23.96,46.58-.3.17-1.66.56-2,.56h0Z"/>
  </g>
  <g>
    <path d="M34.81,44.2c-.63,0-1.22-.24-1.67-.67-.02-.01-7.74-7.74-7.74-7.74-.94-.95-.94-2.49,0-3.43.46-.46,1.07-.71,1.72-.71s1.26.25,1.71.71l5.99,5.99,13.69-13.69c.46-.46,1.07-.71,1.72-.71.65,0,1.26.25,1.71.71.46.46.71,1.07.71,1.72,0,.63-.24,1.22-.67,1.67-.01.01-15.44,15.44-15.44,15.44-.46.46-1.07.71-1.72.71Z"/>
    <path d="M50.22,24.45c.49,0,.98.19,1.36.56.75.75.75,1.97,0,2.72h0l-15.41,15.41c-.38.38-.87.56-1.36.56s-.98-.19-1.36-.56h0l-7.7-7.7c-.75-.75-.75-1.97,0-2.72.38-.38.87-.57,1.36-.57s.98.19,1.36.57l6.34,6.34,14.04-14.04h0c.38-.38.87-.56,1.36-.56M50.22,23.45c-.78,0-1.51.3-2.07.85l-13.34,13.34-5.64-5.63c-.55-.55-1.28-.86-2.07-.86s-1.52.31-2.07.86c-1.14,1.14-1.14,2.99,0,4.13l7.7,7.7s.04.04.06.06c.54.52,1.25.8,2.01.8s1.51-.3,2.07-.85l15.41-15.41s.04-.04.06-.06c.51-.54.8-1.25.8-2,0-.78-.3-1.52-.86-2.07-.55-.55-1.29-.86-2.07-.86h0Z"/>
  </g>
</svg>