<?xml version="1.0" encoding="UTF-8"?>
<svg id="Layer_1" xmlns="http://www.w3.org/2000/svg" xmlns:svg="http://www.w3.org/2000/svg" xmlns:sodipodi="http://sodipodi.sourceforge.net/DTD/sodipodi-0.dtd" xmlns:rdf="http://www.w3.org/1999/02/22-rdf-syntax-ns#" xmlns:inkscape="http://www.inkscape.org/namespaces/inkscape" xmlns:dc="http://purl.org/dc/elements/1.1/" xmlns:cc="http://creativecommons.org/ns#" version="1.1" viewBox="0 0 72 72">
  <!-- Generator: Adobe Illustrator 29.7.1, SVG Export Plug-In . SVG Version: 2.1.1 Build 8)  -->
  <path d="M30.98,0c-1.04.11-1.89.88-2.1,1.9l-1.85,8.55c-.94.33-1.84.7-2.72,1.12l-7.37-4.72c-.95-.61-2.2-.48-3,.32l-6.75,6.75c-.8.8-.94,2.05-.32,3l4.72,7.37c-.42.89-.8,1.79-1.12,2.72l-8.55,1.85C.79,29.11,0,30.09,0,31.23v9.55c0,1.13.79,2.11,1.9,2.35l8.55,1.85c.33.94.7,1.84,1.12,2.72l-4.72,7.37c-.61.95-.48,2.2.32,3l6.75,6.75c.8.8,2.05.94,3,.32l7.37-4.72c.89.42,1.79.8,2.72,1.12l1.85,8.55c.24,1.11,1.22,1.9,2.35,1.9h9.55c1.13,0,2.11-.79,2.35-1.9l1.85-8.55c.94-.33,1.84-.7,2.72-1.12l7.37,4.72c.95.61,2.2.48,3-.32l6.75-6.75c.8-.8.94-2.05.32-3l-4.72-7.37c.42-.89.8-1.79,1.12-2.72l8.55-1.85c1.11-.24,1.9-1.22,1.9-2.35v-9.55c0-1.13-.79-2.11-1.9-2.35l-8.55-1.85c-.33-.94-.7-1.84-1.12-2.72l4.72-7.37c.61-.95.48-2.2-.32-3l-6.75-6.75c-.8-.8-2.05-.94-3-.32l-7.37,4.72c-.89-.42-1.79-.8-2.72-1.12l-1.85-8.55C42.89.79,41.91,0,40.77,0h-9.55c-.08,0-.17,0-.25,0ZM33.15,4.8h5.7l1.7,7.87c.19.86.83,1.55,1.67,1.8,1.61.47,3.17,1.11,4.6,1.9.77.43,1.71.4,2.45-.07l6.77-4.35,4,4-4.35,6.77c-.47.74-.5,1.68-.07,2.45.79,1.43,1.43,2.99,1.9,4.6.25.85.94,1.49,1.8,1.67l7.87,1.7v5.7l-7.87,1.7c-.86.19-1.55.83-1.8,1.67-.47,1.61-1.11,3.17-1.9,4.6-.43.77-.4,1.71.07,2.45l4.35,6.77-4,4-6.77-4.35c-.74-.47-1.68-.5-2.45-.07-1.43.79-2.99,1.43-4.6,1.9-.85.25-1.49.94-1.67,1.8l-1.7,7.87h-5.7l-1.7-7.87c-.19-.86-.83-1.55-1.67-1.8-1.61-.47-3.17-1.11-4.6-1.9-.77-.43-1.71-.4-2.45.07l-6.77,4.35-4-4,4.35-6.77c.47-.74.5-1.68.07-2.45-.79-1.43-1.43-2.99-1.9-4.6-.25-.85-.94-1.49-1.8-1.67l-7.87-1.7v-5.7l7.87-1.7c.86-.19,1.55-.83,1.8-1.67.47-1.61,1.11-3.17,1.9-4.6.43-.77.4-1.71-.07-2.45l-4.35-6.77,4-4,6.77,4.35c.74.47,1.68.5,2.45.07,1.43-.79,2.99-1.43,4.6-1.9.85-.25,1.49-.94,1.67-1.8l1.7-7.87ZM36,19.2c-9.25,0-16.8,7.55-16.8,16.8s7.55,16.8,16.8,16.8,16.8-7.55,16.8-16.8-7.55-16.8-16.8-16.8ZM36,24c6.66,0,12,5.34,12,12s-5.34,12-12,12-12-5.34-12-12,5.34-12,12-12Z"/>
</svg>