<?xml version="1.0" encoding="UTF-8"?>
<svg id="Layer_1" xmlns="http://www.w3.org/2000/svg" version="1.1" viewBox="0 0 110 135">
  <!-- Generator: Adobe Illustrator 29.7.1, SVG Export Plug-In . SVG Version: 2.1.1 Build 8)  -->
  <path d="M13.05,72.45h1.31c1.55,0,2.94.98,3.55,2.49.1.25.2.5.31.74.63,1.49.34,3.16-.75,4.26l-.92.92c-3.14,3.14-3.14,8.24,0,11.38l6.22,6.22c3.14,3.14,8.24,3.14,11.38,0l.92-.92c1.09-1.09,2.76-1.39,4.25-.76.25.11.5.21.75.31,1.51.6,2.49,2,2.49,3.55v1.31c0,4.44,3.61,8.05,8.05,8.05h8.8c4.44,0,8.05-3.61,8.05-8.05v-1.31c0-1.55.98-2.94,2.49-3.55.25-.1.5-.2.74-.31,1.49-.63,3.17-.34,4.26.75l.92.92c1.52,1.52,3.54,2.36,5.69,2.36s4.17-.84,5.69-2.36l6.23-6.22c3.14-3.14,3.14-8.24,0-11.38l-.92-.92c-1.09-1.09-1.39-2.76-.75-4.26.1-.25.21-.5.31-.74.6-1.51,2-2.49,3.55-2.49h1.31c4.44,0,8.05-3.61,8.05-8.05v-8.8c0-4.44-3.61-8.05-8.05-8.05h-1.31c-1.55,0-2.94-.98-3.54-2.48-.1-.25-.2-.5-.31-.75-.63-1.49-.34-3.16.75-4.25l.92-.92c3.14-3.14,3.14-8.25,0-11.38l-6.22-6.22c-3.14-3.14-8.25-3.14-11.38,0l-.92.92c-1.09,1.09-2.76,1.39-4.26.75-.25-.1-.5-.21-.74-.31-1.51-.6-2.49-2-2.49-3.55v-1.3c-.04-4.44-3.64-8.05-8.09-8.05h-8.8c-4.44,0-8.05,3.61-8.05,8.05v1.31c0,1.55-.98,2.94-2.48,3.54-.25.1-.5.2-.75.31-1.49.63-3.16.34-4.25-.75l-.92-.92c-3.14-3.14-8.25-3.14-11.38,0l-6.22,6.22c-3.14,3.14-3.14,8.25,0,11.38l.92.92c1.09,1.09,1.39,2.76.75,4.26-.1.25-.21.5-.31.74-.6,1.51-2,2.49-3.55,2.49h-1.31c-4.44,0-8.05,3.62-8.05,8.06v8.8c0,4.44,3.61,8.05,8.05,8.05h0ZM9.27,55.6c0-2.09,1.7-3.78,3.78-3.78h1.31c3.3,0,6.25-2.03,7.51-5.17.09-.22.18-.44.27-.66,1.32-3.1.66-6.61-1.67-8.94l-.92-.92c-1.48-1.48-1.48-3.88,0-5.35l6.22-6.22c1.48-1.47,3.88-1.48,5.35,0l.92.92c2.33,2.33,5.83,2.98,8.93,1.67.22-.09.44-.18.67-.27,3.14-1.26,5.17-4.2,5.17-7.51v-1.32c0-2.09,1.7-3.78,3.78-3.78h8.8c2.09,0,3.78,1.7,3.78,3.78v1.31c0,3.3,2.03,6.25,5.17,7.51.22.09.44.18.66.27,3.1,1.32,6.61.66,8.94-1.67l.92-.92c1.48-1.48,3.88-1.48,5.35,0l6.22,6.22c1.48,1.48,1.48,3.88,0,5.35l-.92.92c-2.33,2.33-2.98,5.83-1.67,8.93.09.22.18.44.27.67,1.26,3.14,4.2,5.17,7.51,5.17h1.31c2.09,0,3.78,1.7,3.78,3.78v8.8c0,2.09-1.7,3.78-3.78,3.78h-1.31c-3.3,0-6.25,2.03-7.51,5.17-.09.22-.18.44-.27.66-1.31,3.1-.66,6.61,1.67,8.94l.92.92c1.48,1.48,1.48,3.88,0,5.35l-6.23,6.22c-1.43,1.43-3.92,1.43-5.35,0l-.92-.92c-2.32-2.33-5.83-2.98-8.94-1.66-.22.09-.44.18-.66.27-3.14,1.25-5.17,4.2-5.17,7.51v1.31c0,2.09-1.7,3.78-3.78,3.78h-8.8c-2.09,0-3.78-1.7-3.78-3.78v-1.31c0-3.3-2.03-6.25-5.17-7.5-.22-.09-.44-.18-.67-.27-1.06-.45-2.17-.67-3.27-.67-2.1,0-4.14.81-5.67,2.33l-.92.92c-1.47,1.48-3.88,1.48-5.35,0l-6.22-6.22c-1.48-1.48-1.48-3.88,0-5.35l.92-.92c2.33-2.33,2.98-5.83,1.66-8.94-.09-.22-.18-.44-.27-.66-1.26-3.14-4.2-5.17-7.51-5.17h-1.27c-2.09,0-3.78-1.7-3.78-3.79v-8.8Z"/>
  <path d="M55,80.61c11.36,0,20.61-9.24,20.61-20.61s-9.25-20.61-20.61-20.61-20.61,9.25-20.61,20.61,9.25,20.61,20.61,20.61ZM55,43.66c9.01,0,16.34,7.33,16.34,16.34s-7.33,16.34-16.34,16.34-16.34-7.33-16.34-16.34,7.33-16.34,16.34-16.34Z"/>
</svg>