<?xml version="1.0" encoding="UTF-8"?>
<svg id="Layer_1" xmlns="http://www.w3.org/2000/svg" version="1.1" viewBox="0 0 72 72">
  <!-- Generator: Adobe Illustrator 29.7.1, SVG Export Plug-In . SVG Version: 2.1.1 Build 8)  -->
  <path d="M68.31,28.44l-5.05-.86c-.53-1.7-1.2-3.34-2.03-4.9l2.98-4.17c1.26-1.77,1.07-4.2-.48-5.73l-4.48-4.48c-.84-.84-1.96-1.31-3.14-1.31-.93,0-1.82.29-2.57.83l-4.18,2.98c-1.62-.86-3.32-1.56-5.08-2.09l-.84-4.99C43.06,1.56,41.21,0,39.03,0h-6.33C30.52,0,28.67,1.56,28.31,3.72l-.87,5.11c-1.68.53-3.32,1.22-4.89,2.06l-4.14-2.98c-.75-.54-1.65-.83-2.59-.83-1.19,0-2.32.47-3.14,1.31l-4.5,4.48c-1.53,1.53-1.74,3.96-.48,5.73l3.01,4.23c-.83,1.58-1.49,3.22-2,4.92l-4.99.84C1.56,28.95,0,30.8,0,32.98v6.33C0,41.5,1.56,43.35,3.72,43.71l5.11.87c.53,1.68,1.22,3.32,2.06,4.89l-2.96,4.12c-1.26,1.77-1.07,4.2.48,5.73l4.48,4.48c.84.84,1.96,1.31,3.14,1.31.93,0,1.82-.29,2.57-.83l4.23-3.01c1.52.8,3.11,1.44,4.75,1.96l.84,5.05c.36,2.15,2.21,3.72,4.39,3.72h6.35c2.18,0,4.03-1.56,4.39-3.72l.86-5.05c1.7-.53,3.34-1.2,4.9-2.03l4.17,2.98c.75.54,1.65.83,2.59.83h0c1.19,0,2.3-.47,3.14-1.31l4.48-4.48c1.53-1.53,1.74-3.96.48-5.73l-2.98-4.18c.83-1.58,1.52-3.22,2.03-4.9l5.05-.84c2.15-.36,3.72-2.21,3.72-4.39v-6.33c.03-2.18-1.53-4.03-3.68-4.39ZM67.97,39.17c0,.2-.14.36-.33.39l-6.32,1.05c-.8.14-1.43.72-1.62,1.49-.57,2.21-1.44,4.33-2.62,6.3-.41.69-.38,1.55.09,2.21l3.72,5.23c.11.15.09.38-.05.51l-4.48,4.48c-.11.11-.21.12-.29.12-.09,0-.17-.03-.23-.08l-5.22-3.72c-.65-.47-1.52-.5-2.21-.09-1.97,1.17-4.09,2.05-6.3,2.62-.78.2-1.37.84-1.49,1.62l-1.07,6.32c-.03.2-.2.33-.39.33h-6.33c-.2,0-.36-.14-.39-.33l-1.05-6.32c-.14-.8-.72-1.43-1.49-1.62-2.15-.56-4.23-1.41-6.17-2.53-.32-.18-.68-.27-1.02-.27-.41,0-.83.12-1.17.38l-5.26,3.75c-.08.05-.15.08-.23.08-.06,0-.18-.02-.29-.12l-4.48-4.48c-.14-.14-.15-.35-.05-.51l3.7-5.19c.47-.66.5-1.53.09-2.23-1.17-1.96-2.08-4.08-2.65-6.29-.21-.77-.84-1.35-1.62-1.49l-6.36-1.08c-.2-.03-.33-.2-.33-.39v-6.33c0-.2.14-.36.33-.39l6.27-1.05c.8-.14,1.44-.72,1.64-1.5.56-2.21,1.41-4.35,2.57-6.32.41-.69.36-1.55-.11-2.2l-3.75-5.26c-.11-.15-.09-.38.05-.51l4.48-4.48c.11-.11.21-.12.29-.12.09,0,.17.03.23.08l5.19,3.7c.66.47,1.53.5,2.23.09,1.96-1.17,4.08-2.08,6.29-2.65.77-.21,1.35-.84,1.49-1.62l1.08-6.36c.03-.2.2-.33.39-.33h6.33c.2,0,.36.14.39.33l1.05,6.27c.14.8.72,1.44,1.5,1.64,2.27.57,4.44,1.46,6.45,2.65.69.41,1.55.38,2.21-.09l5.19-3.73c.08-.05.15-.08.23-.08.06,0,.18.02.29.12l4.48,4.48c.14.14.15.35.05.51l-3.72,5.22c-.47.65-.5,1.52-.09,2.21,1.17,1.97,2.05,4.09,2.62,6.3.2.78.84,1.37,1.62,1.49l6.32,1.07c.2.03.33.2.33.39v6.33h-.02Z"/>
  <path d="M36.01,20.46c-8.57,0-15.54,6.96-15.54,15.54s6.96,15.54,15.54,15.54,15.54-6.96,15.54-15.54-6.96-15.54-15.54-15.54ZM36.01,47.47c-6.33,0-11.48-5.14-11.48-11.48s5.14-11.48,11.48-11.48,11.48,5.14,11.48,11.48-5.14,11.48-11.48,11.48Z"/>
</svg>