<?xml version="1.0" encoding="UTF-8"?>
<svg id="Layer_1" xmlns="http://www.w3.org/2000/svg" version="1.1" viewBox="0 0 72 72">
  <!-- Generator: Adobe Illustrator 29.7.1, SVG Export Plug-In . SVG Version: 2.1.1 Build 8)  -->
  <path d="M36,19.06c-9.34,0-16.94,7.6-16.94,16.94s7.6,16.94,16.94,16.94,16.94-7.6,16.94-16.94-7.6-16.94-16.94-16.94ZM36,50.06c-7.75,0-14.06-6.31-14.06-14.06s6.31-14.06,14.06-14.06,14.06,6.31,14.06,14.06-6.31,14.06-14.06,14.06Z"/>
  <path d="M70.72,30.07l-7.54-.84c-.67-2.69-1.74-5.26-3.19-7.66l4.75-5.94c.46-.57.41-1.4-.11-1.92l-6.36-6.36c-.52-.52-1.35-.56-1.92-.11l-5.94,4.75c-2.4-1.45-4.97-2.52-7.66-3.19l-.84-7.54c-.08-.73-.7-1.28-1.43-1.28h-8.99c-.73,0-1.35.55-1.43,1.28l-.84,7.54c-2.69.67-5.26,1.74-7.66,3.18l-5.94-4.75c-.57-.46-1.4-.41-1.92.11l-6.36,6.36c-.52.52-.57,1.34-.11,1.92l4.75,5.94c-1.45,2.4-2.52,4.97-3.18,7.66l-7.54.84c-.73.08-1.28.7-1.28,1.43v8.99c0,.73.55,1.35,1.28,1.43l7.54.84c.67,2.69,1.74,5.26,3.18,7.66l-4.75,5.94c-.46.57-.41,1.4.11,1.92l6.36,6.36c.52.52,1.35.56,1.92.11l5.94-4.75c2.4,1.45,4.97,2.52,7.66,3.18l.84,7.54c.08.73.7,1.28,1.43,1.28h8.99c.73,0,1.35-.55,1.43-1.28l.84-7.54c2.69-.67,5.26-1.74,7.66-3.18l5.94,4.75c.57.46,1.4.41,1.92-.11l6.36-6.36c.52-.52.57-1.34.11-1.92l-4.75-5.94c1.45-2.4,2.52-4.97,3.19-7.66l7.54-.84c.73-.08,1.28-.7,1.28-1.43v-8.99c0-.73-.55-1.35-1.28-1.43ZM69.12,39.21l-7.28.81c-.62.07-1.12.53-1.25,1.14-.64,3.05-1.84,5.93-3.57,8.58-.34.52-.31,1.2.08,1.69l4.58,5.73-4.53,4.53-5.73-4.58c-.49-.39-1.17-.42-1.69-.08-2.65,1.73-5.53,2.93-8.58,3.57-.61.13-1.07.63-1.14,1.25l-.81,7.28h-6.41l-.81-7.28c-.07-.62-.53-1.12-1.14-1.25-3.05-.64-5.93-1.84-8.58-3.57-.52-.34-1.2-.31-1.69.08l-5.73,4.58-4.53-4.53,4.58-5.73c.39-.49.42-1.17.08-1.69-1.73-2.64-2.93-5.53-3.57-8.58-.13-.61-.63-1.07-1.25-1.14l-7.28-.81v-6.41l7.28-.81c.62-.07,1.12-.53,1.25-1.14.64-3.05,1.84-5.94,3.57-8.58.34-.52.31-1.2-.08-1.69l-4.58-5.73,4.53-4.53,5.73,4.58c.49.39,1.17.42,1.69.08,2.64-1.73,5.53-2.93,8.58-3.57.61-.13,1.07-.63,1.14-1.25l.81-7.28h6.41l.81,7.28c.07.62.53,1.12,1.14,1.25,3.05.64,5.94,1.84,8.58,3.57.52.34,1.2.31,1.69-.08l5.73-4.58,4.53,4.53-4.58,5.73c-.39.49-.42,1.17-.08,1.69,1.73,2.65,2.93,5.53,3.57,8.58.13.61.63,1.07,1.25,1.14l7.28.81v6.41Z"/>
</svg>