<?xml version="1.0" encoding="UTF-8"?>
<svg id="Layer_1" xmlns="http://www.w3.org/2000/svg" version="1.1" viewBox="0 0 72 72">
  <!-- Generator: Adobe Illustrator 29.7.1, SVG Export Plug-In . SVG Version: 2.1.1 Build 8)  -->
  <defs>
    <style>
      .st0 {
        fill-rule: evenodd;
      }
    </style>
  </defs>
  <path class="st0" d="M11.76,45.93h7.14c.57,0,1.1.32,1.36.82.26.51.23,1.12-.1,1.59l-8.68,12.51c-.29.42-.76.66-1.27.66s-.98-.25-1.27-.66L.27,48.34c-.33-.47-.36-1.08-.1-1.59.26-.51.79-.82,1.36-.82h7.14V12.02c0-.85.69-1.54,1.54-1.54s1.54.69,1.54,1.54v33.91ZM15.96,49.01H4.48l5.74,8.28,5.74-8.28ZM26.65,57.23c-.85,0-1.54-.69-1.54-1.54s.69-1.54,1.54-1.54h15.95c.85,0,1.54.69,1.54,1.54s-.69,1.54-1.54,1.54h-15.95ZM26.65,44.11c-.85,0-1.54-.69-1.54-1.54s.69-1.54,1.54-1.54h26.58c.85,0,1.54.69,1.54,1.54s-.69,1.54-1.54,1.54h-26.58ZM26.65,30.98c-.85,0-1.54-.69-1.54-1.54s.69-1.54,1.54-1.54h35.05c.85,0,1.54.69,1.54,1.54s-.69,1.54-1.54,1.54H26.65ZM26.65,17.85c-.85,0-1.54-.69-1.54-1.54s.69-1.54,1.54-1.54h43.81c.85,0,1.54.69,1.54,1.54s-.69,1.54-1.54,1.54H26.65Z"/>
</svg>