<?xml version="1.0" encoding="UTF-8"?>
<svg id="Layer_1" xmlns="http://www.w3.org/2000/svg" version="1.1" viewBox="0 0 72 72">
  <!-- Generator: Adobe Illustrator 29.7.1, SVG Export Plug-In . SVG Version: 2.1.1 Build 8)  -->
  <defs>
    <style>
      .st0 {
        fill-rule: evenodd;
      }
    </style>
  </defs>
  <path class="st0" d="M26.65,57.23c-.85,0-1.54-.69-1.54-1.54s.69-1.54,1.54-1.54h15.95c.85,0,1.54.69,1.54,1.54s-.69,1.54-1.54,1.54h-15.95Z"/>
  <path class="st0" d="M26.65,44.1c-.85,0-1.54-.69-1.54-1.54s.69-1.54,1.54-1.54h26.58c.85,0,1.54.69,1.54,1.54s-.69,1.54-1.54,1.54h-26.58Z"/>
  <path class="st0" d="M26.65,30.97c-.85,0-1.54-.69-1.54-1.54s.69-1.54,1.54-1.54h35.05c.85,0,1.54.69,1.54,1.54s-.69,1.54-1.54,1.54H26.65Z"/>
  <path class="st0" d="M26.65,17.84c-.85,0-1.54-.69-1.54-1.54s.69-1.54,1.54-1.54h43.81c.85,0,1.54.69,1.54,1.54s-.69,1.54-1.54,1.54H26.65Z"/>
  <path class="st0" d="M8.68,42.85V12.02c0-.85.69-1.54,1.54-1.54s1.54.69,1.54,1.54v30.83h-3.08Z"/>
  <path class="st0" d="M8.95,60.85L.27,48.34c-.33-.47-.36-1.08-.1-1.59.26-.51.79-.82,1.36-.82h17.36c.57,0,1.1.32,1.36.82.26.51.23,1.12-.1,1.59l-8.68,12.51c-.29.42-.76.66-1.27.66s-.98-.25-1.27-.66h0Z"/>
</svg>