<?xml version="1.0" encoding="UTF-8"?>
<svg id="Layer_1" xmlns="http://www.w3.org/2000/svg" version="1.1" viewBox="0 0 72 72">
  <!-- Generator: Adobe Illustrator 29.7.1, SVG Export Plug-In . SVG Version: 2.1.1 Build 8)  -->
  <path d="M68.56,36l3.21-10.11c.74-2.36-.56-4.87-2.91-5.63l-5.91-1.88-3.57-11.27h0c-.75-2.36-3.27-3.66-5.63-2.91l-17.72,5.63-17.81-5.66c-2.36-.75-4.87.55-5.63,2.91l-3.61,11.35-5.87,1.87c-2.36.75-3.66,3.27-2.91,5.63l3.2,10.08L.21,46.08c-.75,2.36.55,4.87,2.91,5.63l5.91,1.87,3.6,11.35c.59,1.85,2.3,3.11,4.24,3.12.46,0,.92-.07,1.37-.21l17.81-5.66,17.72,5.63c2.36.75,4.88-.56,5.63-2.92l3.58-11.27,5.91-1.88c2.36-.75,3.66-3.27,2.91-5.63l-3.23-10.11ZM67.74,23.77c.42.13.65.57.52.99l-1.63,5.13-2.29-7.18,3.4,1.06ZM16.12,8.2c.13-.41.58-.64.99-.51l12.84,4.08-16.65,5.29,2.81-8.86ZM4.25,48.18c-.41-.13-.64-.58-.51-.99l1.62-5.11,2.27,7.2-3.39-1.11ZM55.86,63.76c-.13.41-.58.64-.99.51l-12.73-4.04,16.51-5.25-2.79,8.78ZM17.12,64.3c-.41.13-.86-.1-.99-.51L3.73,24.8c-.13-.42.1-.86.52-.99L54.87,7.73c.41-.13.86.1.99.51l12.39,38.99c.13.42-.1.86-.52.99l-50.62,16.09ZM40.74,35.69c-.38.74-1.2,1.13-2.02.96l-8.52-1.77-8.39,14.1c-.53.87-1.66,1.16-2.54.63-.87-.53-1.16-1.66-.63-2.54l9.08-15.23c.4-.68,1.19-1.03,1.96-.86l8.43,1.77,6.33-12.2-1.9.6c-.97.31-2.01-.23-2.32-1.2s.23-2.01,1.2-2.32l6.14-1.94c.97-.31,2.01.23,2.32,1.2,0,0,0,0,0,0l1.95,6.14c.32.97-.21,2.02-1.18,2.34s-2.02-.21-2.34-1.18l-.6-1.9-6.99,13.4ZM55.29,44.62c.31.97-.23,2.01-1.21,2.31-.97.31-2.01-.23-2.31-1.21l-4.19-13.29c-.31-.97.23-2.01,1.2-2.32.97-.31,2.01.23,2.32,1.2l4.19,13.3ZM46.43,47.42c.45.92.06,2.02-.85,2.47-.92.45-2.02.06-2.47-.85-.07-.15-.13-.32-.16-.48l-2.13-6.78c-.31-.97.23-2.01,1.21-2.31.97-.31,2.01.23,2.31,1.21l2.09,6.76ZM37.57,50.21c.31.97-.23,2.01-1.21,2.31-.97.31-2.01-.23-2.31-1.21h0l-2.78-8.86c-.31-.97.23-2.01,1.21-2.31.97-.31,2.01.23,2.31,1.21l2.78,8.86ZM28.83,53.01c.3.97-.24,2.01-1.22,2.31-.97.3-2.01-.24-2.31-1.22l-.55-1.77c-.3-.97.24-2.01,1.22-2.31.97-.3,2.01.24,2.31,1.22l.55,1.77Z"/>
</svg>