<?xml version="1.0" encoding="UTF-8"?>
<svg id="Layer_1" xmlns="http://www.w3.org/2000/svg" version="1.1" viewBox="0 0 72 72">
  <!-- Generator: Adobe Illustrator 29.7.1, SVG Export Plug-In . SVG Version: 2.1.1 Build 8)  -->
  <path d="M37.96,21.15l12.37,13.35,21-19.46L72,0l-15.05.66-18.99,20.49ZM21.82,38.58l-8,8.63-6.15-6.16-3.81,3.81,8.56,8.57L0,65.84l6.14,6.15,12.41-12.41,8.57,8.56,3.81-3.82-6.15-6.14,9.08-8.42-12.06-11.18ZM68.15,44.87l-3.83-3.81-6.15,6.16L15.04.66,0,0l.66,15.04,46.55,43.13-6.15,6.16,3.81,3.81,8.57-8.56,12.41,12.42,6.15-6.16-12.41-12.41,8.56-8.56Z"/>
</svg>