<?xml version="1.0" encoding="UTF-8"?>
<svg id="Layer_1" xmlns="http://www.w3.org/2000/svg" version="1.1" viewBox="0 0 72 72">
  <!-- Generator: Adobe Illustrator 29.7.1, SVG Export Plug-In . SVG Version: 2.1.1 Build 8)  -->
  <defs>
    <style>
      .st0 {
        fill-rule: evenodd;
      }
    </style>
  </defs>
  <path class="st0" d="M26.81,4.67c.15,4.97,1,9.8,2.75,13.31,1.5,3,3.6,4.84,6.28,4.84,2.68,0,4.78-1.84,6.27-4.84,1.74-3.51,2.58-8.34,2.72-13.31l-18.02.02h0ZM63.28,60.24h1.84v-3.69h-14.86v3.7h1.84,0c.45,0,.87.18,1.19.49.32.32.49.74.49,1.18v7.04c0,.45-.17.87-.48,1.19-.32.32-.74.49-1.19.49h-7.04c-.93,0-1.68-.74-1.68-1.67v-7.04s0,0,0,0c0-.45.18-.88.49-1.19.32-.32.74-.49,1.19-.49h1.84v-5.36c0-.45.17-.87.48-1.19.32-.32.74-.49,1.18-.49h7.3s0-4.91,0-4.91l-40.02.04v4.91s7.57,0,7.57,0h0c.93,0,1.68.75,1.68,1.67v5.36h1.85c.93,0,1.68.75,1.68,1.68v7.04c0,.44-.17.87-.48,1.19-.32.31-.74.49-1.18.49h-7.04c-.45,0-.87-.17-1.19-.48-.32-.31-.49-.74-.49-1.18v-7.04c0-.93.74-1.68,1.67-1.68h1.84v-3.69H6.87v3.7h1.84,0c.45,0,.88.17,1.19.48.32.32.5.74.5,1.19v7.04c0,.93-.74,1.68-1.67,1.68H1.68s0,0,0,0c-.45,0-.87-.18-1.19-.49-.32-.32-.49-.74-.49-1.18v-7.04c0-.93.74-1.68,1.67-1.68h1.84v-5.36c0-.93.74-1.68,1.67-1.68h7.3s0-6.59,0-6.59h0c0-.44.18-.87.49-1.18.31-.32.74-.49,1.18-.49l20.02-.02v-4.41c0-.93.75-1.68,1.67-1.68s1.68.75,1.68,1.68v4.41l20.02-.02c.45,0,.88.18,1.19.49.32.31.49.74.49,1.18v6.58s7.57,0,7.57,0c.93,0,1.68.75,1.68,1.68v5.36h1.85c.44,0,.87.18,1.18.49.32.32.49.74.49,1.18v7.04c0,.93-.74,1.68-1.67,1.68h-7.04s0,0,0,0c-.45,0-.87-.18-1.18-.49-.32-.31-.49-.74-.49-1.18v-7.04c0-.44.18-.87.49-1.18.32-.32.74-.49,1.19-.49h0ZM68.65,63.59h-3.69v3.69h3.69v-3.69ZM50.43,63.61h-3.69v3.69h3.69v-3.69ZM25.26,63.63h-3.69v3.69h3.69v-3.69ZM7.04,63.64h-3.69v3.69h3.69v-3.69ZM29.29,28.55h1.43v-3.97c-.88-.62-1.68-1.37-2.34-2.22-3.69-.76-6.95-2.9-9.11-6-2.15-3.09-3.04-6.9-2.47-10.63.07-.87.8-1.53,1.67-1.54h4.98c0-.39-.01-.79-.01-1.19,0-.45.18-.87.49-1.19.32-.32.74-.49,1.19-.49l21.42-.02h0c.45,0,.87.18,1.19.49.32.32.49.74.49,1.18,0,.4,0,.8-.01,1.19h4.98s0,0,0,0c.87,0,1.6.67,1.67,1.53.58,3.73-.3,7.53-2.45,10.63-2.15,3.1-5.41,5.25-9.1,6.01-.67.85-1.46,1.6-2.34,2.23v3.97h1.43c2.46,0,4.46,2,4.47,4.46v2.79c0,.45-.18.87-.49,1.19-.32.32-.74.49-1.19.49l-18.66.02c-.44,0-.87-.18-1.19-.49-.32-.32-.49-.74-.49-1.18v-2.79c0-2.46,1.99-4.46,4.46-4.47h0ZM42.38,31.9h-13.09c-.61.02-1.1.51-1.11,1.12v1.11h15.31v-1.13c0-.61-.5-1.1-1.11-1.11h0ZM34.07,26v2.55h3.53v-2.56c-1.16.22-2.36.22-3.53,0h0ZM45.8,17.89h0c3.75-2.08,6.02-6.09,5.86-10.38h-3.64c-.23,3.55-.98,7.04-2.23,10.37h0ZM23.61,7.54h-3.64c-.15,4.29,2.12,8.3,5.88,10.37-1.25-3.33-2.01-6.82-2.24-10.37Z"/>
</svg>