<?xml version="1.0" encoding="UTF-8"?>
<svg id="Layer_1" xmlns="http://www.w3.org/2000/svg" version="1.1" viewBox="0 0 72 72">
  <!-- Generator: Adobe Illustrator 29.7.1, SVG Export Plug-In . SVG Version: 2.1.1 Build 8)  -->
  <path d="M9.74,63.9c.46,4.62,4.36,8.12,9,8.1h34.56c4.63.02,8.53-3.47,9-8.08l4.07-39.17h4.5v-9h-18v-6.75C52.87,4.03,48.85,0,43.87,0h-15.75C23.15,0,19.13,4.03,19.13,9v6.75H1.13v9h4.5l4.12,39.15ZM53.3,63H18.7l-4.07-38.25h42.75l-4.07,38.25ZM28.13,9h15.75v6.75h-15.75v-6.75Z"/>
  <rect x="23.63" y="31.5" width="9" height="24.75"/>
  <rect x="39.37" y="31.5" width="9" height="24.75"/>
</svg>