<svg xmlns="http://www.w3.org/2000/svg" version="1.1" viewBox="-5.0 -10.0 110.0 135.0">
 <path d="m34.508 35.273c0.39844 1.3203 1.6094 2.2266 2.9922 2.2266h25c1.3828 0 2.5938-0.90625 2.9922-2.2266l4.6875-15.625c0.32812-1.0938 0.03125-2.2812-0.76563-3.0938-0.80469-0.8125-1.9844-1.125-3.0859-0.8125l-8.5781 2.4531-5.0312-8.8125c-0.5625-0.96875-1.5938-1.5703-2.7188-1.5703s-2.1562 0.60156-2.7109 1.5781l-5.0312 8.8125-8.5859-2.4609c-1.0938-0.3125-2.2812 0-3.0859 0.8125-0.80469 0.8125-1.0938 2-0.76563 3.0938zm8.3828-10.391c1.3828 0.39844 2.8594-0.20312 3.5703-1.4531l3.5391-6.1953 3.5391 6.1875c0.71094 1.25 2.1875 1.8516 3.5703 1.4531l5.4453-1.5547-2.3828 7.9297h-20.344l-2.375-7.9297zm44.609 61.055h-1.5625v-25.773c0-3.0234-2.4609-5.4766-5.4766-5.4766h-16.398v-3.8984c0-3.0234-2.4609-5.4766-5.4766-5.4766h-17.172c-3.0156 0-5.4766 2.4609-5.4766 5.4766v13.273h-16.398c-3.0156 0-5.4766 2.4609-5.4766 5.4766v16.398h-1.5625c-1.7266 0-3.125 1.3984-3.125 3.125s1.3984 3.125 3.125 3.125h75c1.7266 0 3.125-1.3984 3.125-3.125s-1.3984-3.125-3.125-3.125zm-67.188-15.625h15.625v15.625h-15.625zm21.875-3.125v-15.625h15.625v34.375h-15.625zm21.875 18.75v-25h15.625v25z"/>
<text x="0.0" y="117.5" font-size="5.0" font-weight="bold" font-family="Arbeit Regular, Helvetica, Arial-Unicode, Arial, Sans-serif" fill="#000000">Created by Anamika singh</text><text x="0.0" y="122.5" font-size="5.0" font-weight="bold" font-family="Arbeit Regular, Helvetica, Arial-Unicode, Arial, Sans-serif" fill="#000000">from Noun Project</text></svg>