<svg xmlns="http://www.w3.org/2000/svg" version="1.1" viewBox="-5.0 -10.0 110.0 135.0">
 <path d="m92.188 50c0-23.266-18.922-42.188-42.188-42.188s-42.188 18.922-42.188 42.188c0 11.844 4.9219 22.562 12.812 30.234 0 0 0.03125 0.03125 0.046875 0.03125 7.5938 7.3594 17.938 11.906 29.328 11.906s21.734-4.5469 29.328-11.906c0 0 0.03125-0.03125 0.046875-0.03125 7.8906-7.6719 12.812-18.391 12.812-30.234zm-42.188-39.062c21.547 0 39.062 17.516 39.062 39.062 0 10-3.7812 19.125-9.9688 26.031-3.5-9.8906-12.938-16.656-23.562-16.656h-11.062c-10.625 0-20.062 6.7656-23.562 16.656-6.2031-6.9219-9.9688-16.047-9.9688-26.031 0-21.547 17.516-39.062 39.062-39.062zm-26.609 67.625c2.6094-9.4531 11.266-16.062 21.078-16.062h11.062c9.8125 0 18.469 6.5938 21.078 16.062-6.9844 6.5156-16.344 10.5-26.609 10.5s-19.641-4-26.609-10.5z"/>
 <path d="m50 54.688c8.6094 0 15.625-7.0156 15.625-15.625s-7.0156-15.625-15.625-15.625-15.625 7.0156-15.625 15.625 7.0156 15.625 15.625 15.625zm0-28.125c6.8906 0 12.5 5.6094 12.5 12.5s-5.6094 12.5-12.5 12.5-12.5-5.6094-12.5-12.5 5.6094-12.5 12.5-12.5z"/>
<text x="0.0" y="117.5" font-size="5.0" font-weight="bold" font-family="Arbeit Regular, Helvetica, Arial-Unicode, Arial, Sans-serif" fill="#000000">Created by Roat Studio</text><text x="0.0" y="122.5" font-size="5.0" font-weight="bold" font-family="Arbeit Regular, Helvetica, Arial-Unicode, Arial, Sans-serif" fill="#000000">from Noun Project</text></svg>