<svg xmlns="http://www.w3.org/2000/svg" xmlns:xlink="http://www.w3.org/1999/xlink" xmlns:xodm="http://www.corel.com/coreldraw/odm/2003" xml:space="preserve" version="1.1" style="shape-rendering:geometricPrecision;text-rendering:geometricPrecision;image-rendering:optimizeQuality;" viewBox="0 0 846.66 1058.325" x="0px" y="0px" fill-rule="evenodd" clip-rule="evenodd"><defs><style type="text/css">
   
    .fil0 {fill:black}
   
  </style></defs><g><path class="fil0" d="M56.28 626.35l223.39 0 0 153.81 -223.39 0 0 -153.81zm603.23 -426.96l66.8 0 0 33.88 -66.8 0 0 -33.88zm-30.59 104.71l56.18 32.44 -16.94 29.24 -56.18 -32.44 16.94 -29.24zm-16.94 -204.79l56.18 -32.45 16.94 29.24 -56.18 32.45 -16.94 -29.24zm-424.84 133.96l-66.8 0 0 -33.88 66.8 0 0 33.88zm47.47 100.07l-56.19 32.44 -16.8 -29.24 56.19 -32.44 16.8 29.24zm-16.87 -204.79l-56.19 -32.45 16.94 -29.24 56.19 32.45 -16.94 29.24zm205.58 -62.05l51.2 95.17 106.32 19.28 -74.68 78.08 14.52 107.09 -97.36 -46.89 -97.36 46.89 14.54 -107.09 -74.69 -78.08 106.32 -19.28 51.19 -95.17zm143.67 495.67l223.39 0 0 217.99 -223.39 0 0 -217.99zm-31.97 -115.96l-223.38 0 0 333.95 223.38 0 0 -333.95z"/></g><text x="0" y="861.66" fill="#000000" font-size="5px" font-weight="bold" font-family="'Helvetica Neue', Helvetica, Arial-Unicode, Arial, Sans-serif">Created by Sunrise</text><text x="0" y="866.66" fill="#000000" font-size="5px" font-weight="bold" font-family="'Helvetica Neue', Helvetica, Arial-Unicode, Arial, Sans-serif">from the Noun Project</text></svg>