<svg xmlns="http://www.w3.org/2000/svg" data-name="Layer 1" viewBox="0 0 100 125" x="0px" y="0px"><title>Artboard 23</title><g><path d="M26.66,74.8a8,8,0,0,0,8,7.2H65.38a8,8,0,0,0,8-7.18L77,40h4V32H65V26a8,8,0,0,0-8-8H43a8,8,0,0,0-8,8v6H19v8h4ZM65.38,74,34.62,74,31,40H69ZM43,26H57v6H43Z"/><rect x="39" y="46" width="8" height="22"/><rect x="53" y="46" width="8" height="22"/></g><text x="0" y="115" fill="#000000" font-size="5px" font-weight="bold" font-family="'Helvetica Neue', Helvetica, Arial-Unicode, Arial, Sans-serif">Created by Gregor Cresnar</text><text x="0" y="120" fill="#000000" font-size="5px" font-weight="bold" font-family="'Helvetica Neue', Helvetica, Arial-Unicode, Arial, Sans-serif">from the Noun Project</text></svg>