<svg xmlns="http://www.w3.org/2000/svg" version="1.1" viewBox="-5.0 -10.0 110.0 135.0">
 <path d="m62.5 91.668h-37.879c-4.3867 0-7.9531-3.9727-7.9531-8.8555v-65.625c0-4.8828 3.5703-8.8555 7.9531-8.8555l37.879 0.003907c2.3047 0 4.168 1.8672 4.168 4.168 0 2.3008-1.8633 4.168-4.168 4.168l-37.41-0.003906c-0.046875 0.12109-0.089844 0.29688-0.089844 0.51953v65.625c0 0.22656 0.042969 0.40234 0.089844 0.51953l37.41 0.003907c2.3047 0 4.168 1.8633 4.168 4.168 0 2.3008-1.8633 4.1641-4.168 4.1641zm19.652-44.613-12.5-12.5c-1.6289-1.6289-4.2656-1.6289-5.8906 0-1.6289 1.6289-1.6289 4.2656 0 5.8906l5.3867 5.3867h-27.48c-2.3008 0-4.168 1.8672-4.168 4.168s1.8672 4.168 4.168 4.168h27.48l-5.3867 5.3867c-1.6289 1.6289-1.6289 4.2656 0 5.8906 1.6289 1.6289 4.2656 1.6289 5.8906 0l12.5-12.5c0.79688-0.79687 1.1836-1.8633 1.1836-2.9453-0.003907-1.082-0.39063-2.1484-1.1836-2.9453z"/>
<text x="0.0" y="117.5" font-size="5.0" font-weight="bold" font-family="Arbeit Regular, Helvetica, Arial-Unicode, Arial, Sans-serif" fill="#000000">Created by Khoir</text><text x="0.0" y="122.5" font-size="5.0" font-weight="bold" font-family="Arbeit Regular, Helvetica, Arial-Unicode, Arial, Sans-serif" fill="#000000">from Noun Project</text></svg>