<svg xmlns="http://www.w3.org/2000/svg" version="1.1" viewBox="-5.0 -10.0 110.0 135.0">
 <path d="m4.5 25.898v48.199h91.102v-48.199zm0.5 44.301v-3.6992h90v3.6992zm0-7.3984v-3.6992h90v3.6992zm0-7.3008v-3.6992h90v3.6992zm33.801-5-0.89844-0.60156-0.89844 0.60156 0.30078-1-0.89844-0.60156h1.1016l0.19922-0.60156 0.10156-0.39844 0.10156 0.39844 0.19922 0.60156h1.1016l-0.89844 0.60156zm-0.30078-6 0.30078 0.80078-0.89844-0.60156-0.89844 0.60156 0.30078-0.80078 0.10156-0.19922-0.89844-0.60156h1.1016l0.30078-1 0.30078 1h1.1016l-0.89844 0.60156zm0.30078-4.3008-0.89844-0.60156-0.89844 0.60156 0.30078-1-0.10547-0.19922-0.60156-0.5h1.1016l0.30078-1 0.30078 1h1.1016l-0.70312 0.5-0.19922 0.19922zm0.39844-6.6992-0.69922 0.5 0.30078 1-0.89844-0.60156-0.89844 0.60156 0.30078-1-0.69922-0.5-0.10156-0.10156h1.1016l0.30078-1 0.30078 1h1.1016zm-0.39844-3.6016-0.89844-0.60156-0.89844 0.60156 0.30078-1-0.89844-0.60156h1.1016l0.30078-1 0.30078 1h1.1016l-0.89844 0.60156zm-3 18-0.89844-0.60156-0.90234 0.60156 0.30078-1-0.69922-0.5-0.10156-0.10156h1.1016l0.30078-1 0.30078 1h1.1016l-0.10156 0.10156-0.69922 0.5zm0-5.0977-0.89844-0.60156-0.90234 0.60156 0.30078-1-0.89844-0.60156h1.1016l0.10156-0.30078 0.19922-0.69922 0.19922 0.69922 0.10156 0.30078h1.1016l-0.89844 0.60156zm-0.19922-5.6016 0.10156 0.5-0.60156-0.5-0.20312-0.19922-0.19922 0.19922-0.69922 0.40234 0.10156-0.5 0.19922-0.60156-0.80078-0.5h1.1016l0.30078-1 0.30078 1h1.1016l-0.89844 0.60156zm-0.10156-5.5 0.30078 0.80078-0.89844-0.60156-0.90234 0.60156 0.30078-0.80078 0.10156-0.19922-0.89844-0.60156h1.1016l0.30078-1 0.30078 1h1.1016l-0.89844 0.60156zm-2.8008 18.801-0.89844-0.60156-0.80078 0.60156 0.30078-1-0.89844-0.60156h1.1016l0.19922-0.60156 0.10156-0.39844 0.10156 0.39844 0.19922 0.60156h1.1016l-0.89844 0.60156zm-0.19922-6 0.30078 0.80078-0.89844-0.60156-0.90234 0.60156 0.30078-0.80078 0.10156-0.19922-0.89844-0.60156h1.1016l0.30078-1 0.30078 1h1.1016l-0.89844 0.60156zm0.19922-4.3008-0.89844-0.60156-0.80078 0.60156 0.30078-1-0.19922-0.19922-0.60156-0.5h1.1016l0.30078-1 0.30078 1h1.1016l-0.60547 0.5-0.19922 0.19922zm0.5-6.6992-0.80078 0.5 0.30078 1-0.89844-0.60156-0.80078 0.70312 0.30078-1-0.69922-0.5-0.10156-0.10156h1.1016l0.30078-1 0.30078 1h1.1016zm-0.5-3.6016-0.89844-0.60156-0.80078 0.60156 0.30078-1-0.89844-0.60156h1.1016l0.30078-1 0.30078 1h1.1016l-0.89844 0.60156zm-3 18-0.89844-0.60156-0.80078 0.60156 0.30078-1-0.69922-0.5-0.10156-0.10156h1.1016l0.30078-1 0.30078 1h1.1016l-0.10156 0.10156-0.69922 0.5zm0-5.0977-0.89844-0.60156-0.80078 0.60156 0.30078-1-0.89844-0.60156h1.1016l0.10156-0.30078 0.19922-0.69922 0.19922 0.69922 0.10156 0.30078h1.1016l-0.89844 0.60156zm-0.097657-5.6016 0.10156 0.5-0.60156-0.5-0.20312-0.19922-0.19922 0.19922-0.69922 0.40234 0.10156-0.5 0.19922-0.60156-0.80078-0.5h1.1016l0.30078-1 0.30078 1h1.1016l-0.89844 0.60156zm-0.10156-5.5 0.30078 0.80078-0.89844-0.60156-0.90234 0.60156 0.30078-0.80078 0.10156-0.19922-0.89844-0.60156h1.1016l0.30078-1 0.30078 1h1.1016l-0.89844 0.60156zm-2.8008 18.801-0.89844-0.60156-0.80078 0.60156 0.30078-1-0.89844-0.60156h1.1016l0.19922-0.60156 0.10156-0.39844 0.10156 0.39844 0.19922 0.60156h1.1016l-0.89844 0.60156zm-0.30078-6 0.30078 0.80078-0.89844-0.60156-0.80078 0.60156 0.30078-0.80078 0.10156-0.19922-0.89844-0.60156h1.1016l0.30078-1 0.30078 1h1.1016l-0.89844 0.60156zm0.30078-4.3008-0.89844-0.60156-0.80078 0.60156 0.30078-1-0.19922-0.19922-0.60156-0.5h1.1016l0.30078-1 0.30078 1h1.1016l-0.70313 0.5-0.19922 0.19922zm0.40234-6.6992-0.70312 0.5 0.30078 1-0.89844-0.60156-0.80078 0.70312 0.30078-1-0.69922-0.5-0.10156-0.10156h1.1016l0.30078-1 0.30078 1h1.1016zm-0.40234-3.6016-0.89844-0.60156-0.80078 0.60156 0.30078-1-0.89844-0.60156h1.1016l0.30078-1 0.30078 1h1.1016l-0.89844 0.60156zm-3 18-0.89844-0.60156-0.80078 0.60156 0.30078-1-0.69922-0.5-0.10156-0.10156h1.1016l0.30078-1 0.30078 1h1.1016l-0.10156 0.10156-0.69922 0.5zm0-5.0977-0.89844-0.60156-0.80078 0.60156 0.30078-1-0.89844-0.60156h1.1016l0.10156-0.30078 0.19922-0.69922 0.19922 0.69922 0.10156 0.30078h1.1016l-0.89844 0.60156zm-0.19922-5.6016 0.10156 0.5-0.60156-0.5-0.19922-0.19922-0.19922 0.19922-0.60156 0.40234 0.10156-0.5 0.19922-0.60156-0.90234-0.5h1.1016l0.30078-1 0.30078 1h1.1016l-0.89844 0.60156zm-0.10156-5.5 0.30078 0.80078-0.89844-0.60156-0.80078 0.60156 0.30078-0.80078 0.10156-0.19922-0.89844-0.60156h1.1016l0.30078-1 0.30078 1h1.1016l-0.89844 0.60156zm-2.6992 18.801-0.89844-0.60156-0.89844 0.60156 0.30078-1-0.89844-0.60156h1.1016l0.19922-0.60156 0.10156-0.39844 0.10156 0.39844 0.19922 0.60156h1.1016l-0.89844 0.60156zm-0.30078-6 0.30078 0.80078-0.89844-0.60156-0.89844 0.60156 0.30078-0.80078 0.10156-0.19922-0.89844-0.60156h1.1016l0.30078-1 0.30078 1h1.1016l-0.89844 0.60156zm0.30078-4.3008-0.89844-0.60156-0.89844 0.60156 0.30078-1-0.20312-0.19922-0.60156-0.5h1.1016l0.30078-1 0.30078 1h1.1016l-0.60156 0.5-0.19922 0.19922zm0.40234-6.6992-0.80078 0.5 0.30078 1-0.89844-0.60156-0.89844 0.60156 0.30078-1-0.69922-0.5-0.10156-0.10156h1.1016l0.30078-1 0.30078 1h1.1016zm-0.40234-3.6016-0.89844-0.60156-0.89844 0.60156 0.30078-1-0.89844-0.60156h1.1016l0.30078-1 0.30078 1h1.1016l-0.89844 0.60156zm-3.0977 18-0.89844-0.60156-0.89844 0.60156 0.30078-1-0.69922-0.5-0.10156-0.10156h1.1016l0.30078-1 0.30078 1h1.1016l-0.10156 0.10156-0.69922 0.5zm0-5.0977-0.89844-0.60156-0.89844 0.60156 0.30078-1-0.89844-0.60156h1.1016l0.10156-0.30078 0.19922-0.69922 0.19922 0.69922 0.10156 0.30078h1.1016l-0.89844 0.60156zm-0.10156-5.6016 0.10156 0.5-0.60156-0.5-0.19922-0.19922-0.19922 0.19922-0.60156 0.5 0.10156-0.5 0.19922-0.60156-0.90234-0.59766h1.1016l0.30078-1 0.30078 1h1.1016l-0.89844 0.60156zm-0.10156-5.5 0.30078 0.80078-0.89844-0.60156-0.89844 0.60156 0.30078-0.80078 0.10156-0.19922-0.89844-0.60156h1.1016l0.30078-1 0.30078 1h1.1016l-0.89844 0.60156zm-2.7969 18.801-0.89844-0.60156-0.89844 0.60156 0.30078-1-0.89844-0.60156h1.1016l0.19922-0.60156 0.10156-0.39844 0.10156 0.39844 0.19922 0.60156h1.1016l-0.89844 0.60156zm-0.20312-6 0.30078 0.80078-0.89844-0.60156-0.89844 0.60156 0.30078-0.80078 0.10156-0.19922-0.89844-0.60156h1.1016l0.30078-1 0.30078 1h1.1016l-0.89844 0.60156zm0.20312-4.3008-0.89844-0.60156-0.89844 0.60156 0.30078-1-0.10547-0.19922-0.60156-0.5h1.1016l0.30078-1 0.30078 1h1.1016l-0.70312 0.5-0.19922 0.19922zm0.39844-6.6992-0.69922 0.5 0.30078 1-0.89844-0.60156-0.89844 0.60156 0.30078-1-0.69922-0.5-0.10156-0.10156h1.1016l0.30078-1 0.30078 1h1.1016zm-0.39844-3.6016-0.89844-0.60156-0.89844 0.60156 0.30078-1-0.89844-0.60156h1.1016l0.30078-1 0.30078 1h1.1016l-0.89844 0.60156zm-3 18-0.89844-0.60156-0.89844 0.60156 0.30078-1-0.69922-0.5-0.10156-0.10156h1.1016l0.30078-1 0.30078 1h1.1016l-0.10938 0.003906-0.69922 0.5zm0-5.0977-0.89844-0.60156-0.89844 0.60156 0.30078-1-0.89844-0.60156h1.1016l0.10156-0.30078 0.19922-0.69922 0.19922 0.69922 0.10156 0.30078h1.1016l-0.89844 0.60156zm-0.10156-5.6016 0.10156 0.5-0.60156-0.5-0.30078-0.19922-0.19922 0.19922-0.60156 0.5 0.10156-0.5 0.19922-0.60156-0.80078-0.59766h1.1016l0.30078-1 0.30078 1h1.1016l-0.89844 0.60156zm-0.19922-5.5 0.30078 0.80078-0.89844-0.60156-0.89844 0.60156 0.30078-0.80078 0.10156-0.19922-0.89844-0.60156h1.1016l0.30078-1 0.30078 1h1.1016l-0.89844 0.60156zm-2.6992 18.801-0.89844-0.60156-0.89844 0.60156 0.30078-1-0.89844-0.60156h1.1016l0.19922-0.60156 0.10156-0.39844 0.10156 0.39844 0.19922 0.60156h1.1016l-0.89844 0.60156zm-0.30078-6 0.30078 0.80078-0.89844-0.60156-0.89844 0.60156 0.30078-0.80078 0.10156-0.19922-0.89844-0.60156h1.1016l0.30078-1 0.30078 1h1.1016l-0.89844 0.60156zm0.30078-4.3008-0.89844-0.60156-0.89844 0.60156 0.30078-1-0.10547-0.19922-0.60156-0.5h1.1016l0.30078-1 0.30078 1h1.1016l-0.70312 0.5-0.19922 0.19922zm0.39844-6.6992-0.69922 0.5 0.30078 1-0.89844-0.60156-0.89844 0.60156 0.30078-1-0.69922-0.5-0.10156-0.10156h1.1016l0.30078-1 0.30078 1h1.1016zm-0.39844-3.6016-0.89844-0.60156-0.89844 0.60156 0.30078-1-0.89844-0.60156h1.1016l0.30078-1 0.30078 1h1.1016l-0.89844 0.60156zm32.297 18.301v-3.6992h54.102v3.6992zm0-7.3984v-3.6992h54.102v3.6992zm0-7.3008v-3.6992h54.102v3.6992z"/>
<text x="0.0" y="117.5" font-size="5.0" font-weight="bold" font-family="Arbeit Regular, Helvetica, Arial-Unicode, Arial, Sans-serif" fill="#000000">Created by Mulham</text><text x="0.0" y="122.5" font-size="5.0" font-weight="bold" font-family="Arbeit Regular, Helvetica, Arial-Unicode, Arial, Sans-serif" fill="#000000">from Noun Project</text></svg>