<svg xmlns="http://www.w3.org/2000/svg" version="1.1" viewBox="-5.0 -10.0 110.0 135.0">
 <path d="m53.082 83.398c8.6055-0.6875 16.312-3.6016 22.539-9.6797 11.637-11.336 15.566-25.066 10.531-40.449-4.8516-14.91-15.59-23.617-31.32-25.934-6.3203-0.92578-12.43-0.23828-18.328 1.8516-16.836 6.0039-29.07 25.543-23.406 45.844 2.0898 7.4844 6.1406 13.668 11.922 18.836 5.6016 5.0352 11.996 8.3047 19.508 9.3047 1.0469 0.14844 2.5234-0.22266 3.0469 0.52344 0.50781 0.74609 0.074219 2.1055 0.17969 3.1836 0.10547 1.1484-0.19531 1.5703-1.4648 1.5391-4.3477-0.089844-8.6953-0.042969-13.039-0.03125-1.7031 0-2.8516 0.92578-2.8984 2.2695-0.042968 1.4492 1.0742 2.4062 2.9297 2.4062 5.4805 0.015625 10.965 0 16.445 0h16.91c1.2266 0 2.1953-0.46484 2.4492-1.6719 0.25391-1.1797-0.44922-2.0469-1.4492-2.6445-0.55078-0.32812-1.1484-0.375-1.7773-0.375-3.3164 0.015625-6.6328 0.015625-9.9336 0.015625-3.9297 0-3.8984 0-3.8086-4.0312 0.027343-0.77734 0.26562-0.89844 0.96484-0.95703zm-0.92578-7.2148c0-4.4648 0.03125-8.5898-0.03125-12.727-0.015625-1 0.3125-1.2539 1.2266-1.1484 2.8828 0.38672 5.75 0.88281 8.5273 1.7461 0.25391 0.089843 0.73047 0.074218 0.43359 0.65625-2.2969 4.6758-5.418 8.6172-10.156 11.473zm-0.011719-42.156c-0.015625-0.6875 0.19531-0.83594 0.85156-0.89453 3.6758-0.32812 7.3789-0.34375 10.934-1.5078 0.79297-0.26953 1.1953 0.074219 1.3906 0.86719 0.74609 3.1367 1.3008 6.2891 1.5078 9.5156 0.042969 0.89453-0.23828 1.1211-1.1055 1.0898-2.1211-0.058594-4.2266-0.015625-6.3477-0.015625-2.0625 0-4.1367-0.03125-6.1992 0-0.76172 0.03125-1.0742-0.13281-1.0469-1 0.058594-2.6914 0.042969-5.3633 0.015625-8.0547zm1.1172 13.684c2.0625 0.058593 4.1367 0.015624 6.1992 0.015624s4.1211 0.042969 6.1836-0.015624c0.82031-0.015626 1.0312 0.21094 1.0469 1.0312 0 3.5859-0.98438 6.9766-1.9727 10.367-0.14844 0.53906-0.35938 0.70312-1.0898 0.49219-3.3906-0.97266-6.8711-1.5977-10.41-1.6719-0.94141-0.03125-1.0898-0.38672-1.0742-1.2266 0.042969-2.6289 0.042969-5.2578-0.015625-7.8867-0.03125-0.92578 0.28125-1.1211 1.1328-1.1055zm3.8125 30.562c4.3164-3.3906 7.1836-7.3789 9.3359-11.906 0.29688-0.62891 0.61328-0.82031 1.3008-0.53906 2.1055 0.88281 4.2734 1.6289 6.4688 2.8672-4.8281 4.6055-10.223 7.9336-17.105 9.5781zm26.02-28.934c-0.65625 4.75-2.2109 9.2031-4.5391 13.398-1.1641 2.1211-1.1797 2.0781-3.375 1.0742-1.8086-0.83594-3.6289-1.6133-5.4688-2.375-0.64063-0.26953-1.0156-0.46484-0.73047-1.3281 1.2109-3.75 1.9727-7.6172 2.3164-11.562 0.058594-0.6875 0.25391-0.85156 0.89453-0.83594 1.7031 0.042968 3.4219 0.015624 5.125 0.015624 1.4922 0 3.0156 0.13281 4.4961-0.03125 1.5195-0.16406 1.4141 0.6875 1.2812 1.6445zm-6.1094-22.75c0.85156-0.40234 0.97266 0.12109 1.2539 0.53906 2.7031 4.1836 4.3164 8.7695 4.8711 13.711 0.25391 2.2266 0.19531 2.2422-2.0312 2.2422h-3.7188c-1.7461 0-3.5117-0.042969-5.2578 0-0.73047 0.03125-1-0.17969-1.0156-0.92578-0.12109-3.9141-0.95703-7.707-1.8359-11.488-0.17969-0.79297 0.28516-0.91016 0.71875-1.1055 2.3398-1 4.7305-1.8828 7.0156-2.9727zm-3.1367-4.4375c0.58203 0.59766 0.16406 0.79297-0.25391 0.97266-1.7773 0.76172-3.5859 1.4648-5.3633 2.2266-0.79297 0.34375-1-0.22266-1.2266-0.71875-1.375-2.8672-3.0312-5.543-5.0508-8.0195-1.2109-1.4805-2.6602-2.7031-4.0469-4.0312 6.3047 1.5352 11.43 5.0312 15.941 9.5703zm-21.465-7.5703c0.41797-0.17969 0.64063 0.19531 0.92578 0.375 4.5547 2.9141 7.543 7.125 9.918 11.949-3.3164 0.92578-6.6641 1.6289-10.129 1.6133-0.70312 0-0.97266-0.12109-0.97266-0.91016 0.042969-4.0781 0.015625-8.1406 0.03125-12.219 0-0.27344-0.17578-0.64453 0.22656-0.80859zm-6.3203 1.5664c0.47656-0.35938 0.98438-0.67188 1.6562-1.1484 0 4.4805 0 8.7539 0.015625 13.027 0 0.55078-0.25391 0.65625-0.76172 0.65625-3.1523-0.03125-6.2422-0.49219-9.3047-1.2109-0.80859-0.19531-0.71875-0.53906-0.41797-1.1367 2.0469-4.168 5.1836-7.3945 8.8125-10.188zm0.73438 26.934c-2.1641-0.015625-4.3477 0-6.5117 0-2.0625 0-4.1367-0.03125-6.1992 0.015625-0.71875 0.015625-0.98438-0.16406-0.95703-0.94141 0.074219-3.3906 0.88281-6.6641 1.6445-9.9492 0.10547-0.46484 0.34375-0.47656 0.86719-0.38672 3.7344 0.64063 7.4688 1.3438 11.277 1.3438 0.56641 0 0.82031 0.13281 0.82031 0.76172-0.03125 2.793-0.03125 5.5859 0 8.3633 0.011719 0.77734-0.375 0.79297-0.94141 0.79297zm0.94141 5.4219c-0.03125 2.793-0.015625 5.5703-0.015625 8.3633 0 0.41797 0.058594 0.74609-0.58203 0.80469-3.6758 0.32812-7.3477 0.59766-10.98 1.3281-0.6875 0.13281-0.71875-0.13281-0.86719-0.65625-1.0156-3.4219-1.9258-6.8555-2-10.621 4.5859 0 9.1133 0.015625 13.652-0.015625 0.61328 0.003907 0.80469 0.19922 0.79297 0.79688zm-22.512-26.531c4.6602-4.9609 10.293-8.1562 16.984-9.5586-4.0195 3.5234-7.2461 7.5742-9.3672 12.473-0.32812 0.76172-0.65625 0.98438-1.5078 0.67188-2-0.74609-3.9727-1.5391-5.9141-2.4336-0.71875-0.3125-0.75-0.55469-0.19531-1.1523zm-3.6445 5.0195c0.32812-0.61328 0.56641-0.50781 1.0469-0.29688 2.375 1.0312 4.75 2.0625 7.1562 3.0156 0.79297 0.3125 1.0312 0.67187 0.77734 1.4805-1.1367 3.6016-1.5547 7.3203-1.7617 11.055-0.015625 0.52344-0.03125 0.85156-0.71875 0.85156-3.8242-0.03125-7.6484-0.015625-11.531-0.015625 0.46094-5.8555 2.3555-11.086 5.0312-16.09zm1.8359 37.238c-0.82031 0.47656-1.0312 0.3125-1.4805-0.375-2.9727-4.4961-4.6602-9.457-5.4219-14.758-0.13281-0.86719-0.015625-1.4922 1.2109-1.4023 1.6445 0.13281 3.3008 0.03125 4.9609 0.03125 1.7617 0 3.5117 0.015626 5.2734 0 0.50781-0.015624 0.80469 0.03125 0.85156 0.71875 0.25391 3.8242 1.1055 7.5586 2.2422 11.219 0.29687 0.97266-0.042969 1.1484-0.71875 1.3438-2.4648 0.74609-4.7227 1.9414-6.918 3.2227zm1.9414 4.0508c2.2695-1.1211 4.4648-2.0781 6.7227-2.8984 0.62891-0.23828 0.97266-0.26953 1.2695 0.41797 1.0586 2.375 2.3906 4.6016 3.957 6.6914 1.582 2.0898 3.4375 3.9141 5.5703 5.6445-5.7188-0.68359-12.203-4.2539-17.52-9.8555zm22.363 7.8711c-2.3906-1.1797-4.0195-2.9727-5.5859-4.7812-1.7461-2-3.0938-4.3008-4.3008-6.6914-0.28516-0.55078-0.55078-0.92578 0.41797-1.1484 2.7031-0.62891 5.4062-1.0625 8.1719-1.2539 0.94141-0.058594 1.3594 0.10547 1.3281 1.2109-0.078125 4.1641-0.03125 8.3164-0.03125 12.664z"/>
<text x="0.0" y="117.5" font-size="5.0" font-weight="bold" font-family="Arbeit Regular, Helvetica, Arial-Unicode, Arial, Sans-serif" fill="#000000">Created by Culai Lai</text><text x="0.0" y="122.5" font-size="5.0" font-weight="bold" font-family="Arbeit Regular, Helvetica, Arial-Unicode, Arial, Sans-serif" fill="#000000">from Noun Project</text></svg>