<svg xmlns="http://www.w3.org/2000/svg" xmlns:xlink="http://www.w3.org/1999/xlink" xmlns:serif="http://www.serif.com/" viewBox="0 0 100 125" version="1.1" xml:space="preserve" style="" x="0px" y="0px" fill-rule="evenodd" clip-rule="evenodd" stroke-linejoin="round" stroke-miterlimit="2"><rect serif:id="69 - accessibility" x="0" y="0" width="100" height="100" style="" fill="none"/><g><g><path d="M40.75,45.837c-1.094,12.556 -3.974,24.735 -8.463,36.575c-1.096,2.891 0.361,6.127 3.252,7.223c2.891,1.096 6.127,-0.361 7.223,-3.252c3.177,-8.381 5.607,-16.92 7.238,-25.626c1.631,8.706 4.06,17.245 7.238,25.626c1.096,2.891 4.332,4.348 7.223,3.252c2.891,-1.096 4.348,-4.332 3.252,-7.223c-4.486,-11.834 -7.366,-24.005 -8.461,-36.551c6.71,-0.329 13.423,-1.033 20.135,-2.123c3.051,-0.496 5.126,-3.376 4.63,-6.427c-0.496,-3.052 -3.376,-5.127 -6.427,-4.631c-18.404,2.991 -36.809,2.873 -55.213,-0.005c-3.054,-0.478 -5.922,1.614 -6.399,4.668c-0.478,3.055 1.614,5.922 4.668,6.4c6.701,1.048 13.401,1.75 20.104,2.094Z"/><circle cx="50" cy="20.11" r="10.11"/></g></g><text x="0" y="115" fill="#000000" font-size="5px" font-weight="bold" font-family="'Helvetica Neue', Helvetica, Arial-Unicode, Arial, Sans-serif">Created by Zach Bogart</text><text x="0" y="120" fill="#000000" font-size="5px" font-weight="bold" font-family="'Helvetica Neue', Helvetica, Arial-Unicode, Arial, Sans-serif">from the Noun Project</text></svg>