<svg xmlns="http://www.w3.org/2000/svg" version="1.1" viewBox="-5.0 -10.0 110.0 135.0">
 <path d="m96.32 72.25h-29.281v23.184h29.281zm-81.762-39.102c-2.9492-3.2461-0.64062-8.4922 3.7617-8.4922 4.5352 0 6.7695 5.4961 3.5938 8.6719-2.0195 2.0195-5.1719 2.0117-7.3555-0.16797zm60.32 2.6953h-1.2422l-0.007813 9.1797c-0.59766 3.6602-4.7227 3.0547-4.7227-0.015626v-11.895c0-1.4727 1.207-2.6797 2.6797-2.6797h20.18c1.4805 0 2.6797 1.2109 2.6797 2.6797v11.891c0 3.3984-4.457 3.3125-4.7305-0.03125v-9.1328h-1.2422l0.007813 33.176h-6.1797v-16.129h-1.2422v16.129h-6.1797zm10.215-9.9102c-4.8242 4.3828-11.629-2.7266-7.0039-7.3516 4.6523-4.6562 12.082 2.2852 7.0156 7.3516zm-41.895-2.6055h-1.2422l-0.007812 9.1797c-0.59766 3.6602-4.7227 3.0547-4.7227-0.015624v-11.891c0-1.4805 1.1992-2.6797 2.6797-2.6797h20.18c1.4727 0 2.6797 1.207 2.6797 2.6797v11.891c0 3.3945-4.457 3.3125-4.7305-0.03125v-9.1328h-1.2422v33.172h-6.1797l0.007813-16.125h-1.2422v16.129h-6.1797zm10.215-9.875c-4.8281 4.3867-11.629-2.7305-7.0039-7.3555 4.6445-4.6445 12.086 2.2891 7.0156 7.3555zm-41.895 29.969h-1.2422l-0.007813 9.1797c-0.59766 3.6602-4.7227 3.0547-4.7227-0.015624v-11.895c0-1.4805 1.1992-2.6797 2.6797-2.6797h20.18c1.4805 0 2.6797 1.2031 2.6797 2.6797v11.891c0 3.3984-4.457 3.3125-4.7305-0.03125v-9.1328h-1.2422v33.172h-6.1797l0.007812-16.125h-1.2422v16.129h-6.1797zm21.441 52.012v-15.605h-29.281v15.605zm31.68 0v-35.699h-29.281v35.699z" fill-rule="evenodd"/>
<text x="0.0" y="117.5" font-size="5.0" font-weight="bold" font-family="Arbeit Regular, Helvetica, Arial-Unicode, Arial, Sans-serif" fill="#000000">Created by Design Queen</text><text x="0.0" y="122.5" font-size="5.0" font-weight="bold" font-family="Arbeit Regular, Helvetica, Arial-Unicode, Arial, Sans-serif" fill="#000000">from Noun Project</text></svg>