<?xml version="1.0" encoding="UTF-8"?>
<svg id="Layer_1" xmlns="http://www.w3.org/2000/svg" version="1.1" viewBox="0 0 72 72">
  <!-- Generator: Adobe Illustrator 29.7.1, SVG Export Plug-In . SVG Version: 2.1.1 Build 8)  -->
  <defs>
    <style>
      .st0 {
        fill-rule: evenodd;
      }
    </style>
  </defs>
  <path class="st0" d="M63.76,43.52c-1.07,0-2.51.36-3.94.36-17.55,0-31.88-14.33-31.88-31.88,0-1.43,0-2.51.36-3.94.36-2.87,1.07-5.37,1.79-7.88-2.87.36-5.37,1.43-8.24,2.51C8.96,8.06,0,20.96,0,35.64c0,20.06,16.12,36.18,36.18,36.18,15.04,0,27.58-8.96,33.31-21.85,1.07-2.51,1.79-5.37,2.51-8.24-2.87.72-5.37,1.43-8.24,1.79ZM36.18,64.66c-16.12,0-29.01-12.9-29.01-29.01,0-10.39,5.37-19.34,13.61-24.36v.72c0,21.49,17.55,39.04,39.04,39.04h.72c-5.01,8.24-13.97,13.61-24.36,13.61Z"/>
</svg>