<?xml version="1.0" encoding="UTF-8"?>
<svg id="Layer_1" xmlns="http://www.w3.org/2000/svg" version="1.1" viewBox="0 0 72 72">
  <!-- Generator: Adobe Illustrator 29.7.1, SVG Export Plug-In . SVG Version: 2.1.1 Build 8)  -->
  <path d="M36,56.57c-11.34,0-20.57-9.23-20.57-20.57s9.23-20.57,20.57-20.57,20.57,9.23,20.57,20.57-9.23,20.57-20.57,20.57ZM36,20.57c-8.51,0-15.43,6.92-15.43,15.43s6.92,15.43,15.43,15.43,15.43-6.92,15.43-15.43-6.92-15.43-15.43-15.43ZM38.57,7.71V2.57c0-1.42-1.15-2.57-2.57-2.57s-2.57,1.15-2.57,2.57v5.14c0,1.42,1.15,2.57,2.57,2.57s2.57-1.15,2.57-2.57ZM38.57,69.43v-5.14c0-1.42-1.15-2.57-2.57-2.57s-2.57,1.15-2.57,2.57v5.14c0,1.42,1.15,2.57,2.57,2.57s2.57-1.15,2.57-2.57ZM72,36c0-1.42-1.15-2.57-2.57-2.57h-5.14c-1.42,0-2.57,1.15-2.57,2.57s1.15,2.57,2.57,2.57h5.14c1.42,0,2.57-1.15,2.57-2.57ZM10.29,36c0-1.42-1.15-2.57-2.57-2.57H2.57c-1.42,0-2.57,1.15-2.57,2.57s1.15,2.57,2.57,2.57h5.14c1.42,0,2.57-1.15,2.57-2.57ZM57.82,17.82l3.64-3.64c1.01-1.01,1.01-2.63,0-3.64s-2.63-1.01-3.64,0l-3.64,3.64c-1.01,1.01-1.01,2.63,0,3.64.5.5,1.16.75,1.82.75s1.32-.25,1.82-.75h0ZM14.18,61.45l3.64-3.64c1.01-1.01,1.01-2.63,0-3.64s-2.63-1.01-3.64,0l-3.64,3.64c-1.01,1.01-1.01,2.63,0,3.64.5.5,1.16.75,1.82.75s1.32-.25,1.82-.75h0ZM61.46,61.45c1.01-1.01,1.01-2.63,0-3.64l-3.64-3.64c-1.01-1.01-2.63-1.01-3.64,0s-1.01,2.63,0,3.64l3.64,3.64c.5.5,1.16.75,1.82.75s1.32-.25,1.82-.75h0ZM17.82,17.82c1.01-1.01,1.01-2.63,0-3.64l-3.64-3.64c-1.01-1.01-2.63-1.01-3.64,0s-1.01,2.63,0,3.64l3.64,3.64c.5.5,1.16.75,1.82.75s1.32-.25,1.82-.75h0Z"/>
</svg>