<?xml version="1.0" encoding="UTF-8"?>
<svg id="Layer_1" xmlns="http://www.w3.org/2000/svg" version="1.1" viewBox="0 0 72 72">
  <!-- Generator: Adobe Illustrator 29.7.1, SVG Export Plug-In . SVG Version: 2.1.1 Build 8)  -->
  <path d="M31.37,15.28c2.99-.7,6.26-.7,9.25,0,.08.02.16.03.24.03.29,0,.57-.12.78-.34.26-.28.35-.67.24-1.04l-3.81-12.4c-.28-.91-1.12-1.53-2.07-1.53s-1.79.62-2.07,1.53l-3.81,12.4c-.11.37-.02.76.24,1.04.26.28.65.4,1.02.31h0Z"/>
  <path d="M40.63,56.73c-2.99.7-6.26.7-9.25,0-.37-.09-.76.03-1.02.31-.26.28-.35.67-.24,1.04l3.81,12.4c.28.92,1.12,1.53,2.07,1.53s1.79-.62,2.07-1.53l3.81-12.4c.11-.37.02-.76-.24-1.04-.27-.27-.65-.4-1.02-.31h0Z"/>
  <path d="M13.93,30.04c.2.22.48.34.78.34.08,0,.16,0,.23-.02.37-.08.66-.36.78-.72.94-2.99,2.5-5.68,4.64-8,.26-.28.34-.67.23-1.03s-.41-.63-.78-.72l-12.62-2.9c-.94-.21-1.88.2-2.36,1.03-.48.83-.37,1.86.29,2.56l8.81,9.47Z"/>
  <path d="M58.07,41.97c-.26-.28-.64-.4-1.01-.31-.37.08-.66.36-.78.72-.94,2.99-2.5,5.68-4.64,8.01-.26.28-.34.67-.23,1.03s.41.63.78.72l12.62,2.9c.17.04.33.06.49.06.76,0,1.48-.4,1.87-1.09.48-.83.37-1.86-.29-2.56l-8.81-9.47Z"/>
  <path d="M15.72,42.37c-.11-.36-.41-.63-.78-.72-.37-.08-.75.03-1.01.31l-8.81,9.47c-.65.7-.77,1.73-.29,2.56.39.68,1.11,1.09,1.87,1.09.16,0,.33-.02.49-.06l12.62-2.9c.37-.08.66-.36.78-.72s.02-.75-.23-1.03c-2.14-2.32-3.7-5.02-4.64-8.01h0Z"/>
  <path d="M56.28,29.63c.11.36.41.63.78.72.08.02.16.02.23.02.29,0,.57-.12.78-.34l8.81-9.47c.65-.7.77-1.73.29-2.56-.48-.83-1.42-1.24-2.36-1.03l-12.62,2.9c-.37.08-.66.36-.78.72s-.02.75.23,1.03c2.14,2.32,3.7,5.02,4.64,8.01h0Z"/>
  <path d="M36,17.48c-10.21,0-18.52,8.31-18.52,18.52s8.31,18.52,18.52,18.52,18.52-8.31,18.52-18.52-8.31-18.52-18.52-18.52Z"/>
</svg>