<svg xmlns="http://www.w3.org/2000/svg" viewBox="-1.2000000000000002 -2.4000000000000004 26.4 32.4" fill="none" x="0px" y="0px"><path fill-rule="evenodd" clip-rule="evenodd" d="M23 12C23 18.0751 18.0751 23 12 23C5.92487 23 1 18.0751 1 12C1 5.92487 5.92487 1 12 1C18.0751 1 23 5.92487 23 12ZM13 17C13 17.5523 12.5523 18 12 18C11.4477 18 11 17.5523 11 17C11 16.4477 11.4477 16 12 16C12.5523 16 13 16.4477 13 17ZM10 9.99999C10 8.89543 10.8954 8 12 8C13.1046 8 14 8.89543 14 10C14 11.1046 13.1046 12 12 12C11.4477 12 11 12.4477 11 13C11 13.5523 11.4477 14 12 14C14.2091 14 16 12.2091 16 10C16 7.79086 14.2091 6 12 6C9.79086 6 8 7.79086 8 10C8 10.5523 8.44771 11 9 11C9.55229 11 10 10.5523 10 9.99999Z" fill="black"/><text x="0.0" y="28.2" font-size="1.2000000000000002" font-weight="bold" font-family="Arbeit Regular, Helvetica, Arial-Unicode, Arial, Sans-serif" fill="#000000">Created by Amazona Adorada</text><text x="0.0" y="29.4" font-size="1.2000000000000002" font-weight="bold" font-family="Arbeit Regular, Helvetica, Arial-Unicode, Arial, Sans-serif" fill="#000000">from Noun Project</text></svg>