<svg xmlns="http://www.w3.org/2000/svg" xmlns:xlink="http://www.w3.org/1999/xlink" xmlns:serif="http://www.serif.com/" viewBox="0 0 100 125" version="1.1" xml:space="preserve" style="" x="0px" y="0px" fill-rule="evenodd" clip-rule="evenodd" stroke-linejoin="round" stroke-miterlimit="2"><path d="M50,8.333c22.996,0 41.667,18.671 41.667,41.667c-0,22.996 -18.671,41.667 -41.667,41.667c-22.996,-0 -41.667,-18.671 -41.667,-41.667c0,-22.996 18.671,-41.667 41.667,-41.667Zm0,8.334c-18.397,-0 -33.333,14.936 -33.333,33.333c-0,18.397 14.936,33.333 33.333,33.333c18.397,0 33.333,-14.936 33.333,-33.333c0,-18.397 -14.936,-33.333 -33.333,-33.333Zm4.167,55.208c-0,2.3 -1.867,4.167 -4.167,4.167c-2.3,-0 -4.167,-1.867 -4.167,-4.167l0,-27.47c0,-2.299 1.867,-4.166 4.167,-4.166c2.3,-0 4.167,1.867 4.167,4.166l-0,27.47Zm-0,-41.357c-0,2.299 -1.867,4.166 -4.167,4.166c-2.3,0 -4.167,-1.867 -4.167,-4.166l0,-2.393c0,-2.3 1.867,-4.167 4.167,-4.167c2.3,0 4.167,1.867 4.167,4.167l-0,2.393Z"/><text x="0" y="115" fill="#000000" font-size="5px" font-weight="bold" font-family="'Helvetica Neue', Helvetica, Arial-Unicode, Arial, Sans-serif">Created by mpanicon</text><text x="0" y="120" fill="#000000" font-size="5px" font-weight="bold" font-family="'Helvetica Neue', Helvetica, Arial-Unicode, Arial, Sans-serif">from the Noun Project</text></svg>