<svg xmlns="http://www.w3.org/2000/svg" xmlns:xlink="http://www.w3.org/1999/xlink" viewBox="0 0 24 30" version="1.1" x="0px" y="0px"><title>icon/circle-info-solid</title><desc>Created with Sketch.</desc><g stroke="none" stroke-width="1" fill="none" fill-rule="evenodd"><path d="M14,17 L10,17 L10,15 L11,15 L11,12 L10,12 L10,10 L13,10 L13,15 L14,15 L14,17 Z M12,7 C12.553,7 13,7.447 13,8 C13,8.553 12.553,9 12,9 C11.447,9 11,8.553 11,8 C11,7.447 11.447,7 12,7 L12,7 Z M12,2 C6.478,2 2,6.478 2,12 C2,17.522 6.478,22 12,22 C17.522,22 22,17.522 22,12 C22,6.478 17.522,2 12,2 L12,2 Z" fill="#000000"/></g><text x="0" y="39" fill="#000000" font-size="5px" font-weight="bold" font-family="'Helvetica Neue', Helvetica, Arial-Unicode, Arial, Sans-serif">Created by Travis Avery</text><text x="0" y="44" fill="#000000" font-size="5px" font-weight="bold" font-family="'Helvetica Neue', Helvetica, Arial-Unicode, Arial, Sans-serif">from the Noun Project</text></svg>