<?xml version="1.0" encoding="UTF-8"?>
<svg id="Layer_1" xmlns="http://www.w3.org/2000/svg" version="1.1" viewBox="0 0 72 72">
  <!-- Generator: Adobe Illustrator 29.7.1, SVG Export Plug-In . SVG Version: 2.1.1 Build 8)  -->
  <path d="M71.43,11.49H.57c-.32,0-.57.26-.57.57v47.88c0,.32.26.57.57.57h70.86c.32,0,.57-.26.57-.57V12.06c0-.32-.26-.57-.57-.57ZM27.55,59.37H1.14V12.63h26.41v9.68c-7.29.3-13.13,6.33-13.13,13.69s5.84,13.39,13.13,13.69v9.68ZM28.12,48.56c-6.92,0-12.56-5.63-12.56-12.56s5.63-12.56,12.56-12.56,12.56,5.63,12.56,12.56-5.63,12.56-12.56,12.56Z"/>
  <path d="M28.12,34.57c1.01,0,1.83-.82,1.83-1.83v-1.18c0-.32-.26-.57-.57-.57h-2.51c-.32,0-.57.26-.57.57v1.18c0,1.01.82,1.83,1.83,1.83ZM27.44,32.13h1.37v.61c0,.38-.31.68-.68.68s-.68-.31-.68-.68v-.61h0Z"/>
  <path d="M28.12,39.38c1.01,0,1.83-.82,1.83-1.83v-1.18c0-.32-.26-.57-.57-.57h-2.51c-.32,0-.57.26-.57.57v1.18c0,1.01.82,1.83,1.83,1.83ZM27.44,36.94h1.37v.61c0,.38-.31.68-.68.68s-.68-.31-.68-.68v-.61h0Z"/>
  <path d="M36.33,29.25c0-.32-.26-.57-.57-.57h-.1v-.99c0-.17-.07-.33-.2-.44-1.75-1.47-3.87-2.37-6.14-2.61-.16-.02-.32.04-.44.14-.12.11-.19.26-.19.42v3.47h-1.14v-3.47c0-.16-.07-.32-.19-.42-.12-.11-.28-.16-.44-.14-2.27.24-4.39,1.14-6.14,2.61-.13.11-.2.27-.2.44v.99h-.1c-.32,0-.57.26-.57.57v2.41l-1.21-.87c-.14-.1-.31-.13-.47-.09s-.3.15-.37.3c-.47.97-.8,2.01-.99,3.08-.04.26.09.51.33.61l2.72,1.25v.87c0,.09,0,.18,0,.28l-2.49-.22c-.17-.02-.34.05-.46.17-.12.13-.18.3-.15.47.2,1.49.68,2.9,1.43,4.19.09.15.23.25.4.28.03,0,.06,0,.09,0,.14,0,.27-.05.38-.14l1.64-1.43c.19.39.41.76.65,1.11.26.37.54.71.85,1.03h-2.29c-.22,0-.43.13-.52.34-.09.2-.06.44.09.61,1.9,2.17,4.53,3.53,7.39,3.83.02,0,.04,0,.06,0,.14,0,.28-.05.38-.15.12-.11.19-.26.19-.42v-1.76c.19.01.38.02.57.02s.38,0,.57-.02v1.76c0,.16.07.32.19.42.11.09.24.15.38.15.02,0,.04,0,.06,0,2.86-.3,5.48-1.66,7.39-3.83.15-.17.18-.41.09-.61-.09-.2-.3-.34-.52-.34h-2.29c.31-.32.6-.66.85-1.02.25-.35.46-.73.66-1.11l1.64,1.43c.1.09.24.14.38.14.03,0,.06,0,.09,0,.17-.03.32-.13.4-.28.75-1.29,1.23-2.71,1.43-4.19.02-.17-.03-.35-.15-.47-.12-.13-.29-.19-.46-.17l-2.49.22c0-.09,0-.18,0-.28v-.87l2.72-1.25c.24-.11.37-.36.33-.61-.18-1.07-.51-2.11-.99-3.08-.07-.15-.21-.26-.37-.3-.16-.04-.34,0-.47.09l-1.21.87v-2.41h0ZM19.91,34.7l-1.84-.84c.13-.59.3-1.16.53-1.72l1.31.94v1.62ZM18.9,40.53c-.38-.78-.66-1.59-.84-2.45l1.98.18c.06.36.15.71.26,1.05l-1.4,1.22ZM31.99,29.83v6.97c0,.65-.15,1.26-.45,1.82-.38.72-.99,1.3-1.72,1.66-.53.26-1.1.39-1.7.39s-1.17-.13-1.7-.39c-.38-.19-.73-.44-1.04-.74-.27-.27-.5-.58-.68-.92-.3-.56-.45-1.18-.45-1.82v-6.97h7.74ZM25.25,40.9l-1.49,1.49c-.42-.33-.8-.7-1.14-1.12l1.48-1.48c.14.19.3.38.47.55.21.21.43.4.67.56ZM21.72,27.96c1.37-1.09,2.97-1.81,4.69-2.09v2.81h-4.69v-.72ZM21.05,29.83h2.06v3.18h-2.06v-3.18ZM21.05,34.15h2.06v1.6h-2.06v-1.6ZM21.97,40.31c-.18-.32-.35-.66-.48-1.02-.19-.52-.33-1.07-.39-1.63-.03-.25-.05-.51-.05-.77h2.06c.01.64.15,1.28.4,1.87l-1.54,1.54ZM26.41,46.13c-1.89-.32-3.64-1.15-5.07-2.42h2.31c.85.55,1.77.94,2.76,1.15v1.27h0ZM29.18,43.82s0,0,0,0c-.69.1-1.42.11-2.12,0-.83-.12-1.61-.39-2.33-.78l1.57-1.57c.58.23,1.19.34,1.82.34s1.24-.12,1.82-.34l1.57,1.57c-.72.4-1.5.66-2.33.78ZM32.48,42.39l-1.49-1.49c.44-.31.83-.68,1.15-1.11l1.48,1.48c-.34.42-.72.79-1.14,1.12ZM35.19,35.75h-2.06v-1.6h2.06v1.6Z"/>
</svg>