<?xml version="1.0" encoding="UTF-8"?>
<svg id="Layer_1" xmlns="http://www.w3.org/2000/svg" xmlns:x="http://ns.adobe.com/Extensibility/1.0/" version="1.1" viewBox="0 0 72 72">
  <!-- Generator: Adobe Illustrator 29.7.1, SVG Export Plug-In . SVG Version: 2.1.1 Build 8)  -->
  <g>
    <path d="M5259.1,2373.6v-2c0-2.8-5-4-9.7-4s-9.7,1.3-9.7,4v2c0,1.8.7,3.6,2,4.9l5,4.9c.3.3.4.6.4,1v6.4c0,.4.2.7.6.8l2.9.9c.5.1,1-.2,1-.8v-7.2c0-.4.2-.7.4-1l5.1-5c1.3-1.3,2-3.1,2-4.9ZM5249.4,2373.5c-4.8,0-7.4-1.3-7.5-1.8h0c.1-.5,2.7-1.8,7.5-1.8s7.3,1.3,7.5,1.8c-.2.5-2.7,1.8-7.5,1.8Z"/>
    <path d="M5254.4,2383.8c-.6,0-1,.4-1,1s.4,1,1,1h4.3c.6,0,1-.4,1-1s-.4-1-1-1h-4.3Z"/>
    <path d="M5258.7,2387.2h-4.3c-.6,0-1,.4-1,1s.4,1,1,1h4.3c.6,0,1-.4,1-1s-.4-1-1-1Z"/>
    <path d="M5258.7,2390.5h-4.3c-.6,0-1,.4-1,1s.4,1,1,1h4.3c.6,0,1-.4,1-1,0-.5-.4-1-1-1Z"/>
  </g>
  <path d="M66.85,10.99H5.15c-2.8,0-5.15,2.27-5.15,5.15v39.71c0,2.8,2.27,5.15,5.15,5.15h61.69c2.8,0,5.15-2.27,5.15-5.15V16.14c0-2.88-2.27-5.15-5.15-5.15ZM48.88,43.28h-4.24l19.4,13.04h-5.46l-15.31-10.31v10.38h-2.58v-15.69h26.6v2.58h-12.96l13.04,8.79v3.64l-18.49-12.43ZM13.34,56.31h-5.38l19.4-13.11h-4.24l-18.42,12.51v-3.71l13.04-8.79H4.7v-2.58h26.6v15.69h-2.58v-10.31l-15.39,10.31ZM23.12,28.72h4.24L7.96,15.69h5.46l15.39,10.38v-10.38h2.58v15.69H4.7v-2.58h13.04l-13.04-8.79v-3.71l18.42,12.43ZM67.3,20.01l-12.96,8.72h13.04v2.58h-26.68v-15.61h2.58v10.38l15.39-10.38h5.38l-19.33,13.04h4.17l18.42-12.43v3.71Z"/>
</svg>