<?xml version="1.0" encoding="UTF-8"?>
<svg id="Layer_1" xmlns="http://www.w3.org/2000/svg" version="1.1" viewBox="0 0 72 72">
  <!-- Generator: Adobe Illustrator 29.7.1, SVG Export Plug-In . SVG Version: 2.1.1 Build 8)  -->
  <path d="M0,17.92v36.16h72V17.92H0ZM71.6,30.08v2.42h-32.06v-14.18h2.42v10.71l21.42-10.71h2.66l-23.44,11.76h10.63l18.36-9.18v1.37l-15.62,7.81h15.62ZM71.6,49.81v1.37l-18.36-9.18h-10.63l23.44,11.76h-2.66l-21.42-10.71v10.71h-2.42v-14.18h31.97v2.42h-15.54l15.62,7.81ZM8.62,53.76h-2.66l23.44-11.76h-10.63L.4,51.18v-1.37l15.62-7.81H.4v-2.42h31.97v14.18h-2.42v-10.71l-21.34,10.71ZM.4,22.27v-1.37l18.36,9.18h10.63L5.96,18.32h2.66l21.42,10.71v-10.71h2.42v14.09H.4v-2.42h15.62L.4,22.27Z"/>
</svg>