<?xml version="1.0" encoding="UTF-8"?>
<svg id="Layer_1" xmlns="http://www.w3.org/2000/svg" version="1.1" viewBox="0 0 72 72">
  <!-- Generator: Adobe Illustrator 29.7.1, SVG Export Plug-In . SVG Version: 2.1.1 Build 8)  -->
  <path d="M0,16.95v38.09h72V16.95H0ZM.4,51.97v-2.92h71.13v2.92H.4ZM.4,46.12v-2.92h71.13v2.92H.4ZM.4,40.35v-2.92h71.13v2.92H.4ZM27.11,36.4l-.71-.48-.71.48.24-.79-.71-.48h.87l.16-.48.08-.31.08.31.16.48h.87l-.71.48.39.79ZM26.87,31.66l.24.63-.71-.48-.71.48.24-.63.08-.16-.71-.48h.87l.24-.79.24.79h.87l-.71.48.07.16ZM27.11,28.26l-.71-.48-.71.48.24-.79-.08-.16-.48-.4h.87l.24-.79.24.79h.87l-.56.4-.16.16.24.79ZM27.42,22.96l-.55.4.24.79-.71-.48-.71.48.24-.79-.55-.4-.08-.08h.87l.24-.79.24.79h.87l-.09.08ZM27.11,20.12l-.71-.48-.71.48.24-.79-.71-.48h.87l.24-.79.24.79h.87l-.71.48.39.79ZM24.74,34.34l-.71-.48-.71.48.24-.79-.55-.4-.08-.08h.87l.24-.79.24.79h.87l-.08.08-.55.4.23.79ZM24.74,30.31l-.71-.48-.71.48.24-.79-.71-.48h.87l.08-.24.16-.55.16.55.08.24h.87l-.71.48.39.79ZM24.58,25.88l.08.4-.48-.4-.16-.16-.16.16-.55.32.08-.4.16-.48-.63-.4h.87l.24-.79.24.79h.87l-.71.48.15.47ZM24.5,21.54l.24.63-.71-.48-.71.48.24-.63.08-.16-.71-.48h.87l.24-.79.24.79h.87l-.71.48.07.16ZM22.29,36.4l-.71-.48-.63.48.24-.79-.71-.48h.87l.16-.48.08-.31.08.31.16.48h.87l-.71.48.31.79ZM22.13,31.66l.24.63-.71-.48-.71.48.24-.63.08-.16-.71-.48h.87l.24-.79.24.79h.87l-.71.48.07.16ZM22.29,28.26l-.71-.48-.63.48.24-.79-.16-.16-.48-.4h.87l.24-.79.24.79h.87l-.48.4-.16.16.16.79ZM22.68,22.96l-.63.4.24.79-.71-.48-.63.56.24-.79-.55-.4-.08-.08h.87l.24-.79.24.79h.87-.08ZM22.29,20.12l-.71-.48-.63.48.24-.79-.71-.48h.87l.24-.79.24.79h.87l-.71.48.31.79ZM19.92,34.34l-.71-.48-.63.48.24-.79-.55-.4-.08-.08h.87l.24-.79.24.79h.87l-.08.08-.55.4.15.79ZM19.92,30.31l-.71-.48-.63.48.24-.79-.71-.48h.87l.08-.24.16-.55.16.55.08.24h.87l-.71.48.31.79ZM19.84,25.89l.08.4-.48-.4-.16-.16-.16.16-.55.32.08-.4.16-.48-.63-.4h.87l.24-.79.24.79h.87l-.71.48.15.47ZM19.76,21.54l.24.63-.71-.48-.71.48.24-.63.08-.16-.71-.48h.87l.24-.79.24.79h.87l-.71.48.07.16ZM17.54,36.4l-.71-.48-.63.48.24-.79-.71-.48h.87l.16-.48.08-.31.08.31.16.48h.87l-.71.48.31.79ZM17.31,31.66l.24.63-.71-.48-.63.48.24-.63.08-.16-.71-.48h.87l.24-.79.24.79h.87l-.71.48v.16ZM17.54,28.26l-.71-.48-.63.48.24-.79-.16-.16-.48-.4h.87l.24-.79.24.79h.87l-.56.4-.16.16.23.79ZM17.86,22.96l-.56.4.24.79-.71-.48-.63.56.24-.79-.55-.4-.08-.08h.87l.24-.79.24.79h.87-.16ZM17.54,20.12l-.71-.48-.63.48.24-.79-.71-.48h.87l.24-.79.24.79h.87l-.71.48.31.79ZM15.17,34.34l-.71-.48-.63.48.24-.79-.55-.4-.08-.08h.87l.24-.79.24.79h.87l-.08.08-.55.4.15.79ZM15.17,30.31l-.71-.48-.63.48.24-.79-.71-.48h.87l.08-.24.16-.55.16.55.08.24h.87l-.71.48.31.79ZM15.02,25.89l.08.4-.48-.4-.16-.16-.16.16-.48.32.08-.4.16-.48-.71-.4h.87l.24-.79.24.79h.87l-.71.48.15.47ZM14.94,21.54l.24.63-.71-.48-.63.48.24-.63.08-.16-.71-.48h.87l.24-.79.24.79h.87l-.71.48v.16ZM12.8,36.4l-.71-.48-.71.48.24-.79-.71-.48h.87l.16-.48.08-.31.08.31.16.48h.87l-.71.48.39.79ZM12.57,31.66l.24.63-.71-.48-.71.48.24-.63.08-.16-.71-.48h.87l.24-.79.24.79h.87l-.71.48.07.16ZM12.8,28.26l-.71-.48-.71.48.24-.79-.16-.16-.48-.4h.87l.24-.79.24.79h.87l-.48.4-.16.16.23.79ZM13.12,22.96l-.63.4.24.79-.71-.48-.71.48.24-.79-.55-.4-.08-.08h.87l.24-.79.24.79h.87v.08ZM12.8,20.12l-.71-.48-.71.48.24-.79-.71-.48h.87l.24-.79.24.79h.87l-.71.48.39.79ZM10.35,34.34l-.71-.48-.71.48.24-.79-.55-.4-.08-.08h.87l.24-.79.24.79h.87l-.08.08-.55.4.23.79ZM10.35,30.31l-.71-.48-.71.48.24-.79-.71-.48h.87l.08-.24.16-.55.16.55.08.24h.87l-.71.48.39.79ZM10.27,25.89l.08.4-.48-.4-.16-.16-.16.16-.48.4.08-.4.16-.48-.71-.47h.87l.24-.79.24.79h.87l-.71.48.15.47ZM10.19,21.54l.24.63-.71-.48-.71.48.24-.63.08-.16-.71-.48h.87l.24-.79.24.79h.87l-.71.48.07.16ZM7.98,36.4l-.71-.48-.71.48.24-.79-.71-.48h.87l.16-.48.08-.31.08.31.16.48h.87l-.71.48.39.79ZM7.82,31.66l.24.63-.71-.48-.71.48.24-.63.08-.16-.71-.48h.87l.24-.79.24.79h.87l-.71.48.07.16ZM7.98,28.26l-.71-.48-.71.48.24-.79-.08-.16-.48-.4h.87l.24-.79.24.79h.87l-.56.4-.16.16.24.79ZM8.3,22.96l-.55.4.24.79-.71-.48-.71.48.24-.79-.55-.4-.08-.08h.87l.24-.79.24.79h.87l-.09.08ZM7.98,20.12l-.71-.48-.71.48.24-.79-.71-.48h.87l.24-.79.24.79h.87l-.71.48.39.79ZM5.61,34.34l-.71-.48-.71.48.24-.79-.55-.4-.08-.08h.87l.24-.79.24.79h.87-.09s-.55.4-.55.4l.24.87ZM5.61,30.31l-.71-.48-.71.48.24-.79-.71-.48h.87l.08-.24.16-.55.16.55.08.24h.87l-.71.48.39.79ZM5.53,25.89l.08.4-.48-.4-.24-.16-.16.16-.48.4.08-.4.16-.48-.63-.47h.87l.24-.79.24.79h.87l-.71.48.15.47ZM5.37,21.54l.24.63-.71-.48-.71.48.24-.63.08-.16-.71-.48h.87l.24-.79.24.79h.87l-.71.48.07.16ZM3.24,36.4l-.71-.48-.71.48.24-.79-.71-.48h.87l.16-.48.08-.31.08.31.16.48h.87l-.71.48.39.79ZM3,31.66l.24.63-.71-.48-.71.48.24-.63.08-.16-.71-.48h.87l.24-.79.24.79h.87l-.71.48.07.16ZM3.24,28.26l-.71-.48-.71.48.24-.79-.08-.16-.48-.4h.87l.24-.79.24.79h.87l-.56.4-.16.16.24.79ZM3.56,22.96l-.55.4.24.79-.71-.48-.71.48.24-.79-.55-.4-.08-.08h.87l.24-.79.24.79h.87l-.09.08ZM3.24,20.12l-.71-.48-.71.48.24-.79-.71-.48h.87l.24-.79.24.79h.87l-.71.48.39.79ZM28.77,34.58v-2.92h42.76v2.92H28.77ZM28.77,28.73v-2.92h42.76v2.92H28.77ZM28.77,22.96v-2.92h42.76v2.92H28.77Z"/>
</svg>