<?xml version="1.0" encoding="UTF-8"?>
<svg id="Layer_1" xmlns="http://www.w3.org/2000/svg" version="1.1" viewBox="0 0 72 72">
  <!-- Generator: Adobe Illustrator 29.7.1, SVG Export Plug-In . SVG Version: 2.1.1 Build 8)  -->
  <path d="M0,10.78v50.44h72V10.78H0ZM36.04,55.06L6.16,36l29.88-19.06,29.88,19.06-29.88,19.06Z"/>
  <path d="M28.8,32.42c-1.66,0-3.41.17-4.99.42-3.58,15.9,18.89,22.31,24.22,6.91-5.08-4.58-11.82-7.33-19.23-7.33ZM35.96,37.91l.08-.33.08.33h.33l-.25.17.08.33-.25-.17-.25.17.08-.33-.25-.17h.33ZM25.55,40.58l-.25-.17-.25.17.08-.33-.25-.17h.33s.08-.33.08-.33l.08.33h.33l-.25.17.08.33ZM26.05,34.17l-.33-.25-.33.25.08-.33-.25-.25h.42l.08-.33.08.33h.42l-.33.25.16.33ZM27.22,39.5l-.33-.25-.33.25.08-.33-.33-.25h.42l.16-.42.08.33h.42l-.33.25.16.42ZM28.22,38.5l-.17-.08-.08.08.08-.17-.17-.08h.17l.08-.17.08.17h.17l-.17.08v.17ZM29.3,41.83l-.25-.17-.17.17.08-.25-.25-.17h.25l.08-.25.08.25h.25l-.25.17.17.25ZM29.72,40.66l-.25-.17-.25.17.08-.33-.25-.17h.33l.08-.33.08.33h.33l-.25.17.08.33ZM31.3,43.16l-.33-.25-.33.25.08-.33-.33-.25h.42l.08-.33.08.33h.42l-.34.25.25.33ZM31.46,36.92l-.25-.17-.25.17.08-.33-.25-.17h.33l.08-.33.08.33h.33l-.25.17.08.33ZM34.96,39.5l-.17-.17-.25.17.08-.25-.25-.17h.25l.08-.25.08.25h.25l-.25.17.16.25ZM35.21,40.25l.08-.17-.17-.08h.17l.08-.17.08.17h.17l-.17.08.08.17-.17-.08-.17.08ZM36.13,45.99h-.17v-.17l-.08-.08h.17v-.17.17h.17l-.08.08v.17ZM36.37,42.08l-.33-.17-.33.25.08-.33-.33-.25h.42l.08-.33.08.33h.42l-.34.25.25.25ZM37.62,39.24l.08.33-.25-.25-.25.17.08-.33-.25-.17h.33l.08-.33.08.33h.33l-.25.25ZM39.04,43.41l-.25-.17-.25.17.08-.25-.25-.17h.25l.08-.25.08.25h.25l-.25.17.25.25ZM39.12,35.25h.25l.08-.25.08.25h.25l-.25.17.08.25-.25-.17-.25.17.08-.25-.08-.16ZM39.95,44.57l.08.33-.25-.17-.25.17.08-.33-.25-.25h.33l.08-.33.08.33h.33l-.25.25ZM41.12,43.66l-.25-.17-.25.17.08-.25-.25-.17h.25l.08-.25.08.25h.25l-.09.17.08.25ZM42.2,42.82l.08-.25.08.25h.25l-.25.17.08.25-.25-.17-.25.17.08-.25-.25-.17h.41ZM42.45,45.49l.08.25-.25-.17-.25.17.08-.25-.25-.17h.25l.08-.25.08.25h.41l-.25.17ZM42.54,44.24l.08.33-.25-.25-.25.17.08-.33-.25-.17h.33l.08-.33.08.33h.33l-.25.25ZM43.78,43.49l-.25-.17-.17.17.08-.25-.25-.17h.33l.08-.25.08.25h.25l-.25.17.08.25ZM44.78,40.25l.08-.33.08.33h.42l-.33.25.08.33-.33-.25-.33.25.08-.33-.18-.25h.42ZM44.87,42.91l-.25-.17-.25.17.08-.33-.25-.17h.33l.08-.33.08.33h.33l-.25.17.08.33ZM45.61,41.91l-.25-.17-.25.17.08-.33-.25-.17h.33l.08-.33.08.33h.33l-.25.17.08.33ZM46.78,40.58l.08.25-.25-.17-.25.17.08-.25-.25-.17h.25l.08-.25.08.25h.25l-.08.17Z"/>
  <path d="M36.04,23.43c-4.91-.08-9.57,3-11.57,7.49,8.65-1.33,17.73,1.5,23.97,6.82,1.16-7.49-4.83-14.4-12.4-14.32h0ZM40.29,32.5l-.33-.25-.33.25.08-.33-.34-.25h.42l.08-.33.08.33h.42l-.33.25.25.33Z"/>
</svg>