<?xml version="1.0" encoding="UTF-8"?>
<svg id="Layer_1" xmlns="http://www.w3.org/2000/svg" version="1.1" viewBox="0 0 72 72">
  <!-- Generator: Adobe Illustrator 29.7.1, SVG Export Plug-In . SVG Version: 2.1.1 Build 8)  -->
  <path d="M38.58,63.92c7.19-.57,13.63-3.01,18.84-8.09,9.73-9.48,13.01-20.95,8.8-33.81C62.16,9.55,53.19,2.27,40.04.34c-5.28-.77-10.39-.2-15.32,1.55C10.65,6.9.42,23.24,5.16,40.2c1.75,6.26,5.13,11.42,9.97,15.74,4.68,4.21,10.03,6.94,16.31,7.78.88.12,2.11-.19,2.55.44.42.62.06,1.76.15,2.66.09.96-.16,1.31-1.22,1.29-3.63-.08-7.27-.04-10.9-.03-1.42,0-2.38.77-2.42,1.9-.04,1.21.9,2.01,2.45,2.01,4.58.01,9.17,0,13.75,0h14.13c1.03,0,1.83-.39,2.05-1.4.21-.99-.38-1.71-1.21-2.21-.46-.27-.96-.31-1.49-.31-2.77.01-5.54.01-8.3.01-3.28,0-3.26,0-3.18-3.37.02-.65.22-.75.81-.8h0ZM37.8,57.89c0-3.73.03-7.18-.03-10.64-.01-.84.26-1.05,1.03-.96,2.41.32,4.81.74,7.13,1.46.21.08.61.06.36.55-1.92,3.91-4.53,7.2-8.49,9.59h0ZM37.79,22.65c-.01-.57.16-.7.71-.75,3.07-.27,6.17-.29,9.14-1.26.66-.23,1,.06,1.16.72.62,2.62,1.09,5.26,1.26,7.95.04.75-.2.94-.92.91-1.77-.05-3.53-.01-5.31-.01s-3.46-.03-5.18,0c-.64.03-.9-.11-.88-.84.05-2.25.04-4.48.01-6.73h0ZM38.73,34.09c1.72.05,3.46.01,5.18.01s3.44.04,5.17-.01c.69-.01.86.18.88.86,0,3-.82,5.83-1.65,8.67-.12.45-.3.59-.91.41-2.83-.81-5.74-1.34-8.7-1.4-.79-.03-.91-.32-.9-1.03.04-2.2.04-4.39-.01-6.59-.03-.77.24-.94.95-.92h0ZM41.91,59.63c3.61-2.83,6-6.17,7.8-9.95.25-.53.51-.69,1.09-.45,1.76.74,3.57,1.36,5.41,2.4-4.04,3.85-8.55,6.63-14.3,8.01h0ZM63.66,35.45c-.55,3.97-1.85,7.69-3.79,11.2-.97,1.77-.99,1.74-2.82.9-1.51-.7-3.03-1.35-4.57-1.99-.54-.23-.85-.39-.61-1.11,1.01-3.13,1.65-6.37,1.94-9.66.05-.57.21-.71.75-.7,1.42.04,2.86.01,4.28.01,1.25,0,2.52.11,3.76-.03,1.27-.14,1.18.57,1.07,1.37h0ZM58.56,16.43c.71-.34.81.1,1.05.45,2.26,3.5,3.61,7.33,4.07,11.46.21,1.86.16,1.87-1.7,1.87h-3.11c-1.46,0-2.94-.04-4.39,0-.61.03-.84-.15-.85-.77-.1-3.27-.8-6.44-1.53-9.6-.15-.66.24-.76.6-.92,1.96-.84,3.95-1.57,5.86-2.48h0ZM55.94,12.72c.49.5.14.66-.21.81-1.49.64-3,1.22-4.48,1.86-.66.29-.84-.19-1.03-.6-1.15-2.4-2.53-4.63-4.22-6.7-1.01-1.24-2.22-2.26-3.38-3.37,5.27,1.28,9.55,4.21,13.32,8h0ZM37.99,6.39c.35-.15.54.16.77.31,3.81,2.44,6.3,5.96,8.29,9.99-2.77.77-5.57,1.36-8.47,1.35-.59,0-.81-.1-.81-.76.04-3.41.01-6.8.03-10.21,0-.23-.15-.54.19-.68h0ZM32.71,7.7c.4-.3.82-.56,1.38-.96,0,3.75,0,7.32.01,10.89,0,.46-.21.55-.64.55-2.63-.03-5.22-.41-7.78-1.01-.68-.16-.6-.45-.35-.95,1.71-3.48,4.33-6.18,7.37-8.52h0ZM33.32,30.22c-1.81-.01-3.63,0-5.44,0s-3.46-.03-5.18.01c-.6.01-.82-.14-.8-.79.06-2.83.74-5.57,1.37-8.32.09-.39.29-.4.72-.32,3.12.54,6.24,1.12,9.43,1.12.47,0,.69.11.69.64-.03,2.33-.03,4.67,0,6.99,0,.65-.31.66-.79.66h0ZM34.11,34.75c-.03,2.33-.01,4.66-.01,6.99,0,.35.05.62-.49.67-3.07.27-6.14.5-9.18,1.11-.57.11-.6-.11-.72-.55-.85-2.86-1.61-5.73-1.67-8.88,3.83,0,7.62.01,11.41-.01.51,0,.67.17.66.67h0ZM15.29,12.57c3.9-4.15,8.6-6.82,14.2-7.99-3.36,2.95-6.06,6.33-7.83,10.43-.27.64-.55.82-1.26.56-1.67-.62-3.32-1.29-4.94-2.03-.6-.26-.63-.46-.16-.96h0ZM12.25,16.77c.27-.51.47-.42.88-.25,1.99.86,3.97,1.72,5.98,2.52.66.26.86.56.65,1.24-.95,3.01-1.3,6.12-1.47,9.24-.01.44-.03.71-.6.71-3.2-.03-6.39-.01-9.64-.01.39-4.89,1.97-9.27,4.21-13.45h0ZM13.78,47.89c-.69.4-.86.26-1.24-.31-2.48-3.76-3.9-7.9-4.53-12.34-.11-.72-.01-1.25,1.01-1.17,1.37.11,2.76.03,4.15.03,1.47,0,2.94.01,4.41,0,.42-.01.67.03.71.6.21,3.2.92,6.32,1.87,9.38.25.81-.04.96-.6,1.12-2.06.62-3.95,1.62-5.78,2.69h0ZM15.4,51.28c1.9-.94,3.73-1.74,5.62-2.42.53-.2.81-.23,1.06.35.88,1.99,2,3.85,3.31,5.59,1.32,1.75,2.87,3.27,4.66,4.72-4.78-.57-10.2-3.56-14.64-8.24h0ZM34.1,57.86c-2-.99-3.36-2.48-4.67-4-1.46-1.67-2.59-3.59-3.59-5.59-.24-.46-.46-.77.35-.96,2.26-.53,4.52-.89,6.83-1.05.79-.05,1.14.09,1.11,1.01-.07,3.48-.03,6.95-.03,10.59h0Z"/>
</svg>