<?xml version="1.0" encoding="UTF-8"?>
<svg id="Layer_1" xmlns="http://www.w3.org/2000/svg" xmlns:svg="http://www.w3.org/2000/svg" xmlns:sodipodi="http://sodipodi.sourceforge.net/DTD/sodipodi-0.dtd" xmlns:rdf="http://www.w3.org/1999/02/22-rdf-syntax-ns#" xmlns:inkscape="http://www.inkscape.org/namespaces/inkscape" xmlns:dc="http://purl.org/dc/elements/1.1/" xmlns:cc="http://creativecommons.org/ns#" version="1.1" viewBox="0 0 72 72">
  <!-- Generator: Adobe Illustrator 29.7.1, SVG Export Plug-In . SVG Version: 2.1.1 Build 8)  -->
  <path d="M36,0C16.15,0,0,16.15,0,36s15.56,35.39,34.91,35.96c.35.04.73.04,1.09.04s.74,0,1.09-.04c19.35-.58,34.91-16.47,34.91-35.96S55.85,0,36,0ZM33.68,5.15v11.1h-8.35c.4-1.08.81-2.14,1.27-3.08,2.09-4.32,4.59-6.98,7.08-8.02ZM38.32,5.15c2.48,1.04,4.99,3.7,7.08,8.02.46.95.87,2,1.27,3.08h-8.35V5.15ZM25.15,6.6c-1,1.38-1.92,2.9-2.72,4.57-.75,1.56-1.43,3.28-2.03,5.08h-8.75c3.51-4.32,8.17-7.69,13.5-9.65ZM46.85,6.6c5.33,1.96,9.99,5.33,13.5,9.65h-8.75c-.6-1.8-1.28-3.52-2.03-5.08-.81-1.67-1.72-3.19-2.72-4.57ZM8.49,20.9h10.6c-.92,3.93-1.49,8.23-1.63,12.77H4.72c.34-4.6,1.67-8.94,3.77-12.77ZM23.88,20.9h9.8v12.77h-11.58c.16-4.6.8-8.94,1.78-12.77ZM38.32,20.9h9.8c.98,3.84,1.62,8.17,1.78,12.77h-11.58v-12.77ZM52.91,20.9h10.6c2.11,3.83,3.44,8.17,3.77,12.77h-12.74c-.14-4.54-.71-8.84-1.63-12.77ZM4.72,38.32h12.74c.14,4.54.72,8.84,1.63,12.77h-10.6c-2.1-3.84-3.44-8.17-3.77-12.77ZM22.1,38.32h11.58v12.77h-9.8c-.98-3.83-1.62-8.16-1.78-12.77ZM38.32,38.32h11.58c-.16,4.61-.8,8.94-1.78,12.77h-9.8v-12.77ZM54.54,38.32h12.74c-.33,4.6-1.67,8.94-3.77,12.77h-10.6c.92-3.93,1.49-8.24,1.63-12.77ZM11.61,55.74h8.78c.6,1.81,1.27,3.51,2.03,5.08.81,1.68,1.75,3.22,2.76,4.61-5.36-1.97-10.05-5.34-13.57-9.69h0ZM25.33,55.74h8.35v11.14c-2.48-1.05-4.99-3.77-7.08-8.09-.46-.95-.87-1.97-1.27-3.05h0ZM38.32,55.74h8.35c-.4,1.08-.81,2.1-1.27,3.05-2.09,4.32-4.59,7.05-7.08,8.09v-11.14h0ZM51.6,55.74h8.78c-3.52,4.35-8.21,7.72-13.57,9.69,1-1.39,1.95-2.93,2.76-4.61.76-1.57,1.43-3.27,2.03-5.08h0Z"/>
</svg>