<?xml version="1.0" encoding="UTF-8"?>
<svg id="Layer_1" xmlns="http://www.w3.org/2000/svg" xmlns:serif="http://www.serif.com/" version="1.1" viewBox="0 0 72 72">
  <!-- Generator: Adobe Illustrator 29.7.1, SVG Export Plug-In . SVG Version: 2.1.1 Build 8)  -->
  <defs>
    <style>
      .st0 {
        fill: none;
      }

      .st1 {
        fill-rule: evenodd;
      }
    </style>
  </defs>
  <rect class="st0" x="-14" y="-26.5" width="100" height="100" serif:id="61 - accessibility"/>
  <g>
    <path class="st1" d="M36,0C16.13,0,0,16.13,0,36s16.13,36,36,36,36-16.13,36-36S55.87,0,36,0ZM36,4.04c17.64,0,31.96,14.32,31.96,31.96s-14.32,31.96-31.96,31.96S4.04,53.64,4.04,36,18.36,4.04,36,4.04Z"/>
    <g>
      <path class="st1" d="M30.33,34.07c-.67,7.7-2.44,15.17-5.19,22.43-.67,1.77.22,3.76,1.99,4.43,1.77.67,3.76-.22,4.43-1.99,1.95-5.14,3.44-10.38,4.44-15.72,1,5.34,2.49,10.58,4.44,15.72.67,1.77,2.66,2.67,4.43,1.99s2.67-2.66,1.99-4.43c-2.75-7.26-4.52-14.72-5.19-22.42,4.12-.2,8.23-.63,12.35-1.3,1.87-.3,3.14-2.07,2.84-3.94-.3-1.87-2.07-3.14-3.94-2.84-11.29,1.83-22.58,1.76-33.86,0-1.87-.29-3.63.99-3.93,2.86-.29,1.87.99,3.63,2.86,3.92,4.11.64,8.22,1.07,12.33,1.28Z"/>
      <circle cx="36" cy="18.29" r="6.2"/>
    </g>
  </g>
</svg>