<?xml version="1.0" encoding="UTF-8"?>
<svg id="Layer_1" xmlns="http://www.w3.org/2000/svg" xmlns:serif="http://www.serif.com/" version="1.1" viewBox="0 0 72 72">
  <!-- Generator: Adobe Illustrator 29.7.1, SVG Export Plug-In . SVG Version: 2.1.1 Build 8)  -->
  <defs>
    <style>
      .st0 {
        fill: none;
      }

      .st1 {
        fill-rule: evenodd;
      }
    </style>
  </defs>
  <rect class="st0" x="-14" y="-26.5" width="100" height="100" serif:id="69 - accessibility"/>
  <g>
    <path class="st1" d="M27.67,32.25c-.98,11.3-3.58,22.26-7.62,32.92-.99,2.6.32,5.51,2.93,6.5s5.51-.32,6.5-2.93c2.86-7.54,5.05-15.23,6.51-23.06,1.47,7.84,3.65,15.52,6.51,23.06.99,2.6,3.9,3.91,6.5,2.93,2.6-.99,3.91-3.9,2.93-6.5-4.04-10.65-6.63-21.6-7.61-32.9,6.04-.3,12.08-.93,18.12-1.91,2.75-.45,4.61-3.04,4.17-5.78-.45-2.75-3.04-4.61-5.78-4.17-16.56,2.69-33.13,2.59-49.69,0-2.75-.43-5.33,1.45-5.76,4.2-.43,2.75,1.45,5.33,4.2,5.76,6.03.94,12.06,1.58,18.09,1.88Z"/>
    <circle cx="36" cy="9.1" r="9.1"/>
  </g>
</svg>