<?xml version="1.0" encoding="UTF-8"?>
<svg id="Layer_1" xmlns="http://www.w3.org/2000/svg" version="1.1" viewBox="0 0 72 72">
  <!-- Generator: Adobe Illustrator 29.7.1, SVG Export Plug-In . SVG Version: 2.1.1 Build 8)  -->
  <path d="M34.62,16.07c5.48.91,10.18-3.83,9.28-9.35-.56-3.35-3.24-6.05-6.56-6.61-5.48-.91-10.18,3.83-9.28,9.35.52,3.35,3.24,6.05,6.56,6.61h0Z"/>
  <path d="M62.92,15.9c-25.55,8.83-53.64.05-53.95,0-2.03-.65-4.14.48-4.79,2.48-.65,2.05.48,4.18,2.46,4.83.65.22,8.63,2.7,19.98,3.83.43.04.77.39.77.83v14.65c0,.91-.17,1.87-.43,2.74l-7.25,21.57c-.52,1.56-.09,3.35,1.21,4.35.73.57,1.56.83,2.38.83,1.6,0,3.06-1,3.62-2.61l7.64-20.31c.22-.61.77-1,1.42-1s1.21.39,1.42,1l7.64,20.31c.56,1.61,2.03,2.61,3.63,2.61.69,0,1.38-.17,2.03-.57,1.55-.95,2.16-2.91,1.55-4.65l-7.25-21.53c-.3-.87-.43-1.83-.43-2.74v-14.44c0-.43.34-.83.78-.87,6.43-.52,13.2-1.74,19.85-4,1.77-.61,3.02-2.35,2.76-4.17-.34-2.48-2.81-3.91-5.05-3.13h0Z"/>
</svg>